<svg xmlns="http://www.w3.org/2000/svg" xmlns:xlink="http://www.w3.org/1999/xlink" viewBox="0 0 1766.35 590.32"><defs><style>.cls-1{fill:#c9cde9;}.cls-2{fill:#b1b6dd;}.cls-3,.cls-8{fill:#232249;}.cls-4{fill:#292b61;}.cls-4,.cls-6,.cls-7,.cls-8{stroke:#312783;}.cls-10,.cls-11,.cls-12,.cls-16,.cls-18,.cls-19,.cls-20,.cls-4,.cls-5,.cls-6,.cls-7,.cls-8,.cls-9{stroke-miterlimit:10;}.cls-14,.cls-5{fill:#fcd4b6;}.cls-10,.cls-11,.cls-16,.cls-18,.cls-19,.cls-20,.cls-5,.cls-9{stroke:#f59d5c;}.cls-6{fill:#404999;}.cls-16,.cls-7{fill:#fff;}.cls-9{fill:url(#Безымянный_градиент_59);}.cls-10{fill:url(#Безымянный_градиент_59-2);}.cls-11{fill:url(#Безымянный_градиент_59-3);}.cls-12{fill:none;stroke:url(#Безымянный_градиент_59-4);}.cls-13{fill:#312783;}.cls-15{fill:#f59d5c;}.cls-17{fill:url(#Безымянный_градиент_59-5);}.cls-18{fill:url(#Безымянный_градиент_59-6);}.cls-19{fill:url(#Безымянный_градиент_59-7);}.cls-20{fill:url(#Безымянный_градиент_59-8);}</style><linearGradient id="Безымянный_градиент_59" x1="2572.4" y1="83.17" x2="2631.41" y2="83.17" gradientTransform="matrix(-1, 0, 0, 1, 4312.77, 0)" gradientUnits="userSpaceOnUse"><stop offset="0" stop-color="#ed6e27"/><stop offset="0.95" stop-color="#ed6e27"/></linearGradient><linearGradient id="Безымянный_градиент_59-2" x1="2563.61" y1="105.33" x2="2580.43" y2="105.33" xlink:href="#Безымянный_градиент_59"/><linearGradient id="Безымянный_градиент_59-3" x1="2624.31" y1="103.55" x2="2641.13" y2="103.55" xlink:href="#Безымянный_градиент_59"/><linearGradient id="Безымянный_градиент_59-4" x1="2600.51" y1="127.64" x2="2630.11" y2="127.64" xlink:href="#Безымянный_градиент_59"/><linearGradient id="Безымянный_градиент_59-5" x1="2597.1" y1="137.91" x2="2605.24" y2="137.91" gradientTransform="matrix(-1, 0, 0, 1, 4096.1, 0)" xlink:href="#Безымянный_градиент_59"/><linearGradient id="Безымянный_градиент_59-6" x1="1078.13" y1="251.16" x2="1381.56" y2="251.16" gradientTransform="matrix(1, 0, 0, 1, 0, 0)" xlink:href="#Безымянный_градиент_59"/><linearGradient id="Безымянный_градиент_59-7" x1="1084.37" y1="371.09" x2="1147.3" y2="371.09" gradientTransform="matrix(1, 0, 0, 1, 0, 0)" xlink:href="#Безымянный_градиент_59"/><linearGradient id="Безымянный_градиент_59-8" x1="1318.61" y1="371.09" x2="1381.53" y2="371.09" gradientTransform="matrix(1, 0, 0, 1, 0, 0)" xlink:href="#Безымянный_градиент_59"/></defs><title>404</title><g id="Слой_2" data-name="Слой 2"><g id="Слой_4" data-name="Слой 4"><path class="cls-1" d="M1920.11,584c-59.43,25-101-30.56-202.21-56.68-65.4-16.89-134-7.18-271.15,12.25-53.27,7.55-203.34,18.49-251.23,23-34.4,3.22-71.9,6.77-93.45-16.85-26.81-29.38-20.94-92,6.13-110.3,12.25-8.27,22.9-3.45,39.83-15.32,17.56-12.32,24.55-30.44,27.57-38.3,16.46-42.7-8.87-84-19.91-148.59-4.75-27.7-12.93-75.55-2.69-119,4.62-19.66,13-38.44,27.2-54.06C1204.82,33,1240,22.92,1250.67,20.27c25.1-6.24,44.43-3.87,73.53,0C1456.73,37.89,1457.44,41.91,1482,40.19c54.18-3.8,44.86-22.94,114.9-33.71,34.87-5.36,86.75-13.33,145.53,4.6,41.58,12.68,54.19,28.44,91.91,27.57,19.61-.45,31.94-5.07,41.89-8.57,9.75-3.44,17.22-5.81,27-2.15,40.65,15.13,43.4,104.34,44.43,137.87,2.18,71.09-14.76,77.69-13.79,168.51.83,78.27,13.74,104.06,19.91,114.9,14.23,25,27.74,31.93,29.11,52.08C1985.14,534,1953.25,570.09,1920.11,584Z" transform="translate(-216.67)"/><path class="cls-2" d="M1920.11,584c-59.43,25-101-30.56-202.21-56.68-65.4-16.89-134-7.18-271.15,12.25-53.27,7.55-203.34,18.49-251.23,23-34.4,3.22-71.9,6.77-93.45-16.85-26.81-29.38-20.94-92,6.13-110.3,12.25-8.27,22.9-3.45,39.83-15.32,17.56-12.32,24.55-30.44,27.57-38.3,16.46-42.7-8.87-84-19.91-148.59-4.75-27.7-12.93-75.55-2.69-119,52,32.84,98.3,102.8,100.5,168.08,2.47,73.34-51.12,128.87-23,165.44,13,16.95,36.32,20.31,70.46,21.45,110.6,3.7,153.09-21.92,225.19-27.57,119-9.33,135.47,50.11,274.22,36.76,42.16-4.05,108.19-10.41,122.55-47.49,13.1-33.82-28.53-62.93-46-151.66-4.48-22.82-5-44.32-6.12-87.32-1.81-70.94-3.22-126.2,5.34-161.77,9.75-3.44,17.22-5.81,27-2.15,40.65,15.13,43.4,104.34,44.43,137.87,2.18,71.09-14.76,77.69-13.79,168.51.83,78.27,13.74,104.06,19.91,114.9,14.23,25,27.74,31.93,29.11,52.08C1985.14,534,1953.25,570.09,1920.11,584Z" transform="translate(-216.67)"/></g><g id="Слой_2-2" data-name="Слой 2"><path class="cls-3" d="M1657.26,323.68h108.07a7.31,7.31,0,0,0,5.58-3.13,6,6,0,0,0,.95-3.39c-.14-2.84-2.75-5.53-6.53-6.53H1657.26a6.53,6.53,0,1,0,0,13.05Z" transform="translate(-216.67)"/><rect class="cls-3" x="1700.46" y="323.68" width="18.53" height="75.86" transform="translate(3202.78 723.23) rotate(-180)"/><rect class="cls-3" x="1735.78" y="383.26" width="7.74" height="76.91" transform="translate(3051.3 -510.21) rotate(135)"/><circle class="cls-3" cx="1553.61" cy="454.26" r="10.39"/><rect class="cls-3" x="1675.92" y="383.26" width="7.74" height="76.91" transform="translate(573.53 -1064.28) rotate(45)"/><circle class="cls-3" cx="1432.5" cy="454.26" r="10.39"/><rect class="cls-3" x="1705.85" y="393.67" width="7.74" height="76.91" transform="translate(-217.23 2.21) rotate(-0.07)"/><circle class="cls-3" cx="1493.05" cy="472.66" r="10.39"/><path class="cls-3" d="M1768.32,121.75A144.61,144.61,0,0,0,1758,147.64c-12,41.47,2.06,63.27,6.31,99.86.21,1.82.74,6.68,4.29,9.08,3,2,7.17,1.58,9.6.55,7.79-3.32,8.91-17.32,9.51-25.94,5.27-76,2.13-62.87,3.63-91.26.92-17.51,2.51-29.87-3.72-33.12-4.78-2.49-11.91,1.59-17.16,5.44" transform="translate(-216.67)"/><path class="cls-3" d="M1780.67,243.33l-4,80.35v3h0a10.08,10.08,0,0,1-9.63-10.51l3.24-72.8h5.2" transform="translate(-216.67)"/><polygon class="cls-4" points="1401.61 441.05 1404.81 448.65 1404.81 462.27 1338.92 462.27 1340.12 454.26 1390.39 447.65 1390.79 439.24 1401.61 441.05"/><path class="cls-4" d="M1737.1,258.77c1.69,3.3,2.58,9.55,2.78,13.93a42.09,42.09,0,0,1-2.78,18.42c-3,7.16-7.62,11.1-11.46,14.37a43.29,43.29,0,0,1-4.17,3.15l-104.92.45a165,165,0,0,1,7.65,35.49c1.28,12.46.84,21.94.34,31.45-.91,17.28-2.3,39.9-4.51,66.94l-13.2.9-14.25-152.75,1.74-13.93c45.09-1.94,77.12-10.15,99-18C1699.8,256.91,1730.41,245.68,1737.1,258.77Z" transform="translate(-216.67)"/><polygon class="cls-4" points="1387.11 441.05 1390.31 448.65 1390.31 462.27 1324.42 462.27 1325.63 454.26 1375.89 447.65 1376.3 439.24 1387.11 441.05"/><path class="cls-4" d="M1723.68,258.77c1.68,3.3,2.57,9.55,2.78,13.93.15,3.29.42,10.75-2.78,18.42-3,7.16-7.63,11.1-11.47,14.37a43.29,43.29,0,0,1-4.17,3.15l-104.92.45a165,165,0,0,1,7.65,35.49c1.28,12.46.85,21.94.35,31.45-.91,17.28-2.31,39.9-4.52,66.94l-13.2.9-14.25-152.75,1.74-13.93c45.09-1.94,77.12-10.15,99-18C1686.37,256.91,1717,245.68,1723.68,258.77Z" transform="translate(-216.67)"/><path class="cls-5" d="M1589,228c-3.21-3.1-7.67-.92-19.63,0-9.25.71-10.87-.27-15,1.6a22.94,22.94,0,0,0-9.41,8.21l40.25,1.2c3.28-1.09,5.56-3.41,5.81-6A6.72,6.72,0,0,0,1589,228Z" transform="translate(-216.67)"/><path class="cls-5" d="M1778.56,164.47c3.27-2.3,2.45-6.25,4.27-12.41a37,37,0,0,1,9.22-15.22,1.62,1.62,0,1,0-2.94-.94L1783.9,143l3.34-16.16a1.47,1.47,0,0,0-2.94-.13q-1.53,5.81-3.07,11.62-.39-7.81-.8-15.63l-1.2-1.2-2,.27-.27,16-5.61-15.89a1.68,1.68,0,0,0-2.93.8q1.26,7.35,2.53,14.69c-.72,3.52-2.78,12.67-5.61,12.69a1.89,1.89,0,0,1-1.33-.67c-1.45-1.49-2.58-2.75-3.34-3.61-2.4-2.73-3.3-4-5.07-4.4a5,5,0,0,0-2.41.13l8,12.68c1.8.75,4.25,2.13,5.34,4.68.89,2.1.13,3.27,1.06,4.67C1769.36,166.16,1775.2,166.84,1778.56,164.47Z" transform="translate(-216.67)"/><path class="cls-6" d="M1722.42,141a67.2,67.2,0,0,1,16.76,3.14,48.38,48.38,0,0,1,6.74,2.6c13.59,7.13,12,33.41,16.15,33.71,1.41.1,0-3.55,3.81-19.66,3.6,1.06,11,1.73,14.62,2.8-1.72,20.27-6.21,47.26-7.21,55.31-.27,2.17,2.3,10.53-2,15.63a25.87,25.87,0,0,1-6.41,4.8c-2.93,1.66-4.71,2.67-7.21,2.81-4.2.23-7.47-2.15-10-4a32.51,32.51,0,0,1-6-6,58.25,58.25,0,0,1-5.21-7.21l8,48.07-70.5-.4c1.71-35.81,3.09-50.84,4.19-55.2,0,0,.69-2.72.22-2.88s-1.72,5.13-5.61,7.61a30.3,30.3,0,0,1-6.61,3.36,236.88,236.88,0,0,1-78.9,12.62c.13-5.61-4.54-14.66,1-15.59,21.64-3.63,49.07-14.65,65.9-22.86,8.81-15.35,12.21-28.11,21-43.46.69-5.64,8.24-12.82,13.11-14.22,4.38-1.25,10.27-2.24,11.32-1.7l10.81,31Z" transform="translate(-216.67)"/><polyline class="cls-7" points="1507.65 142.51 1507.37 143.12 1493.73 172.75 1482.21 143.85"/><polygon class="cls-5" points="1504.08 135.5 1504.08 147.65 1494.2 154.06 1484.05 147.52 1483.38 133.63 1504.08 135.5"/><polygon class="cls-7" points="1497.39 148.12 1497.39 160.14 1510.77 147.59 1510.77 137.71 1510.77 136.1 1497.39 148.12"/><polygon class="cls-7" points="1491.53 148.12 1491.53 160.14 1479.18 147.59 1479.18 137.71 1479.18 136.1 1491.53 148.12"/><path class="cls-8" d="M1742.05,92c-1.27-7.38-6.39-16.37-14.62-19.42-4.23-1.57-7.11-.77-11.82-3.81A22.41,22.41,0,0,1,1710,63.6a13.94,13.94,0,0,1-3.6,5c-4.05,3.52-8.07,2.53-12.82,4-8.53,2.65-15.82,12.18-14.22,18.42.86,3.35,4.15,5.19,6.41,6.41,9.25,5,15.31.29,29,1.2,15.08,1,22.27,7.65,26.23,3.61C1743.39,99.87,1742.68,95.71,1742.05,92Z" transform="translate(-216.67)"/><path class="cls-5" d="M1731.76,100.32c.64,5.65,1.88,17.86-3.73,28.84a35,35,0,0,1-1.87,3.2c-1.64,2.49-5.22,7.76-11.75,10.42a9.5,9.5,0,0,1-4,1.07c-2.89-.06-5.07-1.9-9.61-6.95-5.55-6.17-8.32-9.26-9.35-11.75-.88-2.14-1.3-5.88-2.13-13.35-.64-5.74-1-8.66-.8-11,.17-2.58.87-12.78,5.6-14.42,3.56-1.22,5.28,3.8,11.75,5.34,10.11,2.41,17.12-7.17,22.43-4C1730.5,89.09,1730.92,92.83,1731.76,100.32Z" transform="translate(-216.67)"/><path class="cls-9" d="M1740.38,91.44a40.51,40.51,0,0,0-14.69-13.88A37.93,37.93,0,0,0,1711.54,73L1711,73c-2.76-.25-13.5-1.23-21.61,5.4a24.75,24.75,0,0,0-8,13.08l1.61,2.14A23.14,23.14,0,0,1,1691,81c6.83-5.23,15-4.49,20.29-4a33.09,33.09,0,0,1,26.17,15.76" transform="translate(-216.67)"/><path class="cls-10" d="M1732.34,87.44c7.44,1.2,16.78,5.31,16.82,16.29,0,9.07-4.13,15.73-14.68,19.49Z" transform="translate(-216.67)"/><path class="cls-11" d="M1688.47,85.66c-7.44,1.2-16.78,5.31-16.83,16.29,0,9.07,4.14,15.73,14.69,19.49Z" transform="translate(-216.67)"/><path class="cls-12" d="M1683.16,115.74a25,25,0,0,0,8,15.31,26.94,26.94,0,0,0,9.25,5.89,34,34,0,0,0,11.85,2.17" transform="translate(-216.67)"/><path class="cls-3" d="M1701.17,107.16c.07,2.64.13,5.28.2,7.91" transform="translate(-216.67)"/><path class="cls-13" d="M1701.17,107.16a15.9,15.9,0,0,1,.2,7.91,15.9,15.9,0,0,1-.2-7.91Z" transform="translate(-216.67)"/><path class="cls-3" d="M1717.27,107.16q.09,4,.2,7.91" transform="translate(-216.67)"/><path class="cls-13" d="M1717.27,107.16a15.9,15.9,0,0,1,.2,7.91,13.7,13.7,0,0,1-.6-3.94A14.14,14.14,0,0,1,1717.27,107.16Z" transform="translate(-216.67)"/><path class="cls-13" d="M1715.31,102a7.37,7.37,0,0,1,5.52,0,7.46,7.46,0,0,1,4.09,3.71,15.32,15.32,0,0,0-4.45-2.78A14.77,14.77,0,0,0,1715.31,102Z" transform="translate(-216.67)"/><path class="cls-13" d="M1704.86,102a14.81,14.81,0,0,0-5.16.92,15.32,15.32,0,0,0-4.45,2.78,7.46,7.46,0,0,1,4.09-3.71A7.37,7.37,0,0,1,1704.86,102Z" transform="translate(-216.67)"/><polyline class="cls-14" points="1497.39 120.63 1493.25 125.81 1487.79 120.63"/><path class="cls-15" d="M1714.06,120.63a31.22,31.22,0,0,1-1.78,2.82c-.62.91-1.29,1.8-2,2.66l-.33.42-.4-.37c-.91-.85-1.8-1.73-2.67-2.65a32.35,32.35,0,0,1-2.45-2.88,34.05,34.05,0,0,1,3,2.29c1,.82,1.89,1.66,2.79,2.53l-.72,0c.7-.86,1.41-1.7,2.16-2.51A30.91,30.91,0,0,1,1714.06,120.63Z" transform="translate(-216.67)"/><path class="cls-16" d="M1720.08,126.16c-.81-.9-4.21,3.22-9.88,3.33-6.13.13-10-4.52-10.68-3.73s2.43,5.91,7.61,7.61a10.51,10.51,0,0,0,7.75-.27C1718.7,131.28,1720.83,127,1720.08,126.16Z" transform="translate(-216.67)"/><circle class="cls-17" cx="1494.93" cy="137.91" r="4.07"/><rect class="cls-18" x="1078.13" y="241.68" width="303.43" height="18.95" rx="6.04"/><polyline class="cls-19" points="1130.41 260.63 1084.37 481.55 1097.21 481.55 1147.3 260.63"/><polyline class="cls-20" points="1335.49 260.63 1381.53 481.55 1368.69 481.55 1318.61 260.63"/><rect class="cls-6" x="1231.36" y="64.66" width="12.02" height="142.89"/><rect class="cls-6" x="1235.68" y="207.49" width="3.39" height="34.19"/><rect class="cls-6" x="1210.07" y="236.37" width="54.61" height="5.35"/><rect class="cls-6" x="1274.19" y="236.33" width="40.72" height="5.35"/><path class="cls-6" d="M1545,240.67c1.68-1.86,4.72-6.09,9.24-7.63,1.27-.44,9.58-3.12,17.49,1.6,1.39.83,7.28,5,5.47,5.34C1572.51,240.93,1570.64,241.2,1545,240.67Z" transform="translate(-216.67)"/><path class="cls-4" d="M338,409.88v-70.8H217.17v-23.2l116-166h38V311.48h36.4v27.6h-36.4v70.8Zm0-98.4v-86.8q0-20.4,1.2-40.79H338c-8,15.19-14.4,26.39-21.6,38.39l-63.6,88.4v.8Z" transform="translate(-216.67)"/><path class="cls-4" d="M607.16,277.08c0,88.4-32.8,137.2-90.4,137.2-50.79,0-85.19-47.6-86-133.6,0-87.2,37.6-135.19,90.4-135.19C576,145.49,607.16,194.28,607.16,277.08Zm-141.19,4c0,67.6,20.8,106,52.79,106,36,0,53.2-42,53.2-108.4,0-64-16.4-106-52.79-106C488.37,172.68,466,210.28,466,281.08Z" transform="translate(-216.67)"/><path class="cls-4" d="M748.36,409.88v-70.8H627.56v-23.2l116-166h38V311.48H818v27.6h-36.4v70.8Zm0-98.4v-86.8q0-20.4,1.2-40.79h-1.2c-8,15.19-14.4,26.39-21.6,38.39l-63.6,88.4v.8Z" transform="translate(-216.67)"/></g></g></svg>