<svg xmlns="http://www.w3.org/2000/svg" xmlns:xlink="http://www.w3.org/1999/xlink" viewBox="0 0 898.35 590.32"><defs><style>.cls-1{fill:#c9cde9;}.cls-2{fill:#b1b6dd;}.cls-3,.cls-42,.cls-9{fill:#fcd4b6;}.cls-3,.cls-42{stroke:#f59d5c;}.cls-11,.cls-15,.cls-18,.cls-20,.cls-22,.cls-24,.cls-25,.cls-26,.cls-27,.cls-28,.cls-29,.cls-3,.cls-32,.cls-36,.cls-42,.cls-43{stroke-miterlimit:10;}.cls-4{fill:#232249;}.cls-5{fill:#312783;}.cls-20,.cls-24,.cls-32,.cls-6{fill:#f59d5c;}.cls-7{fill:#fff;}.cls-8{fill:#292b61;}.cls-10{fill:#404999;}.cls-11{fill:#ef7b26;stroke:url(#Безымянный_градиент_60);}.cls-12{fill:#636eb2;}.cls-13{fill:#f18637;}.cls-14{fill:#4752a0;}.cls-15,.cls-29{fill:none;}.cls-15{stroke:#312783;}.cls-16,.cls-25{fill:#2a2c62;}.cls-17,.cls-18{fill:#302d7e;}.cls-18,.cls-20{stroke:#683c11;}.cls-19{fill:#414a9a;}.cls-21{fill:#232349;}.cls-22{fill:#b2b6dd;}.cls-22,.cls-29{stroke:#302d7e;}.cls-23{fill:url(#Безымянный_градиент_60-2);}.cls-24{stroke:url(#Безымянный_градиент_60-3);}.cls-25{stroke:url(#Безымянный_градиент_12);}.cls-26,.cls-27,.cls-28{fill:#cacde9;}.cls-26{stroke:url(#Безымянный_градиент_61);}.cls-27{stroke:url(#Безымянный_градиент_61-2);}.cls-28{stroke:url(#Безымянный_градиент_61-3);}.cls-30{fill:url(#Безымянный_градиент_60-4);}.cls-31{fill:url(#Безымянный_градиент_12-2);}.cls-32{stroke:url(#Безымянный_градиент_60-5);}.cls-33{fill:url(#Безымянный_градиент_12-3);}.cls-34{fill:url(#Безымянный_градиент_12-4);}.cls-35{fill:url(#Безымянный_градиент_12-5);}.cls-36{fill:#ec9266;stroke:url(#Безымянный_градиент_60-6);}.cls-37{fill:#99c;}.cls-38{fill:#29265b;}.cls-39{fill:#5560a2;}.cls-40{fill:#644f43;}.cls-41{fill:#442a19;}.cls-42,.cls-43{stroke-width:0.75px;}.cls-43{fill:#737684;stroke:#3d3d3b;}.cls-44{fill:#c54419;}</style><linearGradient id="Безымянный_градиент_60" x1="553.02" y1="336.43" x2="697.22" y2="336.43" gradientUnits="userSpaceOnUse"><stop offset="1" stop-color="#9f3b16"/><stop offset="1" stop-color="#010101"/></linearGradient><linearGradient id="Безымянный_градиент_60-2" x1="472.71" y1="-3732.05" x2="474.27" y2="-3712.95" gradientTransform="matrix(1, 0, 0, -1, 0, -3531.82)" xlink:href="#Безымянный_градиент_60"/><linearGradient id="Безымянный_градиент_60-3" x1="385.14" y1="-3760.47" x2="477.55" y2="-3760.47" gradientTransform="matrix(1, 0, 0, -1, 0, -3531.82)" xlink:href="#Безымянный_градиент_60"/><linearGradient id="Безымянный_градиент_12" x1="399.4" y1="-3689.01" x2="437.66" y2="-3689.01" gradientTransform="matrix(1, 0, 0, -1, 0, -3531.82)" gradientUnits="userSpaceOnUse"><stop offset="1" stop-color="#232349"/><stop offset="1" stop-color="#010101"/></linearGradient><linearGradient id="Безымянный_градиент_61" x1="400.56" y1="-3732.72" x2="431.31" y2="-3732.72" gradientTransform="matrix(1, 0, 0, -1, 0, -3531.82)" gradientUnits="userSpaceOnUse"><stop offset="1" stop-color="#8991c7"/><stop offset="1" stop-color="#010101"/></linearGradient><linearGradient id="Безымянный_градиент_61-2" x1="403.65" y1="-3725.79" x2="413.64" y2="-3725.79" xlink:href="#Безымянный_градиент_61"/><linearGradient id="Безымянный_градиент_61-3" x1="418.73" y1="-3726.74" x2="428.78" y2="-3726.74" xlink:href="#Безымянный_градиент_61"/><linearGradient id="Безымянный_градиент_60-4" x1="403.59" y1="-3769.44" x2="424" y2="-3769.44" gradientTransform="matrix(1, 0, 0, -1, 0, -3531.82)" xlink:href="#Безымянный_градиент_60"/><linearGradient id="Безымянный_градиент_12-2" x1="417.88" y1="-3701.14" x2="419.72" y2="-3701.14" xlink:href="#Безымянный_градиент_12"/><linearGradient id="Безымянный_градиент_60-5" x1="372.04" y1="-3756.16" x2="413.07" y2="-3756.16" gradientTransform="matrix(1, 0, 0, -1, 0, -3531.82)" xlink:href="#Безымянный_градиент_60"/><linearGradient id="Безымянный_градиент_12-3" x1="426.55" y1="-3701.15" x2="428.58" y2="-3701.15" xlink:href="#Безымянный_градиент_12"/><linearGradient id="Безымянный_градиент_12-4" x1="425.54" y1="-3696.35" x2="429.99" y2="-3696.35" xlink:href="#Безымянный_градиент_12"/><linearGradient id="Безымянный_градиент_12-5" x1="415.66" y1="-3696.51" x2="421.47" y2="-3696.51" xlink:href="#Безымянный_градиент_12"/><linearGradient id="Безымянный_градиент_60-6" x1="580.51" y1="349.26" x2="681.07" y2="349.26" xlink:href="#Безымянный_градиент_60"/></defs><title>Банк</title><g id="Слой_2" data-name="Слой 2"><g id="Слой_4" data-name="Слой 4"><path class="cls-1" d="M835.43,584c-59.43,25-101-30.56-202.21-56.68-65.4-16.89-134-7.18-271.15,12.25-53.27,7.55-203.34,18.49-251.23,23-34.4,3.22-71.9,6.77-93.45-16.85-26.81-29.38-20.94-92,6.13-110.3,12.25-8.27,22.9-3.45,39.83-15.32,17.56-12.32,24.55-30.44,27.57-38.3,16.46-42.7-8.87-84-19.91-148.59-4.75-27.7-12.93-75.55-2.69-119,4.62-19.66,13-38.44,27.2-54.06C120.14,33,155.33,22.92,166,20.27c25.1-6.24,44.43-3.87,73.53,0C372.05,37.89,372.76,41.91,397.3,40.19c54.18-3.8,44.86-22.94,114.9-33.71C547.07,1.12,599-6.85,657.73,11.08c41.58,12.68,54.19,28.44,91.91,27.57,19.61-.45,31.94-5.07,41.89-8.57,9.75-3.44,17.22-5.81,27.05-2.15C859.23,43.06,862,132.27,863,165.8c2.18,71.09-14.76,77.69-13.79,168.51.83,78.27,13.74,104.06,19.91,114.9,14.23,25,27.74,31.93,29.11,52.08C900.46,534,868.57,570.09,835.43,584Z"/><path class="cls-2" d="M835.43,584c-59.43,25-101-30.56-202.21-56.68-65.4-16.89-134-7.18-271.15,12.25-53.27,7.55-203.34,18.49-251.23,23-34.4,3.22-71.9,6.77-93.45-16.85-26.81-29.38-20.94-92,6.13-110.3,12.25-8.27,22.9-3.45,39.83-15.32,17.56-12.32,24.55-30.44,27.57-38.3,16.46-42.7-8.87-84-19.91-148.59-4.75-27.7-12.93-75.55-2.69-119,52,32.84,98.3,102.8,100.5,168.08,2.47,73.34-51.12,128.87-23,165.44,13,16.95,36.32,20.31,70.46,21.45,110.6,3.7,153.09-21.92,225.19-27.57,119-9.33,135.47,50.11,274.22,36.76,42.16-4.05,108.19-10.41,122.55-47.49,13.1-33.82-28.53-62.93-46-151.66-4.48-22.82-5-44.32-6.12-87.32-1.81-70.94-3.22-126.2,5.34-161.77,9.75-3.44,17.22-5.81,27.05-2.15C859.23,43.06,862,132.27,863,165.8c2.18,71.09-14.76,77.69-13.79,168.51.83,78.27,13.74,104.06,19.91,114.9,14.23,25,27.74,31.93,29.11,52.08C900.46,534,868.57,570.09,835.43,584Z"/><ellipse class="cls-3" cx="198.26" cy="148.21" rx="8.43" ry="8.46"/><rect class="cls-3" x="206.69" y="164.5" width="16.54" height="16.6"/><ellipse class="cls-3" cx="215.13" cy="145.91" rx="16.87" ry="24.1"/><path class="cls-4" d="M190.78,124.39c2.85-5.1,7.12-7.09,12.66-9.68,5.91-2.76,10-4.68,15.15-3.66,5.46,1.1,7.23,4.58,13.62,4.52,2.89,0,4.08-.75,5.37.22,3.45,2.57,4.17,12,.58,15.71-3.36,3.47-8.36-.27-15.93,0-11.22.39-12.77,13-23,13.12-1.05,0-6.94.08-9.79-4.3C186.33,135.54,188.63,128.23,190.78,124.39Z"/><path class="cls-5" d="M190.78,124.39a17.37,17.37,0,0,1,6-6.29,71.34,71.34,0,0,1,7.83-4,38.77,38.77,0,0,1,8.22-3.15,14.66,14.66,0,0,1,8.75.8c1.38.56,2.66,1.3,4,1.94a13.93,13.93,0,0,0,4.07,1.35,16.21,16.21,0,0,0,4.29.07,19.16,19.16,0,0,1,2.24-.21,2.9,2.9,0,0,1,1.24.3,4,4,0,0,1,1,.75,9.09,9.09,0,0,1,2.1,4.07,16.9,16.9,0,0,1,.52,4.48,14.33,14.33,0,0,1-.77,4.47,7,7,0,0,1-2.76,3.72,6.72,6.72,0,0,1-4.58.68c-1.49-.19-2.92-.54-4.35-.81a31.46,31.46,0,0,0-4.3-.57,19.28,19.28,0,0,0-2.15,0,18.72,18.72,0,0,0-2.11.27,15.06,15.06,0,0,0-7.36,4.17c-2.13,2-4,4.28-6.44,6a16.7,16.7,0,0,1-1.89,1.19l-1,.43-.52.21-.54.13-1.09.26-1.11.1a11.87,11.87,0,0,1-2.23,0,14.53,14.53,0,0,1-4.3-1,9.55,9.55,0,0,1-3.54-2.62,9.09,9.09,0,0,1-1.8-4,14,14,0,0,1-.1-4.39A23.51,23.51,0,0,1,190.78,124.39Zm0,0a23.65,23.65,0,0,0-2.7,8.32c-.34,2.87.06,6,1.95,8.29a8.88,8.88,0,0,0,3.51,2.5,13.7,13.7,0,0,0,4.24.92,11.53,11.53,0,0,0,8.1-2.4c2.31-1.75,4.13-4.07,6.25-6.13a15.64,15.64,0,0,1,7.66-4.51,19,19,0,0,1,2.25-.3,18.6,18.6,0,0,1,2.24,0,32.54,32.54,0,0,1,4.42.54c1.45.27,2.89.6,4.3.78a6,6,0,0,0,3.94-.57,6.07,6.07,0,0,0,2.37-3.21,13,13,0,0,0,.75-4.17,15.86,15.86,0,0,0-.45-4.23,8.27,8.27,0,0,0-1.85-3.69,2.28,2.28,0,0,0-1.63-.83,20.79,20.79,0,0,0-2.14.16,17.26,17.26,0,0,1-4.48-.16,14.49,14.49,0,0,1-4.21-1.5c-1.32-.68-2.57-1.44-3.9-2a14.28,14.28,0,0,0-8.49-1,37.64,37.64,0,0,0-8.22,3,72.92,72.92,0,0,0-7.85,4A17.39,17.39,0,0,0,190.78,124.39Z"/><path class="cls-5" d="M226.78,141.18a3.57,3.57,0,0,1,.78,1.29,3.89,3.89,0,0,1,.21,1.3,3.63,3.63,0,0,1-.21,1.29,3.57,3.57,0,0,1-.78,1.29,3.47,3.47,0,0,1-.79-1.29,3.63,3.63,0,0,1-.21-1.29,3.89,3.89,0,0,1,.21-1.3A3.47,3.47,0,0,1,226.78,141.18Z"/><path class="cls-5" d="M215,142.39a3.47,3.47,0,0,1,.79,1.29,4.1,4.1,0,0,1,0,2.59,3.47,3.47,0,0,1-.79,1.29,3.31,3.31,0,0,1-.78-1.29,3.92,3.92,0,0,1,0-2.59A3.57,3.57,0,0,1,215,142.39Z"/><path class="cls-6" d="M222,147.56a11.76,11.76,0,0,0,1,2.37,9.64,9.64,0,0,0,.68,1,5.83,5.83,0,0,1,.77,1.19,1.43,1.43,0,0,1,0,1,1.53,1.53,0,0,1-.57.73,6,6,0,0,1-.64.35,4.12,4.12,0,0,1-.67.24,4.35,4.35,0,0,1-2.72-.15,7.53,7.53,0,0,0,2.45-.58c.19-.09.36-.19.53-.29a3.32,3.32,0,0,0,.48-.33c.24-.22.27-.34.18-.59a6.79,6.79,0,0,0-.61-1,5.53,5.53,0,0,1-.62-1.24A5.27,5.27,0,0,1,222,147.56Z"/><path class="cls-7" d="M226.63,156.46c-.56-.68-2.52,1.43-6.5,1.72-5.46.39-9-3-9.86-1.94-.7.85.92,3.42,2.35,4.88.5.5,3.3,3.34,7,2.87C224.51,163.36,227.45,157.44,226.63,156.46Z"/><path class="cls-6" d="M226.63,156.46a.56.56,0,0,0-.61-.08,4.42,4.42,0,0,0-.6.24l-1.19.55a13.41,13.41,0,0,1-2.48.84,12.71,12.71,0,0,1-5.25.15,31.88,31.88,0,0,1-5-1.55c-.37-.13-.82-.18-.83-.09s-.1.38,0,.72a7.47,7.47,0,0,0,1.16,2.14,11.38,11.38,0,0,0,3.66,3.35,6.79,6.79,0,0,0,4.8.87,8.33,8.33,0,0,0,4.34-2.56,10.21,10.21,0,0,0,1.51-2.12,6.33,6.33,0,0,0,.5-1.2A1.62,1.62,0,0,0,226.63,156.46Zm0,0a1.64,1.64,0,0,1,0,1.27,6,6,0,0,1-.48,1.21,10.85,10.85,0,0,1-1.43,2.19,8.81,8.81,0,0,1-4.33,3,7.4,7.4,0,0,1-5.32-.59A11.2,11.2,0,0,1,211,160a8.33,8.33,0,0,1-1.28-2.46,2.23,2.23,0,0,1-.09-.8,1.12,1.12,0,0,1,.45-.9,1.21,1.21,0,0,1,.95-.2,4.3,4.3,0,0,1,.71.19c.87.33,1.62.73,2.42,1.05a17.4,17.4,0,0,0,2.43.83,12.11,12.11,0,0,0,5.12.21,12.75,12.75,0,0,0,2.49-.75l1.2-.53a6.37,6.37,0,0,1,.61-.23A.55.55,0,0,1,226.63,156.46Z"/><path class="cls-5" d="M225.24,136.66c0,.31.08.61.25.64a1.53,1.53,0,0,0,.66,0,5.47,5.47,0,0,1,1.84-.11,2.38,2.38,0,0,1,1.68,1.13,3,3,0,0,1,.43,1.81,9.47,9.47,0,0,0-1-1.33,2.19,2.19,0,0,0-1.24-.62c-.48-.09-1-.05-1.65-.1a1.52,1.52,0,0,1-1-.39A.77.77,0,0,1,225.24,136.66Z"/><path class="cls-5" d="M216.09,137.45a4.69,4.69,0,0,1-1.09,2.46,5,5,0,0,1-2.37,1.46,6,6,0,0,0-2.21.77,2.87,2.87,0,0,0-.69,2.19,2.52,2.52,0,0,1,.11-2.72,2.86,2.86,0,0,1,1.25-.83c.44-.15.86-.24,1.25-.37a5.6,5.6,0,0,0,2.11-1.06A9,9,0,0,0,216.09,137.45Z"/><path class="cls-4" d="M236.55,466.09a28.45,28.45,0,0,1-.29,8.61c-.5,2.65-1,3.13-2,6.88-1.42,5.34-2.48,9.49-.57,11.19.7.63,1.56.71,3.14.86,2.59.25,4.16-.47,6-.86s4.13-.08,8.57.57,7.72,1.46,8.86,1.72c0,0,15.42,3.62,30-1.43a5.92,5.92,0,0,0,3.43-2.58c1-1.79.77-4.44-.57-5.45s-3.73.15-6,.86c-4.31,1.33-8.21.31-16-1.72-10.31-2.69-10.45-5.55-17.44-5.74-3.76-.1-6,.66-7.43-.86-2-2.2-.33-7.11,1.43-10.9"/><path class="cls-5" d="M236.55,466.09a28.14,28.14,0,0,1-.4,9.68c-.36,1.6-1,3.1-1.38,4.66s-.81,3.14-1.17,4.71a22,22,0,0,0-.66,4.74,4.14,4.14,0,0,0,.54,2.17,2.38,2.38,0,0,0,1.8,1.08,12.64,12.64,0,0,0,4.71,0c.77-.17,1.54-.4,2.34-.6a9.56,9.56,0,0,1,2.5-.3,39.15,39.15,0,0,1,4.88.47c1.61.21,3.22.45,4.82.74s3.2.6,4.79,1a44.7,44.7,0,0,0,4.73.87,62.81,62.81,0,0,0,19.21-.34,44.06,44.06,0,0,0,4.68-1.08c1.52-.49,3.16-.8,4.29-1.75a4.51,4.51,0,0,0,1.61-3.91,3.34,3.34,0,0,0-.71-2,1.94,1.94,0,0,0-1.82-.56c-1.47.2-3,1-4.58,1.38a14.33,14.33,0,0,1-5,.4,57.48,57.48,0,0,1-9.57-2,48,48,0,0,1-9.21-3.25c-1.48-.7-2.89-1.49-4.38-2a15.43,15.43,0,0,0-4.68-.86c-1.6-.11-3.21,0-4.85,0a4.39,4.39,0,0,1-2.41-.6,3.29,3.29,0,0,1-1.31-2.1,10.39,10.39,0,0,1,.52-4.83,34,34,0,0,1,1.82-4.51,34,34,0,0,0-1.7,4.54,10.1,10.1,0,0,0-.4,4.74,3,3,0,0,0,1.24,1.9,4.15,4.15,0,0,0,2.25.5c1.59,0,3.22-.21,4.86-.15a15.77,15.77,0,0,1,4.85.82c1.56.55,3,1.33,4.46,2a47.62,47.62,0,0,0,9.13,3.08c1.57.39,3.14.78,4.71,1.13a32.14,32.14,0,0,0,4.73.77,13.56,13.56,0,0,0,4.67-.39,47.7,47.7,0,0,1,4.71-1.44,3.62,3.62,0,0,1,1.38.08,2.63,2.63,0,0,1,1.23.78,4.23,4.23,0,0,1,.95,2.51,6,6,0,0,1-.37,2.59,5,5,0,0,1-1.57,2.13,7.47,7.47,0,0,1-2.27,1.22l-2.35.73a45.85,45.85,0,0,1-4.77,1.12,63.51,63.51,0,0,1-19.51.26,45.33,45.33,0,0,1-4.81-.91q-2.36-.56-4.74-1c-1.59-.29-3.18-.52-4.78-.76a39.22,39.22,0,0,0-4.78-.52,18.33,18.33,0,0,0-4.69.81,11.59,11.59,0,0,1-2.49.22,20.48,20.48,0,0,1-2.47-.26,4,4,0,0,1-1.24-.43,2.79,2.79,0,0,1-1-.95,4.63,4.63,0,0,1-.6-2.48,21.23,21.23,0,0,1,.75-4.86c.4-1.58.82-3.14,1.29-4.7s1.1-3.06,1.5-4.61A28.34,28.34,0,0,0,236.55,466.09Z"/><path class="cls-4" d="M197.21,469.53a28.44,28.44,0,0,1-.29,8.61c-.5,2.66-1,3.13-2,6.88-1.42,5.34-2.47,9.49-.57,11.19.7.63,1.57.71,3.14.86,2.6.25,4.16-.47,6-.86s4.14-.07,8.57.58,7.72,1.45,8.87,1.72c0,0,15.41,3.61,30-1.44a5.84,5.84,0,0,0,3.43-2.58c1-1.79.77-4.44-.57-5.45s-3.72.15-6,.86c-4.3,1.34-8.21.32-16-1.72-10.3-2.69-10.45-5.55-17.44-5.74-3.76-.1-6,.66-7.43-.86-2-2.2-.32-7.11,1.43-10.9"/><path class="cls-5" d="M197.21,469.53a28.19,28.19,0,0,1-.39,9.69c-.37,1.59-1,3.1-1.39,4.66s-.81,3.13-1.17,4.7a22.09,22.09,0,0,0-.66,4.74,4.14,4.14,0,0,0,.54,2.17,2.36,2.36,0,0,0,1.81,1.08,12.59,12.59,0,0,0,4.7,0c.77-.16,1.54-.4,2.34-.6a10.06,10.06,0,0,1,2.5-.3,41.32,41.32,0,0,1,4.89.47c1.6.22,3.21.45,4.81.74s3.2.6,4.79,1a44.7,44.7,0,0,0,4.73.87,62.49,62.49,0,0,0,19.21-.34,46.62,46.62,0,0,0,4.68-1.07c1.53-.5,3.16-.81,4.29-1.76a4.46,4.46,0,0,0,1.61-3.91,3.37,3.37,0,0,0-.71-2,1.93,1.93,0,0,0-1.81-.56,47.78,47.78,0,0,0-4.59,1.39,14.33,14.33,0,0,1-5,.4,57.5,57.5,0,0,1-9.57-2,48,48,0,0,1-9.21-3.25c-1.47-.69-2.89-1.49-4.38-2a15.74,15.74,0,0,0-4.68-.86c-1.6-.1-3.21,0-4.85,0a4.49,4.49,0,0,1-2.41-.61A3.3,3.3,0,0,1,206,480a10.41,10.41,0,0,1,.52-4.83,34.56,34.56,0,0,1,1.82-4.51,34,34,0,0,0-1.7,4.54,10.26,10.26,0,0,0-.4,4.75,3,3,0,0,0,1.24,1.9,4.08,4.08,0,0,0,2.25.49c1.6,0,3.23-.21,4.86-.15a16.08,16.08,0,0,1,4.85.82c1.56.55,3,1.34,4.46,2a47.62,47.62,0,0,0,9.13,3.08c1.57.39,3.14.79,4.71,1.13a32.36,32.36,0,0,0,4.73.77,13.32,13.32,0,0,0,4.67-.39,45.19,45.19,0,0,1,4.71-1.43,3.26,3.26,0,0,1,1.38.08,2.61,2.61,0,0,1,1.23.77,4.23,4.23,0,0,1,1,2.51,6,6,0,0,1-.37,2.59,5,5,0,0,1-1.57,2.13,7.47,7.47,0,0,1-2.27,1.22l-2.35.74a45.81,45.81,0,0,1-4.77,1.11,63.2,63.2,0,0,1-19.51.26,43.38,43.38,0,0,1-4.81-.91c-1.57-.37-3.15-.69-4.74-1s-3.18-.53-4.78-.77a41.3,41.3,0,0,0-4.78-.52,18.85,18.85,0,0,0-4.69.81,10.89,10.89,0,0,1-2.49.22,20.48,20.48,0,0,1-2.47-.26,3.53,3.53,0,0,1-1.24-.43,2.79,2.79,0,0,1-1-.95,4.7,4.7,0,0,1-.6-2.48,21.88,21.88,0,0,1,.75-4.86c.4-1.58.83-3.13,1.29-4.69s1.1-3.07,1.5-4.62A27.84,27.84,0,0,0,197.21,469.53Z"/><rect class="cls-1" x="203.4" y="181.1" width="28.59" height="117.73"/><path class="cls-5" d="M232,298.83,203.4,299h-.18v-.19l-.1-29.43L203,240l-.13-58.86v-.5h.5l28.59.06h.44v.44l-.16,59-.11,29.43Zm0,0-.27-59-.16-58.75.43.43-28.59.07.5-.5L203.77,240l-.07,29.44-.11,29.43-.19-.19Z"/><polygon class="cls-8" points="193.32 313.46 193.32 479.29 214.23 479.29 223.23 327.23 231.99 479.29 251.43 479.29 251.43 318.79 251.43 295.1 195.4 295.1 193.32 313.46"/><path class="cls-5" d="M193.32,313.46l.21,165.83-.21-.22,20.91,0-.24.23,8.8-152.07h.88l2.24,38,2.16,38,4.28,76-.36-.34,19.44,0-.34.34.24-184.19.1.1-56-.08,0,0Zm0,0,2.06-18.36v0h0l56-.07h.1v.1l.24,184.19v.33h-.34l-19.44,0h-.34l0-.34-4.48-76-2.22-38-2.14-38h.88l-9.2,152v.23h-.23l-20.91,0h-.22v-.21Z"/><path class="cls-9" d="M358,175.14a13.48,13.48,0,0,0,2.1-4.47,33.47,33.47,0,0,0,1.86-9.19c.11-2.17,0-3.73.57-4s1.26.55,1.62,1.29.29,1.19,0,3.35c-.38,2.77-.61,3.46-.16,4.21a2.06,2.06,0,0,0,1.53,1c1,.08,1.82-.86,2.19-1.29,1.38-1.63,9-11,11.33-13.67a3.37,3.37,0,0,1,2.27-1.37c1.69-.05,3,2,3.56,2.92a12.75,12.75,0,0,1,1.7,8,13.81,13.81,0,0,1-2.1,5.76c-1.88,3-3.14,2.76-6.48,6.27-3.76,3.95-3.09,5.28-6,7-.23.14-2.18.92-6.07,2.49-3,1.21-3.34,1.33-4,1.29-3.51-.24-6.78-5.08-5.91-7.56C356.35,176.44,356.92,176.48,358,175.14Z"/><path class="cls-6" d="M358,175.14a11.87,11.87,0,0,0,1.63-3.19c.42-1.13.77-2.28,1.1-3.43a30.53,30.53,0,0,0,1.16-7.09c0-.6,0-1.2,0-1.8a5.78,5.78,0,0,1,.2-1.83.65.65,0,0,1,.35-.38.74.74,0,0,1,.53,0,2.3,2.3,0,0,1,.76.57,2.71,2.71,0,0,1,.75,1.71,25.23,25.23,0,0,1-.34,3.61c-.07.6-.17,1.2-.2,1.78a1.77,1.77,0,0,0,.47,1.48,1.62,1.62,0,0,0,1.39.53,2.53,2.53,0,0,0,1.34-.86c.76-.88,1.51-1.85,2.27-2.78l4.54-5.6,4.58-5.58A5.39,5.39,0,0,1,380,151a2.61,2.61,0,0,1,2.1-.28,5.9,5.9,0,0,1,2.89,2.57,13.33,13.33,0,0,1,.15,14.16,11,11,0,0,1-2.32,2.91c-.95.81-1.94,1.45-2.84,2.23a25.14,25.14,0,0,0-4.72,5.31,9.37,9.37,0,0,1-2.35,2.8c-.24.18-.5.35-.76.51s-.56.23-.84.34l-1.69.67c-2.25.88-4.46,1.81-6.75,2.6a3.1,3.1,0,0,1-1.81-.06,6,6,0,0,1-1.64-.77,9.11,9.11,0,0,1-2.48-2.62,5.93,5.93,0,0,1-1-3.4,2.22,2.22,0,0,1,.07-.45,1.57,1.57,0,0,1,.15-.43,1.9,1.9,0,0,1,.58-.68A8.09,8.09,0,0,0,358,175.14Zm0,0a9,9,0,0,1-1.27,1.28,2,2,0,0,0-.58.67,1.66,1.66,0,0,0-.14.43,1.61,1.61,0,0,0-.06.44,6,6,0,0,0,1.06,3.37,8.86,8.86,0,0,0,2.48,2.55,5.46,5.46,0,0,0,1.61.74,2.88,2.88,0,0,0,1.74,0c2.25-.81,4.44-1.82,6.65-2.74l1.65-.7c.27-.12.55-.22.81-.36a6.21,6.21,0,0,0,.72-.51,9,9,0,0,0,2.18-2.74,25.73,25.73,0,0,1,4.69-5.56c.9-.83,1.91-1.53,2.77-2.3a10.61,10.61,0,0,0,2.1-2.75,12.39,12.39,0,0,0-.24-13.18,5.06,5.06,0,0,0-2.33-2.2c-.93-.32-1.85.36-2.58,1.28l-4.62,5.52-4.67,5.5c-.79.91-1.53,1.82-2.36,2.74a3.05,3.05,0,0,1-1.69,1,2.3,2.3,0,0,1-2.33-1.61,2.68,2.68,0,0,1-.06-1c.05-.62.16-1.21.25-1.8a25.84,25.84,0,0,0,.43-3.55,2.39,2.39,0,0,0-.64-1.54,2,2,0,0,0-.65-.52.39.39,0,0,0-.59.22,5.81,5.81,0,0,0-.23,1.74l-.06,1.81a30.64,30.64,0,0,1-1.24,7.1c-.34,1.15-.71,2.29-1.13,3.42A12.07,12.07,0,0,1,358,175.14Z"/><path class="cls-10" d="M223.75,177.65l7,166.76s34.88-3.15,34.88,0,.92-127.09,0-128.81S223.75,177.65,223.75,177.65Z"/><path class="cls-5" d="M223.75,177.65l7.48,166.74-.49-.43q6.88-.61,13.78-1c4.6-.26,9.2-.47,13.82-.41,1.16,0,2.32.06,3.48.16a11.6,11.6,0,0,1,3.55.71,1.6,1.6,0,0,1,.49.35,1.05,1.05,0,0,1,.22.33.71.71,0,0,1,.05.22c0,.05,0,.24,0,.07-1.93.16-.54,0-1,0v-.8l0-1.73,0-3.45.11-13.8.34-55.19.07-27.6,0-13.8-.07-6.9-.08-3.44c0-.57-.05-1.15-.1-1.71,0-.12,0-.3-.07-.31l-.26-.29a6.3,6.3,0,0,0-.57-.6c-6.61-6.37-13.48-12.51-20.28-18.7Zm0,0,20.72,18.23,10.3,9.18c3.42,3.09,6.86,6.13,10.16,9.36a6.65,6.65,0,0,1,.62.66l.3.35a1.16,1.16,0,0,1,.14.51c.05.59.07,1.16.1,1.74l.09,3.45.1,6.9.09,13.81,0,27.6-.15,55.2-.07,13.8,0,3.45v2.54c-.43.05,1,0-1,.13,0-.23,0-.12,0-.14a0,0,0,0,0,0,0s0,0,0,0a1.05,1.05,0,0,0-.22-.14,11.16,11.16,0,0,0-3.19-.6c-1.13-.09-2.27-.12-3.41-.14-4.58-.08-9.17.12-13.76.36s-9.17.58-13.75,1l-.47,0,0-.47Z"/><rect class="cls-6" x="215.36" y="250.92" width="67.56" height="46.04" transform="translate(-56.06 483.62) rotate(-82.2)"/><path class="cls-5" d="M267.4,310.53l-45.66-5.91-.33-.05.05-.33,4.43-33.48,4.5-33.48.07-.5.49.07,45.6,6.32.43.06-.06.42-4.74,33.55Zm0,0,8.67-67,.37.48-45.62-6.17.56-.43-4.6,33.47-4.67,33.45-.28-.37Z"/><path class="cls-10" d="M181.68,275.3v64.27h25v-163l-23.58,39.88S179.68,269,180,267.84,181.68,275.3,181.68,275.3Z"/><path class="cls-5" d="M181.68,275.3l.18,64.27-.18-.18,25-.07-.25.25-.22-81.48c-.06-13.58.05-27.16.06-40.74l.12-40.74.55.15-23.7,39.81,0-.07-2,29.63L180.34,261l-.22,3.7-.1,1.86,0,.92v.41s0,0,0,0v0a.13.13,0,0,1,.08-.1.13.13,0,0,1,.1.09,1.89,1.89,0,0,1,.09.21C180.89,270.41,181.25,272.87,181.68,275.3Zm0,0c-.45-2.43-.82-4.89-1.5-7.26a.78.78,0,0,0-.09-.21.22.22,0,0,0-.06-.07.19.19,0,0,0,0,.08v0c-.09,0,0,0,0,0v-.41l0-.93.09-1.85.2-3.71.87-14.82,1.82-29.64v0l0,0,23.48-39.94.55-.93v1.08l.11,40.74c0,13.58.13,27.16.07,40.74l-.23,81.48v.25h-.25l-25-.07h-.18v-.18Z"/><path class="cls-9" d="M215.13,281.9a22.6,22.6,0,0,0,12.43,2.15,9,9,0,0,0,4.29-1.29c.89-.6,2.85-2.22,4.29-10.76,1-6.18,1.55-9.27,0-10.76-1.89-1.79-5.36-1-9.44,0a33.24,33.24,0,0,0-9.43,3.88"/><path class="cls-6" d="M215.13,281.9a23.28,23.28,0,0,0,14.58,1.4,5.46,5.46,0,0,0,2.9-1.84,12,12,0,0,0,1.57-3.24,45.08,45.08,0,0,0,1.63-7.27c.21-1.23.42-2.46.59-3.7a17.34,17.34,0,0,0,.23-3.64,3.6,3.6,0,0,0-.45-1.6,2.72,2.72,0,0,0-1.22-1,7.11,7.11,0,0,0-3.49-.32,36.64,36.64,0,0,0-3.67.64c-1.23.26-2.43.53-3.63.9a35.33,35.33,0,0,0-6.9,2.91,31.08,31.08,0,0,1,6.75-3.37c1.19-.43,2.43-.75,3.64-1.06a37.73,37.73,0,0,1,3.72-.78,7.27,7.27,0,0,1,3.93.29,3.59,3.59,0,0,1,1.63,1.34,4.55,4.55,0,0,1,.6,2,19,19,0,0,1-.19,3.86c-.16,1.26-.36,2.5-.56,3.74a44.67,44.67,0,0,1-1.75,7.4,12.45,12.45,0,0,1-1.75,3.47A6,6,0,0,1,229.9,284a21.19,21.19,0,0,1-7.61.22A24.4,24.4,0,0,1,215.13,281.9Z"/><path class="cls-10" d="M206.69,178.62a127.44,127.44,0,0,0-19.87,10.76c-14.59,9.67-18.1,16.37-19.29,18.93a38.23,38.23,0,0,0-2.15,6c-3,10.14-3.42,14.11-4.27,25.1-.81,10.42-1.35,21.87.84,28.69a10.12,10.12,0,0,0,3,4.73c2.26,1.88,5,1.88,6,2.16a179.17,179.17,0,0,0,36.45,6c1.57.09,3,1.37,4.71.86,5.33-1.55,8.5-13.62,4.29-18.5-1.57-1.83-3.76-2.17-6-2.59-10.58-1.95-25.76-4.76-28.73-11.62-.5-1.14-.65-2.38,1.28-9.46a167,167,0,0,1,7.29-21.09"/><path class="cls-5" d="M206.69,178.62a123.69,123.69,0,0,0-27.35,16.5c-4.1,3.36-8,7.09-10.71,11.68a33.07,33.07,0,0,0-2.88,7.38c-.75,2.57-1.46,5.14-2.05,7.73a102.54,102.54,0,0,0-2.08,15.83c-.41,5.33-.78,10.65-.8,16a78.12,78.12,0,0,0,.35,8,26.08,26.08,0,0,0,1.74,7.64,9.35,9.35,0,0,0,2.21,3.07,8,8,0,0,0,3.36,1.67,18.86,18.86,0,0,0,1.93.36c.72.11,1.35.31,2,.46,1.3.33,2.59.64,3.89.95,5.19,1.25,10.41,2.31,15.68,3.14,2.63.41,5.28.76,7.93,1,1.32.14,2.65.26,4,.37l2,.15c.69.05,1.28,0,2,.15,1.44.3,2.57,1.09,3.74.9a5.73,5.73,0,0,0,3-2,15.35,15.35,0,0,0,3-7.09,12.69,12.69,0,0,0-.78-7.62,4.2,4.2,0,0,0-.5-.81,5.26,5.26,0,0,0-.58-.74,5.69,5.69,0,0,0-1.53-1.09,14.14,14.14,0,0,0-3.76-1.05,159.56,159.56,0,0,1-15.67-3.51,43.47,43.47,0,0,1-7.52-2.91c-2.35-1.24-4.71-2.9-5.92-5.43a4.23,4.23,0,0,1-.34-2.07,14.94,14.94,0,0,1,.27-2c.26-1.32.59-2.62.93-3.91.7-2.59,1.46-5.15,2.28-7.7q2.46-7.64,5.63-15c-2,4.94-3.84,10-5.4,15.08-.77,2.56-1.5,5.13-2.15,7.72-.33,1.29-.63,2.59-.87,3.9a6.37,6.37,0,0,0,.1,3.8c1.14,2.34,3.4,4,5.72,5.15a41.67,41.67,0,0,0,7.43,2.83,153.73,153.73,0,0,0,15.63,3.41,14.85,14.85,0,0,1,3.94,1.09,6.48,6.48,0,0,1,1.72,1.22,5.16,5.16,0,0,1,.66.82,4.18,4.18,0,0,1,.55.9,10.13,10.13,0,0,1,1.07,4,16.47,16.47,0,0,1-.17,4.09,16.14,16.14,0,0,1-3.18,7.48,6.48,6.48,0,0,1-3.53,2.29c-1.58.21-2.84-.69-4-.88-.56-.09-1.31-.09-2-.14l-2-.14c-1.34-.1-2.67-.21-4-.35-2.67-.27-5.33-.61-8-1-5.3-.81-10.56-1.85-15.77-3.08-1.3-.32-2.6-.63-3.9-1-.65-.16-1.3-.37-1.9-.46s-1.34-.21-2-.38a9,9,0,0,1-3.74-1.89,10.37,10.37,0,0,1-2.43-3.39,27.25,27.25,0,0,1-1.78-7.94,77.37,77.37,0,0,1-.31-8c0-5.37.45-10.71.88-16a103.31,103.31,0,0,1,2.19-15.92c.61-2.61,1.33-5.19,2.1-7.75a33.11,33.11,0,0,1,3-7.5c2.76-4.68,6.75-8.42,10.91-11.77A123.48,123.48,0,0,1,206.69,178.62Z"/><path class="cls-10" d="M223.23,176.9a233.25,233.25,0,0,1,24.49,9.46c6.4,2.92,11.17,5.46,18.86,6.89a62.17,62.17,0,0,0,13.73.86c11.66-.29,23.15-.58,35.16-4.3,22.92-7.12,27-20.34,36.88-17.22,8.15,2.59,13.89,14.37,11.15,21.52-1.29,3.34-7.17,5.72-18.87,10.33-25.72,10.13-28.41,11.14-34.31,12.91-10.4,3.12-15.6,4.68-19.77,5.16-7.79.91-23.7.92-44.55-12.91"/><path class="cls-5" d="M223.23,176.9q8.64,2.74,17.07,6.12c2.81,1.14,5.59,2.32,8.35,3.57s5.49,2.53,8.29,3.62a52,52,0,0,0,17.59,3.61c3,.1,6,0,9.05-.11s6-.2,9.05-.39a102.31,102.31,0,0,0,17.87-2.54,69.64,69.64,0,0,0,16.82-6.36,71.3,71.3,0,0,0,7.64-4.79c2.46-1.73,4.8-3.63,7.35-5.33a18.91,18.91,0,0,1,4.12-2.13,9.37,9.37,0,0,1,4.7-.36,9.68,9.68,0,0,1,2.26.68,13.77,13.77,0,0,1,2.11,1,17.94,17.94,0,0,1,3.56,3,22.14,22.14,0,0,1,4.64,7.95,18.54,18.54,0,0,1,.9,4.55,14.06,14.06,0,0,1,0,2.34,12.16,12.16,0,0,1-.48,2.31,5.29,5.29,0,0,1-1.14,2.14,9.72,9.72,0,0,1-1.76,1.58,27.14,27.14,0,0,1-4,2.28c-2.75,1.31-5.56,2.43-8.37,3.55l-16.89,6.61c-5.65,2.18-11.26,4.42-17,6.4-2.88,1-5.79,1.79-8.68,2.66s-5.8,1.71-8.73,2.48a47.29,47.29,0,0,1-18.07,1.44,64,64,0,0,1-17.53-4.59A88.84,88.84,0,0,1,246,209.6,88.64,88.64,0,0,0,262,218a63.52,63.52,0,0,0,17.49,4.33,46.85,46.85,0,0,0,17.87-1.51c2.91-.78,5.8-1.65,8.7-2.52s5.8-1.71,8.64-2.69c5.69-2,11.3-4.27,16.93-6.47l16.86-6.68c2.8-1.13,5.6-2.27,8.3-3.57a26.63,26.63,0,0,0,3.86-2.21,6,6,0,0,0,2.55-3.28,10.64,10.64,0,0,0,.44-2.12,15.86,15.86,0,0,0,0-2.18,17.37,17.37,0,0,0-.88-4.32,21.16,21.16,0,0,0-4.46-7.57,16.81,16.81,0,0,0-3.35-2.84,14.22,14.22,0,0,0-2-1,9.06,9.06,0,0,0-2.06-.63,8.26,8.26,0,0,0-4.24.31,17.11,17.11,0,0,0-3.92,2c-2.49,1.64-4.86,3.54-7.35,5.28a73.34,73.34,0,0,1-7.74,4.8,70.78,70.78,0,0,1-17.05,6.36,104.21,104.21,0,0,1-18,2.47c-3,.18-6.05.28-9.07.36s-6.05.17-9.09,0a51.92,51.92,0,0,1-17.74-3.73c-2.82-1.13-5.54-2.46-8.28-3.74s-5.49-2.5-8.28-3.67C234.64,180.91,229,178.81,223.23,176.9Z"/></g><g id="Слой_2-2" data-name="Слой 2"><path class="cls-11" d="M559,402.61c-11.84-14.87-4.11-42.18,18.9-67.21l34.1-9.13q4.32-31.78,8.63-63.56A76.38,76.38,0,0,1,647.76,255a80.51,80.51,0,0,1,47.66,11v73.42a82.45,82.45,0,0,1,.41,26.66c-3.12,21-13.7,36.08-20.13,43.83a182.08,182.08,0,0,1-71.9,7.31C585.06,415.31,567.73,413.54,559,402.61Z"/><path class="cls-6" d="M574.19,212.18l-11,9.71A76.42,76.42,0,0,1,544,171.13h14.68A61.8,61.8,0,0,0,574.19,212.18Z"/><path class="cls-12" d="M620.36,247.85a76.51,76.51,0,0,1-57.16-26l11-9.71a62,62,0,0,0,46.16,21Z"/><path class="cls-13" d="M678.12,222a76.49,76.49,0,0,1-57.4,25.81h-.36V233.18h.37a61.87,61.87,0,0,0,46.39-20.85Z"/><path class="cls-14" d="M697.46,171.13A76.34,76.34,0,0,1,678.12,222l-11-9.71a61.73,61.73,0,0,0,15.67-41.2Z"/><path class="cls-6" d="M697.46,171.13H682.78a61.8,61.8,0,0,0-15.51-41l11-9.72A76.45,76.45,0,0,1,697.46,171.13Z"/><path class="cls-13" d="M678.26,120.36l-11,9.72a61.87,61.87,0,0,0-46.55-21h-.46l0-14.68h.48A76.55,76.55,0,0,1,678.26,120.36Z"/><path class="cls-12" d="M620.26,109.07a61.88,61.88,0,0,0-46.21,21.17l-11-9.71a76.56,76.56,0,0,1,57.2-26.14Z"/><path class="cls-14" d="M574.05,130.24a61.76,61.76,0,0,0-15.37,40.89H544a76.49,76.49,0,0,1,19-50.6Z"/><polyline class="cls-15" points="620.72 171.13 620.41 171.13 620.3 171.13"/><polyline class="cls-15" points="620.72 171.13 620.57 171.27 620.3 171.5"/><polyline class="cls-15" points="620.3 171.04 620.41 171.13 620.57 171.27"/><polyline class="cls-15" points="620.3 171.5 620.3 171.13 620.3 171.04"/><path class="cls-16" d="M721.75,381.57c1.27,1.64.34,2.87.72,8.35.22,3.08.56,3.63,0,4.34-1.58,2-6.61.69-8.51.21a25,25,0,0,1-4.26-1.56c-8.87-4.14-14.79-.46-19.23-4.94-2.38-2.37-3.55-6.17-2.4-7.54.83-1,2.71-.63,4.26-.31,12.49,2.53,18.22,6.16,21.38,3.83,1.81-1.36,1.48-3.7,3.52-4.23A4.73,4.73,0,0,1,721.75,381.57Z"/><path class="cls-17" d="M721.75,381.57a3.9,3.9,0,0,1,.71,2.73v2.89a46.11,46.11,0,0,0,.47,5.75,1.82,1.82,0,0,1-.34,1.48,2.84,2.84,0,0,1-1.26.84,8.21,8.21,0,0,1-3,.3,29.64,29.64,0,0,1-5.74-1.08c-1.89-.52-3.64-1.48-5.41-2a24.89,24.89,0,0,0-5.53-1.05c-1.9-.16-3.81-.12-5.79-.33a13.63,13.63,0,0,1-3-.66,8.85,8.85,0,0,1-2.68-1.66,10.75,10.75,0,0,1-3.13-5.25,4.24,4.24,0,0,1,.31-3.36,2.46,2.46,0,0,1,1.65-1,5.57,5.57,0,0,1,1.63,0,93.55,93.55,0,0,1,11.28,3c1.83.57,3.66,1.19,5.5,1.71a17.68,17.68,0,0,0,2.8.61,5.2,5.2,0,0,0,2.76-.28,4.08,4.08,0,0,0,1.93-2,4.57,4.57,0,0,1,1.7-2.29,3.44,3.44,0,0,1,2.81,0A5.28,5.28,0,0,1,721.75,381.57Zm0,0a5.11,5.11,0,0,0-2.31-1.66,3.42,3.42,0,0,0-2.8,0c-.87.46-1.18,1.48-1.6,2.31a4.26,4.26,0,0,1-1.95,2.13,5.56,5.56,0,0,1-3,.41,18.79,18.79,0,0,1-2.88-.47c-1.88-.45-3.73-1-5.59-1.48a102.39,102.39,0,0,0-11.2-2.4c-.89-.09-1.81,0-2.05.47a3.31,3.31,0,0,0,0,2.24,9.41,9.41,0,0,0,2.76,4.44,7.13,7.13,0,0,0,2.2,1.39,12.57,12.57,0,0,0,2.63.62c1.84.22,3.81.25,5.74.47a24.59,24.59,0,0,1,5.74,1.35c1.88.68,3.53,1.67,5.33,2.25a27.16,27.16,0,0,0,5.55,1.31,7.43,7.43,0,0,0,2.78-.14,1.79,1.79,0,0,0,1.48-2,53,53,0,0,1-.31-5.77v-2.89A3.86,3.86,0,0,0,721.75,381.57Z"/><path class="cls-16" d="M761,380c1.26,1.66.34,2.87.73,8.36.2,3.08.56,3.63,0,4.34-1.59,2-6.62.71-8.51.2a22.16,22.16,0,0,1-4.26-1.48c-8.88-4.14-14.8-.46-19.31-4.95-2.36-2.36-3.55-6.16-2.38-7.53.81-1,2.69-.63,4.25-.31,12.5,2.51,18.22,6.17,21.37,3.81,1.82-1.34,1.48-3.7,3.54-4.23A4.74,4.74,0,0,1,761,380Z"/><path class="cls-17" d="M761,380a3.94,3.94,0,0,1,.71,2.74c0,1-.07,1.94,0,3a50.43,50.43,0,0,0,.46,5.75,1.75,1.75,0,0,1-.34,1.48,2.8,2.8,0,0,1-1.24.85,8,8,0,0,1-3,.31,29.36,29.36,0,0,1-5.74-1.08c-1.91-.52-3.64-1.48-5.42-2a24.43,24.43,0,0,0-5.62-1.17c-1.88-.18-3.79-.13-5.78-.34a12.46,12.46,0,0,1-3-.67,8.7,8.7,0,0,1-2.66-1.64,10.75,10.75,0,0,1-3.16-5.25,4.27,4.27,0,0,1,.33-3.37,2.37,2.37,0,0,1,1.66-.95,6.2,6.2,0,0,1,1.61,0,93.39,93.39,0,0,1,11.27,3c1.85.58,3.67,1.2,5.52,1.71a15.69,15.69,0,0,0,2.78.61,5.16,5.16,0,0,0,2.78-.26,4.12,4.12,0,0,0,1.93-2,4.58,4.58,0,0,1,1.68-2.29,3.49,3.49,0,0,1,2.83,0A5.37,5.37,0,0,1,761,380Zm0,0a5.35,5.35,0,0,0-2.32-1.66,3.53,3.53,0,0,0-2.78,0c-.88.46-1.2,1.48-1.61,2.31a4.24,4.24,0,0,1-1.94,2.13,5.57,5.57,0,0,1-3,.42,17.37,17.37,0,0,1-2.87-.48c-1.9-.44-3.75-1-5.61-1.48a101.33,101.33,0,0,0-11.2-2.38c-.87-.1-1.79,0-2,.46a3.12,3.12,0,0,0,0,2.25,9.25,9.25,0,0,0,2.76,4.44,7.16,7.16,0,0,0,2.2,1.4,11.41,11.41,0,0,0,2.63.61c1.84.22,3.79.25,5.74.47a25.11,25.11,0,0,1,5.74,1.35c1.88.68,3.53,1.67,5.32,2.25a27.76,27.76,0,0,0,5.54,1.32,7.75,7.75,0,0,0,2.8-.15,1.77,1.77,0,0,0,1.48-2,52.84,52.84,0,0,1-.31-5.77c0-1,0-1.93.09-3A4,4,0,0,0,761,380Z"/><path class="cls-9" d="M681.48,234.28c-.21-1-2.84-.28-5.14-2-2.74-2.07-2.47-5.78-3.42-5.72s-1.64,2.39-1.25,4.43c.25,1.32.87,1.88.63,2.16-.46.51-2.84-1-6.85-3.09-5.47-2.79-6.12-2.53-6.39-2.32-1.17.89-.46,4.56,1.48,6.81a9.54,9.54,0,0,0,4.84,2.63c1.85.56,3.83.53,7.78.47A12.52,12.52,0,0,0,678,237C679.58,236.49,681.65,235.22,681.48,234.28Z"/><path class="cls-6" d="M681.48,234.28c-.09-.34-.46-.47-.77-.54a10.12,10.12,0,0,0-1-.17,9.27,9.27,0,0,1-2-.48,6.19,6.19,0,0,1-3.08-2.58,10.5,10.5,0,0,1-.87-1.86,8.89,8.89,0,0,0-.73-1.78c-.1-.07-.1-.1-.19,0a.67.67,0,0,0-.25.25,3,3,0,0,0-.4.83,6.12,6.12,0,0,0-.28,1.9,5.47,5.47,0,0,0,.32,1.83c.12.3.25.56.42.89a.38.38,0,0,0,.12.31.83.83,0,0,1,0,.62,1,1,0,0,1-1,.34,9.44,9.44,0,0,1-2-.75c-.62-.3-1.23-.6-1.82-.91-2.39-1.2-4.81-2.47-7.23-3.4-.28-.1-.57-.19-.86-.27h-.34a1.94,1.94,0,0,0-.27,1.31,8.18,8.18,0,0,0,1.14,3.49,6.89,6.89,0,0,0,2.62,2.6,16,16,0,0,0,3.67,1.35,24,24,0,0,0,4,.37h4a9.36,9.36,0,0,0,3.92-.73,10.25,10.25,0,0,0,1.77-1C680.84,235.45,681.51,235,681.48,234.28Zm0,0c0,.73-.63,1.19-1.13,1.59a10,10,0,0,1-1.74,1,9.77,9.77,0,0,1-3.94.89,52.81,52.81,0,0,1-8.15.1,16,16,0,0,1-4-1.18,7.63,7.63,0,0,1-3.24-2.82,9,9,0,0,1-1.48-4.07,4.82,4.82,0,0,1,0-1.2,2.14,2.14,0,0,1,.67-1.29,1,1,0,0,1,.46-.28,1.08,1.08,0,0,1,.47-.07,3,3,0,0,1,.67.07,6.51,6.51,0,0,1,1.06.33,57.27,57.27,0,0,1,7.31,3.65,23.28,23.28,0,0,0,3.43,1.79c.12,0,.12,0,0,.12s0,.1-.08,0a5,5,0,0,1-.37-1,6,6,0,0,1-.23-2.14,6.67,6.67,0,0,1,.45-2.07,4,4,0,0,1,.53-1,1.18,1.18,0,0,1,.52-.38.64.64,0,0,1,.71.24,8.92,8.92,0,0,1,.68,2,9.1,9.1,0,0,0,.74,1.87,5.79,5.79,0,0,0,3,2.62,9.33,9.33,0,0,0,2,.51,4.79,4.79,0,0,1,1,.18C681.05,233.83,681.4,233.94,681.48,234.28Z"/><path class="cls-9" d="M686,173.14c.51-1.61-.71-2.25-1.25-5.27-.61-3.4.6-4.44-.46-5.92-1.57-2-5.39-1.28-5.61-1.24a7.91,7.91,0,0,0-3.74,2c-1,.93-2,1.79-2,3,0,.56.21,1.16,3.11,3.86a40.86,40.86,0,0,1,4.05,3.73c1.25,1.48,1.34,2.28,2.18,2.47A3.77,3.77,0,0,0,686,173.14Z"/><path class="cls-6" d="M686,173.14a3.54,3.54,0,0,0-.49-2.65,13,13,0,0,1-.9-2.56,11,11,0,0,1-.26-2.8c0-.93.22-1.9-.2-2.54a2.94,2.94,0,0,0-2-1.23,8,8,0,0,0-2.58,0,7.35,7.35,0,0,0-4.44,2.29,4.74,4.74,0,0,0-1.48,1.81,1.55,1.55,0,0,0,0,.43,1.12,1.12,0,0,0,.12.35,6.84,6.84,0,0,0,.76,1,54,54,0,0,0,3.8,3.93,11.47,11.47,0,0,1,1.95,2c.59.72,1,1.64,1.48,2.27a2.17,2.17,0,0,0,2.5-.17A4.21,4.21,0,0,0,686,173.14Zm0,0a4.29,4.29,0,0,1-1.68,2.19,2.36,2.36,0,0,1-2.67.28c-.69-.7-1.12-1.48-1.76-2.16a12.44,12.44,0,0,0-2.07-1.76,46.34,46.34,0,0,1-4.27-3.64,7.79,7.79,0,0,1-1-1.17,2,2,0,0,1-.34-.93,2.42,2.42,0,0,1,.09-.93,5.66,5.66,0,0,1,1.94-2.56,10.68,10.68,0,0,1,2.39-1.72,7.65,7.65,0,0,1,3-.74,8.69,8.69,0,0,1,3,.31,3.87,3.87,0,0,1,2.4,1.86,2.6,2.6,0,0,1,.19,1.48L685,165a9.53,9.53,0,0,0,0,2.72,11.83,11.83,0,0,0,.71,2.67A3.58,3.58,0,0,1,686,173.14Z"/><polyline class="cls-9" points="723.36 163.46 717.29 168.09 720.86 170.74"/><path class="cls-6" d="M723.36,163.49a18.68,18.68,0,0,1-2.65,2.83,30.52,30.52,0,0,1-3,2.35v-1.11a18.88,18.88,0,0,1,3.17,3.21,18.7,18.7,0,0,1-4-2.1l-.76-.49.74-.62A28.19,28.19,0,0,1,720,165.3,17.92,17.92,0,0,1,723.36,163.49Z"/><path class="cls-9" d="M722.26,160.61c-1.8,5.49-3.07,9.39-3.89,11.83,3,.61,3.75,1.07,3.75,1.39,0,.58-2.31.48-3.27,1.87s-.31,3.12.46,4.79l6.08.78a5.64,5.64,0,0,0,.77,4.8c2,2.42,7.27,2.63,12.29-.93-.09-1.63-.24-4.29-.31-7.58-.25-12.77,1-15.67-1.39-18.58-3-3.61-9.53-4.65-12.46-2.32C723.3,157.57,722.94,158.55,722.26,160.61Z"/><path class="cls-6" d="M722.26,160.61c-1.28,4-2.55,8-3.78,11.95v-.15a18.51,18.51,0,0,1,3.18.8c.23.13.56.16.72.64a.55.55,0,0,1-.32.52l-.42.17a10.26,10.26,0,0,0-1.48.57,2.23,2.23,0,0,0-1.33,2.35,8,8,0,0,0,.92,3l-.31-.24,6.08.64h.58l-.11.59a5.93,5.93,0,0,0,.55,4,4.43,4.43,0,0,0,3.46,1.71,10.26,10.26,0,0,0,4.22-.56,15.58,15.58,0,0,0,3.89-2l-.31.64c-.12-3.73-.31-7.4-.21-11.2,0-1.86.11-3.73.21-5.59a54.09,54.09,0,0,0,.12-5.53,7.56,7.56,0,0,0-.58-2.61,6.63,6.63,0,0,0-1.66-2.1,10.59,10.59,0,0,0-4.88-2.41,8.88,8.88,0,0,0-5.44.35,4.07,4.07,0,0,0-2,1.84A18,18,0,0,0,722.26,160.61Zm0,0a20.1,20.1,0,0,1,1-2.62,4.11,4.11,0,0,1,2-1.87,9.17,9.17,0,0,1,5.5-.48,11.28,11.28,0,0,1,5.12,2.26,6.69,6.69,0,0,1,2.63,5c.18,1.89.14,3.76.14,5.62v5.57c0,3.71.32,7.39.47,11.11v.41l-.33.22a15.28,15.28,0,0,1-4.27,2.19,11.45,11.45,0,0,1-4.82.59,5.8,5.8,0,0,1-4.44-2.44,6.7,6.7,0,0,1-.53-4.89l.47.65-6.05-.92h-.24l-.09-.21a9,9,0,0,1-.86-3.25,3.25,3.25,0,0,1,.43-1.73,3,3,0,0,1,1.35-1.13,12.17,12.17,0,0,1,1.58-.52,1.2,1.2,0,0,0,.48-.2,2,2,0,0,0-.49-.36,17.37,17.37,0,0,0-3.06-.92h-.14v-.11Q720.31,166.57,722.26,160.61Z"/><path class="cls-13" d="M717.28,161.73c3.48.68,6.67-.83,8.52,0a14.5,14.5,0,0,1,2.8,1.76h0c1.59,1.38,1.48,2.09,3.22,3.82,1.39,1.35,2,1.48,2.18,2.26s-.48,1.2-.73,3a5.73,5.73,0,0,0,0,2.26c.24,1,.61,1,1,2.49a2.88,2.88,0,0,0,.52,1.12,2.6,2.6,0,0,0,.82.73c1.17.61,3.88-2,4.16-2.26,4.69-4.59,7-6.88,7.4-7.74,1.33-3.54.21-6.76-1.24-11-1.31-3.81-2.33-6.82-5.3-9.09-3.95-3-8.73-2.72-11.11-2.57-4.66.28-4.28,1.83-11.51,3.09-3.52.61-5.28.53-6.44,2.07a6.12,6.12,0,0,0-.1,6.19A8.41,8.41,0,0,0,717.28,161.73Z"/><path class="cls-18" d="M717.28,161.73a19,19,0,0,0,5.92-.24,4.86,4.86,0,0,1,3,.33,15.19,15.19,0,0,1,2.53,1.6h0a12,12,0,0,1,2,2.42,12.06,12.06,0,0,0,2.22,2.18,4.07,4.07,0,0,1,1.2,1.14,2.05,2.05,0,0,1-.09,1.68,7.93,7.93,0,0,0-.55,3,4.14,4.14,0,0,0,.28,1.48c.18.4.53.89.72,1.41a9.8,9.8,0,0,0,.55,1.39,3,3,0,0,0,.45.5,1.5,1.5,0,0,0,.48.3,2.12,2.12,0,0,0,1.19-.4,9.52,9.52,0,0,0,1.21-.87,28.16,28.16,0,0,0,2.22-2.15L745,171c.35-.37.71-.75,1-1.14l.43-.56a1.49,1.49,0,0,0,.25-.56,8,8,0,0,0,.43-2.87,20.1,20.1,0,0,0-1.33-5.92c-.68-2-1.27-4-2.1-5.83a11,11,0,0,0-3.61-4.64,13,13,0,0,0-5.5-2.27,24.19,24.19,0,0,0-6.13-.13c-2,.13-3.86,1.24-5.91,1.82a41.15,41.15,0,0,1-6.22,1.2,16.71,16.71,0,0,0-3.05.56,3.4,3.4,0,0,0-2.1,2.09,6.56,6.56,0,0,0,.92,5.91A8.57,8.57,0,0,0,717.28,161.73Zm0,0a8.65,8.65,0,0,1-5.34-3.08,6.81,6.81,0,0,1-1-6.05,3.7,3.7,0,0,1,2.18-2.25,16.25,16.25,0,0,1,3.09-.69,39.92,39.92,0,0,0,6.08-1.48c2-.61,3.79-1.82,6-2.09a25.08,25.08,0,0,1,6.42-.1,13.13,13.13,0,0,1,6.08,2.32,12.63,12.63,0,0,1,4.13,5.11c.9,2,1.47,4,2.23,5.91a21.57,21.57,0,0,1,1.3,6.35,9.64,9.64,0,0,1-.55,3.32,3.15,3.15,0,0,1-.41.87c-.18.23-.36.46-.53.66-.36.42-.73.8-1.1,1.19-1.48,1.48-3,3-4.54,4.44a23.78,23.78,0,0,1-2.4,2.13,12.39,12.39,0,0,1-1.36.91,2.78,2.78,0,0,1-1.8.42,2,2,0,0,1-.85-.51,3.13,3.13,0,0,1-.56-.69,9.56,9.56,0,0,1-.56-1.55c-.15-.48-.43-.85-.67-1.41a4.44,4.44,0,0,1-.26-1.66,8.79,8.79,0,0,1,.69-3.16,1.46,1.46,0,0,0,.15-1.33c-.16-.4-.64-.7-1-1.05a13.18,13.18,0,0,1-2.18-2.3,11.19,11.19,0,0,0-2-2.44h0A15.11,15.11,0,0,0,726,162a4.85,4.85,0,0,0-2.86-.35A19.14,19.14,0,0,1,717.28,161.73Z"/><path class="cls-19" d="M680.17,176.7c-.51,3.51,3.57,6,19.46,17.42,10,7.19,12.37,9,15,8,5.43-2,5.59-13.31,5.61-14.7a74,74,0,0,1-33.71-16.72C681.52,173,680.44,175.33,680.17,176.7Z"/><path class="cls-17" d="M680.17,176.7a4,4,0,0,0,.24,1.87,6.57,6.57,0,0,0,1,1.58,20.58,20.58,0,0,0,2.77,2.59c2,1.58,4,3.06,6.09,4.53l12.55,8.61a75.32,75.32,0,0,0,6.3,4.17,14.62,14.62,0,0,0,3.26,1.57,3,3,0,0,0,1.56,0,4.39,4.39,0,0,0,1.48-.7,6.71,6.71,0,0,0,2.09-2.71,16,16,0,0,0,1.17-3.44,35.47,35.47,0,0,0,.89-7.4l.54.67a72.09,72.09,0,0,1-9.21-2.62,75.08,75.08,0,0,1-8.75-3.88,79.14,79.14,0,0,1-15.65-10.83h.09a18.76,18.76,0,0,0-3.94,2.25A6.1,6.1,0,0,0,680.17,176.7Zm0,0a6.12,6.12,0,0,1,2.44-3.71,18.72,18.72,0,0,1,3.93-2.32h0a69.37,69.37,0,0,0,15.88,10.23,73.6,73.6,0,0,0,8.79,3.47,81.57,81.57,0,0,0,9.12,2.41l.54.1v.56a32.77,32.77,0,0,1-.84,7.71,16.42,16.42,0,0,1-1.33,3.73,8.07,8.07,0,0,1-2.58,3.18,4.75,4.75,0,0,1-.93.53,3.64,3.64,0,0,1-1,.36,4.51,4.51,0,0,1-2.19-.1,13.71,13.71,0,0,1-3.53-1.81c-2.15-1.48-4.16-3-6.2-4.44l-12.18-9.11c-2-1.48-4.08-3-6-4.65a19.06,19.06,0,0,1-2.74-2.65,6.21,6.21,0,0,1-1-1.61A3.86,3.86,0,0,1,680.17,176.7Z"/><path class="cls-20" d="M713.94,378.24c-2.56-49.49-1.56-55.11-1.56-55.11-1.67-15-2.48-34.79-1.48-64.72l42,.63c2.4,4.83,2,7.79,1.25,9.6-1.1,2.5-3.15,3.18-12.46,8.36-6.84,3.78-8.49,4.95-9.65,7.11a12.92,12.92,0,0,0-.93,8.67q-2.21,15.35-4.36,30.66a23.7,23.7,0,0,1,2.48,8.05,27.19,27.19,0,0,1-.93,9.91c-.89,5.75-.93,16.92-5.28,42.1-2.5.24-6.14.18-7.95-2.08A5.5,5.5,0,0,1,713.94,378.24Z"/><path class="cls-17" d="M713.94,378.24q-.81-15-1.48-29.95-.3-7.5-.45-15V323l-.1-.93-.4-3.73c-1-9.95-1.48-20-1.64-30s-.11-20,.17-30v-.64h.63l42,.54h.46l.19.4a17.58,17.58,0,0,1,1.82,5.71,7.93,7.93,0,0,1-1.48,6,19.46,19.46,0,0,1-4.94,3.39l-5,2.78-5,2.81a29.4,29.4,0,0,0-4.69,3.12,8.37,8.37,0,0,0-2.51,4.66,13.86,13.86,0,0,0,0,5.52v.18L727,323.48v-.19a23,23,0,0,1,2.17,15c-.2,1.26-.63,2.49-.79,3.71s-.32,2.52-.43,3.78l-.74,7.59c-1,10.1-2.46,20.16-4.21,30.16h0a12.62,12.62,0,0,1-5.91-.6,5.22,5.22,0,0,1-2.3-1.85A5.7,5.7,0,0,1,713.94,378.24Zm0,0a5.42,5.42,0,0,0,.85,2.82,5.11,5.11,0,0,0,2.37,1.84,12.79,12.79,0,0,0,5.92.57h0c1.7-10,3.12-20.06,4-30.18l.62-7.59c.12-1.27.22-2.53.4-3.8s.55-2.48.74-3.74a22.66,22.66,0,0,0-2.33-14.59v-.19l4.15-30.69v.18a15.12,15.12,0,0,1-.15-5.92,9.58,9.58,0,0,1,2.84-5.35,31.08,31.08,0,0,1,4.88-3.32l5.05-2.84,5.06-2.79a18.63,18.63,0,0,0,4.55-3.11,6.51,6.51,0,0,0,1.17-4.93,16.34,16.34,0,0,0-1.71-5.22l.63.4-42-.71.65-.62c-.32,10-.59,20-.55,30s.36,20,1.22,29.93l.35,3.73.09.93v1l-.09,1.86q-.13,3.75,0,7.49c0,5,.18,10,.33,15C713,358.26,713.46,368.25,713.94,378.24Z"/><path class="cls-20" d="M732.56,278.22l8.67,46.25L753.48,381h8.06V359.55c0-5.78-.31-10.56-.62-14a53.36,53.36,0,0,0-1.48-9.5,40.09,40.09,0,0,0-3.81-9.5l-1.87-60.66"/><path class="cls-17" d="M732.56,278.22,737.72,304l2.52,12.86c.83,4.29,1.66,8.58,2.66,12.84,3.86,17.06,7.52,34.15,11.28,51.22l-.7-.56h8.06l-.74.72V367.17c0-4.62.09-9.23-.08-13.83a126.13,126.13,0,0,0-1.19-13.72A38.55,38.55,0,0,0,755,326.84l-.08-.13v-.15l-.72-30.35-.55-30.35L755,296.18l1.14,30.35-.08-.28a38.24,38.24,0,0,1,4.79,13.16,129.22,129.22,0,0,1,1.28,13.88c.19,4.65.12,9.26.14,13.89v14.59h-9.4l-.12-.56c-3.64-17.12-7.4-34.19-10.94-51.32-.93-4.26-1.7-8.57-2.47-12.87l-2.22-13Z"/><path class="cls-19" d="M715.68,187.92c2-1.73,5.39-2,12.15-2.33,6.12-.32,9.29-.47,13.53.63a31.5,31.5,0,0,1,7.64,3.1,85.87,85.87,0,0,1,3.58,18c1.55,17.75-3.29,27.89.62,46.77.52,2.48,1,4.43,1.39,5.72a73.53,73.53,0,0,1-45.45.62q2.65-14.49,5.3-28.95l-8.12,6L675.25,239l5.6-6.51,18.84-4.44c10.09-13.71,12.53-23.57,12.77-30.2C712.46,195.6,712.4,190.77,715.68,187.92Z"/><path class="cls-17" d="M715.68,187.92a8,8,0,0,1,3.94-1.61,36,36,0,0,1,4.27-.49c2.86-.2,5.73-.37,8.6-.48a29.62,29.62,0,0,1,8.55.73,30.68,30.68,0,0,1,8,3.16h0a88.41,88.41,0,0,1,3.63,17.46,101.29,101.29,0,0,1,0,17.76,136.53,136.53,0,0,0-.59,17.75,68,68,0,0,0,1,8.77c.49,3,1.28,5.74,2,8.61l.14.55-.52.18a74,74,0,0,1-45.86.75l-.61-.2.12-.63,5.37-28.93,1,.63-8.12,5.92-.15.1h-.18l-31.16,1.32h-.82l.54-.62,5.65-6.47v-.07h.09l18.88-4.35h-.09A73.27,73.27,0,0,0,710,208.63a38.15,38.15,0,0,0,2.19-10.73,24,24,0,0,1,.6-5.46A9.3,9.3,0,0,1,715.68,187.92Zm0,0a9.22,9.22,0,0,0-2.69,4.7,24.51,24.51,0,0,0-.56,5.46,38.42,38.42,0,0,1-2.13,10.77,75.71,75.71,0,0,1-10.54,19.24h0L681,232.72l.15-.09-5.55,6.54-.3-.6,31.07-1.77-.32.12,8.06-6.08,1.3-1-.3,1.61-5.31,29-.49-.81A74.85,74.85,0,0,0,732,263a73.2,73.2,0,0,0,22.49-3.81l-.38.74c-.67-3-1.48-5.8-1.9-8.76a73.17,73.17,0,0,1-.87-8.87,140.55,140.55,0,0,1,.86-17.76,101.19,101.19,0,0,0,.21-17.75,82.92,82.92,0,0,0-3.42-17.38h0a31.12,31.12,0,0,0-7.93-3.18,30.17,30.17,0,0,0-8.52-.79c-2.87.09-5.74.25-8.6.43a40.67,40.67,0,0,0-4.27.46A8,8,0,0,0,715.68,187.92Z"/><path class="cls-21" d="M721.6,163.73a6.07,6.07,0,0,1,3,1.48,4.35,4.35,0,0,1,.5.55"/><path class="cls-17" d="M721.6,163.73a2.28,2.28,0,0,1,2.26.12,2.24,2.24,0,0,1,1.14,2,4.54,4.54,0,0,1-1.08-.29,9,9,0,0,1-.83-.4A5.2,5.2,0,0,1,721.6,163.73Z"/><path class="cls-21" d="M721.91,165.55l-.89,1.34"/><path class="cls-17" d="M721.91,165.55c.34.55.3.84.18,1.08s-.43.37-1.07.26c-.34-.54-.31-.84-.18-1.08S721.27,165.46,721.91,165.55Z"/><polygon class="cls-22" points="448.29 180.99 458.9 152.85 502.88 167.47 492.28 195.62 448.29 180.99"/><path class="cls-9" d="M472.67,199.18c.84-.33.89-1,2-2.48a22.44,22.44,0,0,1,3.66-3.56c1.24-1.26,2.49-3.63,2-8.48a6.35,6.35,0,0,0-2.42-2.08,11.27,11.27,0,0,0-5.25-.59,7,7,0,0,0-3,.35,4.81,4.81,0,0,0-2.26,2.45c.49.51-.16,2,.3,3.19a5.06,5.06,0,0,1,.21,3.45,11.19,11.19,0,0,0-.59,4.69A4.6,4.6,0,0,0,472.67,199.18Z"/><path class="cls-23" d="M472.67,199.18c.74-.28,1-1.05,1.38-1.64a16,16,0,0,1,1.28-1.78c.89-1.17,2.23-2,3.08-3.09a7.41,7.41,0,0,0,1.41-3.84,16.88,16.88,0,0,0-.14-4.14l.12.31a6,6,0,0,0-2.61-1.89,11.45,11.45,0,0,0-3.5-.3,18.7,18.7,0,0,0-3.51.2,4.06,4.06,0,0,0-2.08,2.06l-.12-.73a2,2,0,0,1,.31,1.65,7.6,7.6,0,0,0-.1,1.07,2.21,2.21,0,0,0,.1.92,4.55,4.55,0,0,1,.28,1.2,15.41,15.41,0,0,1-.87,4.54,3.85,3.85,0,0,0,.61,4.11,5.32,5.32,0,0,0,1.93,1.25A3.68,3.68,0,0,0,472.67,199.18Zm0,0a4.86,4.86,0,0,1-4.36-1.31,3.2,3.2,0,0,1-1.07-2,6.77,6.77,0,0,1,0-2.29,12.77,12.77,0,0,0,.35-4.31,4,4,0,0,0-.33-.95,3.71,3.71,0,0,1-.32-1.27v-1.76l-.14-.72a5.2,5.2,0,0,1,2.91-3,8.9,8.9,0,0,1,2.12-.31h1.93a11.13,11.13,0,0,1,4,.51,6.74,6.74,0,0,1,3.13,2.58l.11.16v.15a17.69,17.69,0,0,1-.3,4.36,8.22,8.22,0,0,1-1.93,4,12.56,12.56,0,0,1-1.75,1.41,15.13,15.13,0,0,0-1.63,1.47,13,13,0,0,0-1.33,1.73C473.65,198.15,473.39,198.92,472.67,199.18Z"/><polygon class="cls-21" points="416.06 284.75 413.8 416.49 437.15 416.49 437.15 259.56 395.25 261.25 382.56 416.49 406.11 416.49 416.06 284.75"/><path class="cls-24" d="M427.13,193.64a13.63,13.63,0,0,1,5.36.26,12.85,12.85,0,0,1,3.68,1.65c6.41,4,15.29,12.81,21.77,19l.17.17,1.42,5.47-1.31-5.64,7.85-20.2,10.86,2.3c-3.86,13.77-6.63,23.74-7.34,27.44a11.07,11.07,0,0,1-2.31,4.94,7.39,7.39,0,0,1-3.26,2.42,8.06,8.06,0,0,1-4.08.13,25.8,25.8,0,0,1-7.6-2.17A39,39,0,0,1,440,219.3q.25,22.45.54,44.93L392.12,263c2.61-5.8,5-13.9,1.65-21.38-2-4.66-4.89-6-6.68-9.2-3-5.48-2.49-15.48,13.59-35.35a45.76,45.76,0,0,1,26.45-3.29Z"/><path class="cls-25" d="M401.12,166.46c-1-.81-1.08-2.62-1.17-6.22s-.16-5.38.72-7a10.92,10.92,0,0,1,5.71-4.43,22.13,22.13,0,0,1,9.23-1.53c4.25-.08,4.36.56,9.16.68,6.34.16,7.62-.93,9.51.34,3,2,3.78,7.29,1.75,9.1a5,5,0,0,1-2.72.94,9.43,9.43,0,0,1-4.43-.68c-1.87-.57-3.24.25-9.88,3.57a67.26,67.26,0,0,1-9.59,4.43C405.78,166.86,402.8,167.78,401.12,166.46Z"/><path class="cls-3" d="M415.33,183.37a12.53,12.53,0,0,0,3.87,2.82,8.24,8.24,0,0,0,4.48.95,2.68,2.68,0,0,0,.89-.18,10.51,10.51,0,0,0,4.61-3,30.26,30.26,0,0,0,2.17-2.24L431,161.34a7.12,7.12,0,0,0-2.1-4.27,7.64,7.64,0,0,0-2.05-1.34,5.1,5.1,0,0,1-2.1,1.91c-3.51,1.65-9.74-.75-12.11-.82a7.47,7.47,0,0,0-1.56.13,5.79,5.79,0,0,0-1.08.31,13.78,13.78,0,0,1-5.26,9.78,3.51,3.51,0,0,0-2.92-.14,3,3,0,0,0-1.75,2.11,4.25,4.25,0,0,0,1.75,3.77,6.85,6.85,0,0,0,3.68,1.64l.33,13.16c1.3.4,6,2.16,7.23,2.55h0c0,.79-.42,2.55-.36,3.29,1.36,0,5.85-.39,7.19-.32,0-1-.26-1.34-.26-2.29,1.58-.2,3.5-1,5-1.17l-.28-2.86"/><polygon class="cls-26" points="401.86 194.69 418.51 208.07 430.27 193.54 416.06 193.54 401.86 194.69"/><path class="cls-27" d="M404.85,187.14l-.68,7.78,7.74,5.61q.61-5.61,1.19-11.24Z"/><path class="cls-28" d="M428.16,194.21l-2.52-5.16-6.32,1.4c.54,2.76,1.12,5.52,1.75,8.3.12.53.23,1.06.35,1.65Z"/><polyline class="cls-21" points="417.17 415.12 416.36 427.71 457.31 427.71 457.31 423.28 431.04 420.91 428.5 419.88 427.95 413.33 417.62 415.04"/><rect class="cls-22" x="424.7" y="228.81" width="14.92" height="17.29"/><path class="cls-29" d="M425.19,231.39a7.48,7.48,0,0,0-5.26,2.42,5.51,5.51,0,0,0,.15,8.14,6.37,6.37,0,0,0,5.11,1.57"/><polyline class="cls-21" points="388.46 415.12 387.63 427.71 428.58 427.71 428.58 423.28 402.31 420.91 399.77 419.88 399.23 413.33 388.9 415.04"/><path class="cls-9" d="M404.71,237.61c.4-.75,1.12-.75,2.79-1.64a22.32,22.32,0,0,0,4.08-3.15c1.43-1.06,4.06-2,9.18-1.2a6.45,6.45,0,0,1,2,2.42,9.85,9.85,0,0,1,.21,4.94,5.89,5.89,0,0,1-.62,2.75,4.94,4.94,0,0,1-2.78,1.9,8.93,8.93,0,0,0-7-2.41c-2.87.31-3.36,1.92-4.95,1.64A4.28,4.28,0,0,1,404.71,237.61Z"/><path class="cls-30" d="M404.71,237.61c.35-.67,1.19-.85,1.75-1.2a12.39,12.39,0,0,0,2-1.1,13.94,13.94,0,0,0,1.75-1.4,13.85,13.85,0,0,1,1.64-1.51,9.65,9.65,0,0,1,4.4-1.48,22,22,0,0,1,4.66.08H421l.18.11a6.71,6.71,0,0,1,2.48,3.13,9.46,9.46,0,0,1,.21,3.82,12.3,12.3,0,0,1-.17,1.79,7.82,7.82,0,0,1-.49,2,5.26,5.26,0,0,1-3.51,2.47l-.47.13-.3-.32a8.15,8.15,0,0,0-3.87-2.28,7.45,7.45,0,0,0-4.62.16,9.58,9.58,0,0,1-2.31,1,2.89,2.89,0,0,1-2.28-1,5.42,5.42,0,0,1-1.23-2A3,3,0,0,1,404.71,237.61Zm0,0a3.12,3.12,0,0,0,0,2.29,4.82,4.82,0,0,0,1.3,2,2.62,2.62,0,0,0,2.12.8,10,10,0,0,0,2.12-1.13,8.24,8.24,0,0,1,5.11-.66,9.38,9.38,0,0,1,4.71,2.25l-.77-.18a4,4,0,0,0,2.35-1.77,15.33,15.33,0,0,0,.51-3.29,9.57,9.57,0,0,0,0-3.29,5.57,5.57,0,0,0-1.76-2.6l.32.14a19.46,19.46,0,0,0-4.38-.47,8.61,8.61,0,0,0-4.18,1c-1.23.73-2.23,1.91-3.51,2.65a20.88,20.88,0,0,1-2,1.06C405.9,236.77,405.08,237,404.71,237.61Z"/><path class="cls-16" d="M418.85,167.38v3.88"/><path class="cls-31" d="M418.85,167.38a2.56,2.56,0,0,1,.82,2,2.59,2.59,0,0,1-.91,1.92,2.46,2.46,0,0,1-.82-1.95A2.62,2.62,0,0,1,418.85,167.38Z"/><path class="cls-32" d="M404.45,194.1q-3,.42-6,1.13a20.39,20.39,0,0,0-4.08,1.29,13.76,13.76,0,0,0-4.75,4.34c-2.43,3.49-9.12,18.87-17,40.21a12.56,12.56,0,0,0,.4,5.1c.11.31,2,6.48,7.2,8,3.17,1,6.13-.21,8.76-1.27,6.24-2.58,13.5-5.7,21.61-9.45-1.85.09-5.13-4.94-4.9-7.65l-12.49,1.26a148.68,148.68,0,0,1,5.15-19.26q1-2.88,2.05-5.63"/><path class="cls-16" d="M427.71,167.41l-.28,3.84"/><path class="cls-33" d="M427.71,167.41a2.55,2.55,0,0,1-.17,3.75l-.11.09a2.53,2.53,0,0,1,.17-3.74A.52.52,0,0,1,427.71,167.41Z"/><path class="cls-16" d="M425.55,164.24a9,9,0,0,1,2.58.35,7.43,7.43,0,0,1,1.45.54"/><path class="cls-34" d="M425.55,164.24a2.5,2.5,0,0,1,3.3,0,2.11,2.11,0,0,1,.73,1,3.67,3.67,0,0,1-2.15.13A4,4,0,0,1,425.55,164.24Z"/><path class="cls-16" d="M421.44,164a9.78,9.78,0,0,0-3.08.64,9.15,9.15,0,0,0-2.19,1.15"/><path class="cls-35" d="M421.44,164a9.25,9.25,0,0,1-5.26,1.79,3.42,3.42,0,0,1,2.19-2A3.67,3.67,0,0,1,421.44,164Z"/><path class="cls-9" d="M424.42,170.89l2.59,4.75a5.66,5.66,0,0,1-1.86,1.37,6.2,6.2,0,0,1-2.63.51"/><path class="cls-6" d="M424.42,170.89a10.76,10.76,0,0,1,1.92,2.07,17.92,17.92,0,0,1,1.44,2.32l.24.48-.35.41a4.78,4.78,0,0,1-5.15,1.35,8.38,8.38,0,0,0,3.82-2.39l-.1.89a16.59,16.59,0,0,1-1.16-2.45A10.51,10.51,0,0,1,424.42,170.89Z"/><path class="cls-7" d="M426.83,179.29h0a5.12,5.12,0,0,1-2.57.92c-2.54.15-4.33-1.87-4.56-1.64s.95,2,2.74,2.8a3.52,3.52,0,0,0,2.85.37,3.91,3.91,0,0,0,2.14-2.73"/><ellipse class="cls-36" cx="630.79" cy="349.26" rx="49.78" ry="9.65"/><g id="Слой_5" data-name="Слой 5"><path class="cls-37" d="M526.38,396.41c-1.46.22-1.56,2-3.91,3.29a9.43,9.43,0,0,1-4.08.92,38.92,38.92,0,0,0-14.75,5.51,20.4,20.4,0,0,1-3.2,1.78c-4.32,1.41-7.16-1.1-10.19.86A4.3,4.3,0,0,0,488.3,411a3,3,0,0,0-.1,1.85c.55,1.74,3.44,2.21,7.35,2.78a29.92,29.92,0,0,0,6.61.55c3.91-.22,4.34-1.22,9-1.72a27.47,27.47,0,0,1,6.08-.2c4,.29,6,1.49,7.35.29.49-.45.37-.8,1-2.75a35.5,35.5,0,0,1,2.29-5.61c1.84-3.43,3.18-3.37,3.18-5C531.21,398.78,528.45,396.14,526.38,396.41Z"/><path class="cls-38" d="M528,396.94a2,2,0,0,0-2.41.35,13.11,13.11,0,0,1-2,2.19,6.66,6.66,0,0,1-2.7,1.37c-.94.23-2,.27-2.9.43a28.5,28.5,0,0,0-5.43,1.47,70.32,70.32,0,0,0-10.15,5.1,9.09,9.09,0,0,1-6,1.27,10.81,10.81,0,0,0-5.36,0,4.15,4.15,0,0,0-1.95,1.58,2.58,2.58,0,0,0-.32,2.19,3.11,3.11,0,0,0,2,1.29,19.84,19.84,0,0,0,2.74.65,30.07,30.07,0,0,0,11.26.62,43.76,43.76,0,0,1,5.67-1.25,33.75,33.75,0,0,1,5.86-.27,41.09,41.09,0,0,1,5.73.88,2.87,2.87,0,0,0,2.56-.37,2.59,2.59,0,0,0,.53-1.21c.12-.47.26-.94.39-1.41h0a34.26,34.26,0,0,1,2.35-5.59,16.51,16.51,0,0,1,1.68-2.55c.62-.76,1.5-1.42,1.5-2.46A5.24,5.24,0,0,0,528,396.94Zm1.72,6.78a15,15,0,0,0-1.67,2.51,30.92,30.92,0,0,0-2.2,5.59h0a12.15,12.15,0,0,0-.36,1.41,2.71,2.71,0,0,1-.56,1.38,3.3,3.3,0,0,1-2.92.59,39.92,39.92,0,0,0-5.67-.7,36.22,36.22,0,0,0-5.69.41,43,43,0,0,0-5.57,1.33,20.23,20.23,0,0,1-5.86.35c-2-.2-3.8-.49-5.75-.78a23.21,23.21,0,0,1-2.89-.63,4.18,4.18,0,0,1-2.68-1.84,4.45,4.45,0,0,1,2.69-5.47,6.27,6.27,0,0,1,3.13-.57c1,.06,2,.26,2.88.26a10.53,10.53,0,0,0,2.69-.14,9,9,0,0,0,1.26-.35,5.1,5.1,0,0,0,1.13-.65,56.8,56.8,0,0,1,10.5-5.08,25.12,25.12,0,0,1,5.75-1.25c1-.12,2-.08,2.83-.24a6,6,0,0,0,2.48-1,14,14,0,0,0,2-2,2.43,2.43,0,0,1,2.89-.31,5.53,5.53,0,0,1,3.15,4.67C531.25,402.34,530.27,403,529.71,403.72Z"/><path class="cls-39" d="M585.06,319.18c-9.14,2.19-35,7-41.32,7a12.61,12.61,0,0,0-7.82,9.66l-15.13,62.94a8.16,8.16,0,0,0,9.78,4.57c8.81-17.89,15.27-31.32,18.28-37.44a41.42,41.42,0,0,0,3.91-11.61,38.72,38.72,0,0,0,.52-5.26l14.24,3.5,30.42-.16a18.8,18.8,0,0,0,7.19-3.34c.88-.63,5-3.81,5.87-7.22C613,334.26,599.5,315.72,585.06,319.18Z"/><path class="cls-40" d="M598.8,236.17a12.24,12.24,0,0,1,3.09-8.17c2.82-3.78,4.21-5.67,5.87-6.51a14.2,14.2,0,0,1,10.36-.26,16.38,16.38,0,0,1,2.89,1.14c-.45-4.27,1.2-8,3.91-9.15a7.09,7.09,0,0,1,4.93,0,12.62,12.62,0,0,1,6.22,4.08,30.41,30.41,0,0,1,3.61,6.41,32.15,32.15,0,0,1,2.1,13.69,22.75,22.75,0,0,1-4.36,12.45c-1.94,3.27-4.6,5-4.85,8.88,0,1.7.25,3.85,0,3.91s-.67-.94-.88-1.58a11.07,11.07,0,0,1,.35-6.85,83.94,83.94,0,0,0,2-8.44c.66-3.93.19-7.22-.71-13.81a6.71,6.71,0,0,0-2.66-5.14,5.24,5.24,0,0,0-3.14-1.19,7.61,7.61,0,0,0-2,.35l1,2.29a57.59,57.59,0,0,1,3.07,8.35,24.37,24.37,0,0,1,.27,8.17c-.37,3.17-.57,4.91-2,6.51a30,30,0,0,1-4.5,3c-1.49.92-2.33,1.39-2.82,1.06s-.25-1.37-.25-1.76c.37-2.23,1.43-2,1.95-4.19.1-.46.49-1.6-.31-2.13a2.17,2.17,0,0,0-2-.78,6.79,6.79,0,0,0-4.32,2.45"/><path class="cls-41" d="M618,246.9a5.2,5.2,0,0,1,1.53-.51,2.44,2.44,0,0,1,1.62.14,3.24,3.24,0,0,1,.66.51,1.37,1.37,0,0,1,.57.6,2.8,2.8,0,0,1,0,1.67,5.29,5.29,0,0,1-.57,1.54c-.27.49-.64.88-.87,1.33a4.34,4.34,0,0,0-.43,1.45,2.09,2.09,0,0,0,.11,1.37c.16.27.67.07,1.14-.16s.92-.53,1.36-.8l2.68-1.72c.45-.3.88-.59,1.29-.9a3.68,3.68,0,0,0,1-1.1,15.21,15.21,0,0,0,1.33-6,24.37,24.37,0,0,0,0-6.27,26.74,26.74,0,0,0-1.95-6L625,226.18l-.25-.59.6-.19a6.91,6.91,0,0,1,2-.4,4.48,4.48,0,0,1,2,.32,9.79,9.79,0,0,1,1.67.94,5.33,5.33,0,0,1,1.46,1.38,8.46,8.46,0,0,1,1.39,3.58l.51,3.58a55,55,0,0,1,.64,7.25,34,34,0,0,1-1,7.24c-.26,1.19-.55,2.32-.84,3.52s-.71,2.34-.92,3.44a9,9,0,0,0-.14,3.32,7.81,7.81,0,0,0,.41,1.58,4,4,0,0,1,.33.71c0,.12.14.21,0,.12h-.13a.73.73,0,0,0-.36,0,.51.51,0,0,0-.29.19h0c.1-1,0-2.29,0-3.54a8.63,8.63,0,0,1,1.06-3.71c1.27-2.23,3-3.81,4.14-5.87a25.11,25.11,0,0,0,3.13-6.23,25.65,25.65,0,0,0,1-6.91,31.15,31.15,0,0,0-2.78-13.68,29.88,29.88,0,0,0-1.72-3.07,12.87,12.87,0,0,0-2.09-2.72,13.75,13.75,0,0,0-6-2.95,5.87,5.87,0,0,0-3.27.12,5.34,5.34,0,0,0-2.46,2.07,10.38,10.38,0,0,0-1.33,6.63v.76l-.69-.35a19.59,19.59,0,0,0-7.39-2,12.1,12.1,0,0,0-3.79.33,7.09,7.09,0,0,0-3.32,1.76,56.06,56.06,0,0,0-4.89,6.1,12.12,12.12,0,0,0-2.58,7.26,12.32,12.32,0,0,1,2.38-7.39,58.53,58.53,0,0,1,4.77-6.3,7.87,7.87,0,0,1,3.48-2,12.3,12.3,0,0,1,3.91-.47,20,20,0,0,1,7.82,2l-.6.41a11.26,11.26,0,0,1,1.37-7.21,6.17,6.17,0,0,1,2.91-2.5,6.86,6.86,0,0,1,3.91-.24,14.9,14.9,0,0,1,6.63,3.31,22.6,22.6,0,0,1,4.12,6.1,32.7,32.7,0,0,1,3,14.25A23,23,0,0,1,638.45,250c-1.17,2.17-3,3.91-4.06,5.87a7.25,7.25,0,0,0-.86,3.12c-.12,1.16,0,2.21,0,3.66a1.39,1.39,0,0,1-.14.45.66.66,0,0,1-.14.2,1.14,1.14,0,0,1-.39.25.86.86,0,0,1-.45,0l-.25-.12a2,2,0,0,1-.49-.6,6.81,6.81,0,0,1-.41-.92,8.84,8.84,0,0,1-.51-2,11.19,11.19,0,0,1,.18-3.91c.27-1.25.64-2.36,1-3.5s.59-2.29.84-3.46a32.11,32.11,0,0,0,1-7,59.64,59.64,0,0,0-.58-7.06c-.38-2.34-.38-4.86-1.65-6.59a4.12,4.12,0,0,0-1.13-1.07,7.5,7.5,0,0,0-1.45-.84,4.33,4.33,0,0,0-3.09,0l.36-.8,2.4,5.86a26.17,26.17,0,0,1,1.84,6.24,25.33,25.33,0,0,1,0,6.51,15.44,15.44,0,0,1-1.57,6.33A4.14,4.14,0,0,1,627.7,252c-.45.31-.9.6-1.37.87l-2.74,1.67c-.46.27-.93.54-1.42.78a3.48,3.48,0,0,1-.82.29.92.92,0,0,1-1-.31,2.49,2.49,0,0,1-.16-1.74,4.16,4.16,0,0,1,.53-1.58c.29-.49.66-.88.94-1.31a5.47,5.47,0,0,0,.57-1.45,2.45,2.45,0,0,0,.11-1.49,1.34,1.34,0,0,0-.49-.54,2.19,2.19,0,0,0-.6-.49,2.13,2.13,0,0,0-1.49-.16,5,5,0,0,0-1.52.45,9.8,9.8,0,0,0-2.56,2A9.62,9.62,0,0,1,618,246.9Z"/><path class="cls-38" d="M545.62,398.38a2,2,0,0,0-2.4.36,13.13,13.13,0,0,1-2,2.19,6.66,6.66,0,0,1-2.69,1.36c-.94.24-2,.28-2.9.43a30.06,30.06,0,0,0-5.43,1.47,72.42,72.42,0,0,0-10.15,5.1,9,9,0,0,1-6,1.27,10.81,10.81,0,0,0-5.36,0,4.17,4.17,0,0,0-1.95,1.59,2.57,2.57,0,0,0-.32,2.19,3.15,3.15,0,0,0,2,1.29,21,21,0,0,0,2.74.64,30.07,30.07,0,0,0,11.26.63,42.16,42.16,0,0,1,5.67-1.25,33.75,33.75,0,0,1,5.86-.28,44.3,44.3,0,0,1,5.73.88,2.88,2.88,0,0,0,2.56-.37,2.59,2.59,0,0,0,.53-1.21q.18-.71.39-1.41h0a34.26,34.26,0,0,1,2.35-5.59,15.31,15.31,0,0,1,1.68-2.54c.62-.76,1.5-1.43,1.5-2.46A5.24,5.24,0,0,0,545.62,398.38Zm1.73,6.79a14.52,14.52,0,0,0-1.67,2.5,32,32,0,0,0-2.21,5.59h0a14.51,14.51,0,0,0-.35,1.41,2.7,2.7,0,0,1-.56,1.39,3.33,3.33,0,0,1-2.92.58,41.43,41.43,0,0,0-5.67-.7,37.47,37.47,0,0,0-5.69.41,44.65,44.65,0,0,0-5.57,1.33,19.56,19.56,0,0,1-5.86.35c-2-.19-3.8-.49-5.75-.78a22,22,0,0,1-2.9-.62,4.22,4.22,0,0,1-2.67-1.84,4.46,4.46,0,0,1,2.69-5.48,6.26,6.26,0,0,1,3.13-.56c1,.05,2,.25,2.88.25a10.11,10.11,0,0,0,2.69-.14,7.84,7.84,0,0,0,1.26-.35,5.06,5.06,0,0,0,1.13-.64,56.84,56.84,0,0,1,10.5-5.09,25.12,25.12,0,0,1,5.75-1.25c1-.12,2-.08,2.83-.23a6.06,6.06,0,0,0,2.48-1,13.89,13.89,0,0,0,2-1.95,2.42,2.42,0,0,1,2.89-.32,5.53,5.53,0,0,1,3.15,4.68C548.89,403.78,547.91,404.48,547.35,405.17Z"/><path class="cls-37" d="M544,397.86c-1.46.21-1.56,2-3.91,3.28a9.43,9.43,0,0,1-4.08.92,38.92,38.92,0,0,0-14.75,5.51,19.62,19.62,0,0,1-3.2,1.78c-4.32,1.41-7.16-1.09-10.19.86a4.26,4.26,0,0,0-1.95,2.27,3,3,0,0,0-.1,1.86c.55,1.74,3.44,2.21,7.35,2.77a28.72,28.72,0,0,0,6.61.55c3.91-.21,4.34-1.21,9.05-1.72a27.47,27.47,0,0,1,6.08-.19c4,.29,6,1.48,7.35.29.49-.45.37-.8,1-2.76a35.5,35.5,0,0,1,2.29-5.61c1.83-3.42,3.18-3.36,3.18-5C548.85,400.22,546.09,397.58,544,397.86Z"/><path class="cls-38" d="M626,333.63a30.56,30.56,0,0,0-6.37-7.68,23.4,23.4,0,0,0-8.65-4.83,16.77,16.77,0,0,0-4.88-.63,11.21,11.21,0,0,0-2.45.26c-.8.11-1.62.33-2.44.52-6.55,1.57-13.16,2.92-19.79,4.15-3.3.61-6.63,1.19-10,1.72a78.37,78.37,0,0,1-10.15,1.11h.28a12,12,0,0,0-6.42,6.22A24.21,24.21,0,0,0,554,339l-1.13,4.71-4.6,18.89L539,400.32V400a7.57,7.57,0,0,0,3.69,3.91,7.87,7.87,0,0,0,5.34.47l-.33.27L560.8,378c2.15-4.44,4.41-8.86,6.49-13.29a41.72,41.72,0,0,0,2.3-7,63.9,63.9,0,0,0,1-7.28v-.37h.32l14.23,3.62h30.42a19.1,19.1,0,0,0,7.82-3.74,22.69,22.69,0,0,0,3.11-3,9.87,9.87,0,0,0,2.11-3.71A14.55,14.55,0,0,0,626,333.63Zm2.7,9.7a10.29,10.29,0,0,1-2.33,3.6,23.44,23.44,0,0,1-3.11,3,19.06,19.06,0,0,1-7.82,3.91h0l-30.42.29h0l-14.25-3.42.37-.3a61.43,61.43,0,0,1-.9,7.41A37.46,37.46,0,0,1,568,365c-2.07,4.54-4.28,8.92-6.41,13.37L548.64,405v.2h-.22a8.69,8.69,0,0,1-6.06-.49,8.86,8.86,0,0,1-4.26-4.34V400L547,362.23l4.5-18.88,1.13-4.71a26,26,0,0,1,1.35-4.83,13.37,13.37,0,0,1,7.2-7h.29a94.06,94.06,0,0,0,9.91-1.06c3.33-.49,6.63-1,10-1.58,6.61-1.16,13.24-2.33,19.81-3.74.82-.17,1.64-.37,2.5-.47a12.43,12.43,0,0,1,2.58-.21,17.09,17.09,0,0,1,5.07.78,24.12,24.12,0,0,1,8.74,5.12,31.42,31.42,0,0,1,6.33,7.82,14.82,14.82,0,0,1,2.33,9.78Z"/><path class="cls-38" d="M608.38,332.19A30.6,30.6,0,0,0,602,324.5a23.61,23.61,0,0,0-8.65-4.83,16.39,16.39,0,0,0-4.88-.62,11.91,11.91,0,0,0-2.45.25c-.8.12-1.62.33-2.44.53-6.55,1.56-13.16,2.91-19.79,4.14-3.3.61-6.62,1.2-9.95,1.73a78.37,78.37,0,0,1-10.15,1.11H544a11.9,11.9,0,0,0-6.41,6.22,23.6,23.6,0,0,0-1.26,4.51l-1.13,4.71-4.59,18.89-9.21,37.73v-.35a7.53,7.53,0,0,0,3.69,3.91,7.81,7.81,0,0,0,5.34.47l-.33.28,13.08-26.59c2.15-4.44,4.42-8.86,6.49-13.3a42.38,42.38,0,0,0,2.31-7,65.71,65.71,0,0,0,.95-7.27v-.37h.32l14.23,3.61h30.42a19.08,19.08,0,0,0,7.82-3.73,22.69,22.69,0,0,0,3.11-3,9.78,9.78,0,0,0,2.11-3.72A14.54,14.54,0,0,0,608.38,332.19Zm2.7,9.69a10.2,10.2,0,0,1-2.33,3.6,22.83,22.83,0,0,1-3.11,3,19,19,0,0,1-7.82,3.91h0l-30.42.29h0l-14.25-3.42.37-.29a61.43,61.43,0,0,1-.9,7.41,37.93,37.93,0,0,1-2.29,7.1c-2.07,4.53-4.28,8.91-6.41,13.37L531,403.55v.19h-.22a8.63,8.63,0,0,1-6.06-.49,8.78,8.78,0,0,1-4.26-4.34v-.35l8.93-37.77,4.5-18.89,1.13-4.71a26,26,0,0,1,1.35-4.83,13.43,13.43,0,0,1,7.2-7h.29a91.46,91.46,0,0,0,9.91-1c3.33-.49,6.63-1,10-1.59,6.6-1.15,13.23-2.32,19.8-3.73a25.09,25.09,0,0,1,2.5-.47,13.16,13.16,0,0,1,2.58-.22,17.1,17.1,0,0,1,5.07.79,24,24,0,0,1,8.74,5.12,31.2,31.2,0,0,1,6.33,7.82,14.79,14.79,0,0,1,2.33,9.77Z"/><path class="cls-39" d="M602.69,320.63c-9.13,2.19-35,7-41.31,7a12.6,12.6,0,0,0-7.82,9.66l-15.13,62.93a8.17,8.17,0,0,0,9.78,4.58C557,387,563.47,373.51,566.49,367.4a41.49,41.49,0,0,0,3.91-11.62,38.56,38.56,0,0,0,.52-5.26l14.24,3.5,30.42-.15a19,19,0,0,0,7.19-3.35c.88-.62,5-3.81,5.87-7.21C630.63,335.7,617.14,317.17,602.69,320.63Z"/><path class="cls-42" d="M618,253.12c.75.7.28,1.62.63,4.48a21.75,21.75,0,0,0,1.58,6H623a19.87,19.87,0,0,0-2.9,2.19,35,35,0,0,0-5.27,7,16.25,16.25,0,0,1-3.43,4.48,5.61,5.61,0,0,1-4.57,1.58c-1.8-.49-2.64-2.42-3.07-3.42a13.79,13.79,0,0,1-.27-8,33.08,33.08,0,0,1,1-4.48l2.82-.25a7.56,7.56,0,0,1,0-4.75C609.05,253.2,616,251.26,618,253.12Z"/><path class="cls-9" d="M604.94,239.1c3.4,1,5-1.52,7.82-.18a6.49,6.49,0,0,1,3.35,4.23,8.05,8.05,0,0,1-.1,3.42c-.41,2.09-1.27,3.42-1.06,3.52s.88-.8,2.47-1.86c1.19-.78,1.89-1.25,2.81-1.13a2.58,2.58,0,0,1,2,1.48c.09.22.43,1.12-.53,2.92a10.2,10.2,0,0,1-3.91,3.91c-5.83,3.42-10.91,6.35-15.92,4.4a8.78,8.78,0,0,1-4.39-3.62c-1-1.78-.88-3.48-.88-6.49a67.16,67.16,0,0,1,1.32-8.35c.61-4.09.57-5.32,1.39-5.63C600.62,235.21,601.54,238.14,604.94,239.1Z"/><path class="cls-6" d="M600.56,236c.38.3.71.63,1,.94a8.45,8.45,0,0,0,2.25,1.53,5.65,5.65,0,0,0,2.6.5,9.31,9.31,0,0,0,2.6-.62,5.2,5.2,0,0,1,3-.24,5.67,5.67,0,0,1,2.64,1.49,7,7,0,0,1,2.15,5.53,13,13,0,0,1-.59,2.9c-.13.45-.31.92-.48,1.35l-.22.56h0a.55.55,0,0,0-.12-.35.61.61,0,0,0-.53-.27h-.19a16.43,16.43,0,0,1,2.23-1.76,5.42,5.42,0,0,1,2.91-1.23,3.24,3.24,0,0,1,2.86,1.83,3.91,3.91,0,0,1-.36,3.25,10.48,10.48,0,0,1-3.91,4.28,43.57,43.57,0,0,1-10.12,4.83,10.07,10.07,0,0,1-10.5-3.15,6.9,6.9,0,0,1-1.29-2.6,10.63,10.63,0,0,1-.26-2.81,26.1,26.1,0,0,1,.57-5.58c.39-1.79.76-3.59,1.06-5.43l.39-2.76a8.91,8.91,0,0,1,.23-1.37c.12-.43.26-1,.76-1.17A1.43,1.43,0,0,1,600.56,236Zm-1.25-.21a1.69,1.69,0,0,0-.78,1.17,6.33,6.33,0,0,0-.23,1.37l-.4,2.74c-.25,1.83-.54,3.67-.9,5.49a25.07,25.07,0,0,0-.33,5.47,7.07,7.07,0,0,0,1.61,5,8.8,8.8,0,0,0,4.41,2.8,9.91,9.91,0,0,0,5.24-.12,42,42,0,0,0,9.78-4.89,9.53,9.53,0,0,0,3.4-3.91,2.82,2.82,0,0,0,.28-2.09,2,2,0,0,0-1.63-1,4.64,4.64,0,0,0-2.07,1,21.25,21.25,0,0,0-2.09,1.7c-.2.08-.12.23-.8.33a.89.89,0,0,1-.69-.37A.84.84,0,0,1,614,250a1.28,1.28,0,0,1,0-.39c.09-.31.27-.51.27-.72.18-.41.35-.83.49-1.25a13,13,0,0,0,.53-2.55,5.63,5.63,0,0,0-1.55-4.55,4.9,4.9,0,0,0-2-1.39,4.47,4.47,0,0,0-2.51,0,11.12,11.12,0,0,1-2.81.43,6.68,6.68,0,0,1-2.76-.74,8.69,8.69,0,0,1-2.27-1.68c-.33-.32-.64-.67-1-1a1.28,1.28,0,0,0-1.18-.41Z"/><path class="cls-9" d="M561.77,247.41a3.35,3.35,0,0,0-.7-1.08c-1.64-1.6-5-1-6.9.14a7.32,7.32,0,0,0-1.66,1.27c-.2,1.63-.47,3.85-.71,6.57-.11,1.51-.29,3.56-.43,5.87l5.73-.32v-.19c.16-1,1-1,1.74-2.39,1-1.7-.14-4.06.24-4.22s1,1.08,1.64.94c.12,0,.49-.14.94-1.53A6.4,6.4,0,0,0,561.77,247.41Z"/><path class="cls-6" d="M562.07,248.43a4.86,4.86,0,0,0-.84-1.63,2.74,2.74,0,0,0-1.45-.84,7,7,0,0,0-3.52.3,8.13,8.13,0,0,0-3.07,2l.22-.43-.81,6.14c-.23,2.07-.39,4.13-.6,6.2l-.51-.51,5.75-.22-.35.38h0v-.26h0a1.94,1.94,0,0,1,.72-1.13,8.48,8.48,0,0,0,.82-.76,3,3,0,0,0,.76-2,18,18,0,0,0-.21-2.31.47.47,0,0,1,0-.33.29.29,0,0,1,.37,0,2.11,2.11,0,0,1,.45.39,1.48,1.48,0,0,0,.92.51h0c.23-.06.41-.37.53-.63a6.1,6.1,0,0,0,.33-.84A6.61,6.61,0,0,0,562.07,248.43Zm-.34,4.06a6.35,6.35,0,0,1-.29,1.14,1.17,1.17,0,0,1-.66.7h0a1.27,1.27,0,0,1-1.06-.55c-.25-.27-.68-.9-.64-.15s.31,1.5.31,2.3a3.6,3.6,0,0,1-.7,2.29c-.45.71-1.2,1.14-1.2,1.76h0v.33h-.33l-5.73.41h-.53v-.54l.37-6.24.53-6.22v-.15l.18-.22a8.52,8.52,0,0,1,3.69-2.21,6.73,6.73,0,0,1,4.3,0,3.58,3.58,0,0,1,1.76,1.45,5.26,5.26,0,0,1,.67,1.95,9,9,0,0,1-.67,3.91Z"/><path class="cls-37" d="M647.72,292l.16-5.56a23.28,23.28,0,0,0-6-15.13,26.39,26.39,0,0,0-6.08-4.46,48.65,48.65,0,0,0-10.06-3.73c-1.47-.43-2.68-.74-3.54-.94l-15.82,19.34c-.86-6.59-1.7-13.08-2.58-19.55a47.89,47.89,0,0,0-10.07,2.58,53,53,0,0,0-5.63,2.46,99.37,99.37,0,0,0-9,6.41c-2.21,1.7-4.25,3.29-5.34,4.19l-.28.21-6.74,5.59c-4.11-15-7-20.31-8.92-21.68a2.69,2.69,0,0,1-.8-1.95l-5.73.31c-.13,2-.13,4.14-.13,6.24A69.42,69.42,0,0,0,553.29,282s2.7,11.32,8.56,16.89a4.58,4.58,0,0,0,1.41.94,7.27,7.27,0,0,0,6.22-1.29q9.76-4.68,19.55-9.27l.66.47c3.52,2,6.06,16.75,3.91,22.27-1.17,2.93-2.28,5.88-3.4,8.79a51.4,51.4,0,0,1,12.91,3.64A50.24,50.24,0,0,1,619.72,336a49.07,49.07,0,0,1,8.68,12.76,32.64,32.64,0,0,0,8.8-24l4.23,2.88h2a5.36,5.36,0,0,1-1-.12,7,7,0,0,1-2.42-.94,80.59,80.59,0,0,1-17.6-15.25,122.09,122.09,0,0,1-11-16.26,15.79,15.79,0,0,0,3.49-2.08,15.44,15.44,0,0,0,2.41-2.3c3.66,2.93,9.35,7,12.18,7.64,1.08.23,0-2.46.18-6.73"/><path class="cls-38" d="M629.75,291.38a43.69,43.69,0,0,0,.32,5.36c0,.45.13,1.17-.16,1.39s-.53,0-.74,0-.43-.2-.65-.2a21.56,21.56,0,0,1-2.42-1.17,75.91,75.91,0,0,1-8.84-6.16h.18a17,17,0,0,1-5.87,4.44v-.22c1.92,3.33,4,6.61,6.22,9.78a79,79,0,0,0,7.23,9.09,85.07,85.07,0,0,0,8.61,7.82c1.52,1.21,3.08,2.35,4.69,3.44.8.51,1.6,1.13,2.4,1.56a6.75,6.75,0,0,0,2.68.67v.57h-2.07l-4.24-2.86.46-.27a33.11,33.11,0,0,1-8.83,24.28l-.37.41-.24-.49a48.63,48.63,0,0,0-15.48-18.65,50.29,50.29,0,0,0-22.47-9.05l-.58-.1.21-.55,3-7.66A17.42,17.42,0,0,0,593.9,305a41.79,41.79,0,0,0-1.14-8,23.56,23.56,0,0,0-1.21-3.91A7.09,7.09,0,0,0,589.6,290h0l-.67-.49h.57L570,298.81h0a8,8,0,0,1-6.3,1.53,5.91,5.91,0,0,1-2.76-2,22.15,22.15,0,0,1-1.95-2.48,44.94,44.94,0,0,1-5.34-11.32,67.09,67.09,0,0,1-2.5-12.22,59.09,59.09,0,0,1-.43-6.24l.12-6.22v-.64h.66l5.73-.33h.8v.82a2,2,0,0,0,.31,1.11l.16.22h0l.2.15a4.19,4.19,0,0,1,.68.65,13.75,13.75,0,0,1,2,2.83,55.36,55.36,0,0,1,2.58,6c1.54,4.09,2.75,8.25,3.91,12.42l-1.18-.37c2.82-2.31,5.63-4.69,8.43-6.92s5.71-4.46,8.66-6.61a34.19,34.19,0,0,1,4.64-3.07l5-2.19A48.81,48.81,0,0,1,604,261.27h.66v.65l2.48,19.45-1-.27,15.91-19.26.18-.22h.25c3.13.84,6.24,1.69,9.29,2.8a30.12,30.12,0,0,1,8.5,4.71,19.93,19.93,0,0,1,5.87,7.7,26.68,26.68,0,0,1,2,9.45h0l-.21,5.55h-.14V286.3h0a26.17,26.17,0,0,0-2.21-9.29,19.32,19.32,0,0,0-5.86-7.39,31.2,31.2,0,0,0-8.37-4.5c-3-1.07-6.14-1.89-9.23-2.67l.43-.16L606.9,281.7l-.8,1-.18-1.25L603.24,262l.75.56a47.35,47.35,0,0,0-10.35,2.76l-4.9,2.19a36.31,36.31,0,0,0-4.4,2.95c-2.92,2.11-5.81,4.4-8.63,6.59s-5.59,4.59-8.38,6.86l-.88.73-.3-1.08c-1.25-4.14-2.44-8.29-3.91-12.32a48.65,48.65,0,0,0-2.5-5.86,12.71,12.71,0,0,0-1.68-2.54,2.42,2.42,0,0,0-.49-.47l-.12-.1a2.35,2.35,0,0,1-.29-.26l-.31-.43a3.29,3.29,0,0,1-.53-1.95l.76.76-5.73.31L552,260l-.14,6.14a53.8,53.8,0,0,0,.39,6.08,65.18,65.18,0,0,0,2.39,12,42.9,42.9,0,0,0,5.1,11,19.08,19.08,0,0,0,2,2.35,4.56,4.56,0,0,0,2.19,1.6,6.93,6.93,0,0,0,5.33-1.33h0l19.55-9.23.3-.13.25.17.67.49h0a7.87,7.87,0,0,1,2.52,3.62,26.86,26.86,0,0,1,1.23,3.91,41.3,41.3,0,0,1,1.13,8.21,18.09,18.09,0,0,1-1.27,8.23l-3,7.65-.37-.63a51.54,51.54,0,0,1,22.84,9.31,49.2,49.2,0,0,1,15.64,19h-.61a33.1,33.1,0,0,0,6.8-11,32.26,32.26,0,0,0,2-12.76v-.61l.49.33,4.22,2.88h1.8v.56a7.72,7.72,0,0,1-2.91-.74c-.92-.49-1.65-1.08-2.49-1.6-1.58-1.12-3.16-2.27-4.67-3.5a85.17,85.17,0,0,1-8.62-7.82,78.9,78.9,0,0,1-7.22-9.17c-2.26-3.21-4.22-6.49-6.17-9.9V295h.15a16.39,16.39,0,0,0,5.87-4.32h0a71.42,71.42,0,0,0,8.78,6.17,16.19,16.19,0,0,0,2.4,1.18,3.33,3.33,0,0,0,.63.21c.19,0,.54.12.54,0a2.16,2.16,0,0,0,.12-1.23,43.86,43.86,0,0,1-.27-5.38Z"/><path class="cls-42" d="M614.91,288.7a23.29,23.29,0,0,0,.94-3.36c.32-2,0-2.62-.39-2.93s-.37,0-1-.51-.37-1.19-.82-2a3.13,3.13,0,0,0-1.64-1.17,8,8,0,0,0-9,3.91,5.16,5.16,0,0,0-.61,2.8,6.33,6.33,0,0,0,2.11,3.81,12.1,12.1,0,0,0,5.4,3.22l1.42,2.6a15.23,15.23,0,0,0,3.5-2.07,15.44,15.44,0,0,0,2.41-2.3C616.32,290,615.5,289.27,614.91,288.7Z"/><path class="cls-37" d="M629.6,291.63c-.18,4.27.9,7-.18,6.73-2.83-.61-8.52-4.71-12.18-7.64a15.37,15.37,0,0,1-2.4,2.3,16.09,16.09,0,0,1-3.5,2.08,122.09,122.09,0,0,0,11,16.26,80.59,80.59,0,0,0,17.6,15.25,7,7,0,0,0,2.42.94,5.36,5.36,0,0,0,1,.12,3,3,0,0,0,1.17-.24,3.53,3.53,0,0,0,1.35-1.13c.1-.12.28-.26.28-.39l.7-1.37c3.27-7.76,1.55-26.3,1.55-26.3-.16-1.6-.36-3.71-.63-6.21"/><path class="cls-38" d="M647.9,291.87c.27,2.72.66,5.42.86,8.15s.37,5.48.39,8.21,0,5.48-.26,8.22a28.88,28.88,0,0,1-1.64,8.11h0l-.74,1.45a4,4,0,0,1-1.21,1.31,3.22,3.22,0,0,1-1.72.6,9.86,9.86,0,0,1-1.72-.21,8.54,8.54,0,0,1-3-1.49c-.91-.59-1.79-1.19-2.67-1.82a86,86,0,0,1-10-8.29,54.35,54.35,0,0,1-4.48-4.75c-1.33-1.68-2.64-3.38-3.91-5.14a124.61,124.61,0,0,1-7-10.93l-.41-.7.74-.34a15.91,15.91,0,0,0,5.71-4.12l.41-.47.47.39a85.65,85.65,0,0,0,8.62,6.3,19.76,19.76,0,0,0,2.33,1.21l.6.21.32.1h0a1.41,1.41,0,0,0,0-.41v-.64a40.27,40.27,0,0,1-.1-5.38h.14a45.49,45.49,0,0,0,.5,5.34v.7a1.11,1.11,0,0,1-.25.88.82.82,0,0,1-.59.14H629l-.68-.22a20.93,20.93,0,0,1-2.51-1.13,65.18,65.18,0,0,1-9-6l.88-.1a17.11,17.11,0,0,1-6.08,4.65l.33-1q3.16,5.58,6.88,10.81c1.24,1.74,2.49,3.46,3.8,5.16a56.11,56.11,0,0,0,4.28,4.71,85.26,85.26,0,0,0,9.77,8.33,31.87,31.87,0,0,0,2.62,2A7.86,7.86,0,0,0,642,327a8,8,0,0,0,1.47.22,2.32,2.32,0,0,0,1.29-.43,3.12,3.12,0,0,0,1-1l.74-1.41h0a30.4,30.4,0,0,0,1.72-7.82q.4-4,.41-8.15c0-2.74-.06-5.47-.21-8.19s-.47-5.44-.69-8.15Z"/><polygon class="cls-43" points="580.43 322.92 592.84 319.2 547.13 318.34 517 324.54 580.43 322.92"/><path class="cls-43" d="M580.35,322l11.49-2.68a1.45,1.45,0,0,1,.41-.06,1.55,1.55,0,0,1,1.55,1.55v1.07a1.54,1.54,0,0,1-1.17,1.49l-11.38,2.58"/><path class="cls-43" d="M581.38,322.37c-1.58-18.26-3-31.95-3.69-35.86a5.74,5.74,0,0,0-2.09-4,5.15,5.15,0,0,0-3.91-.53c-2.17-.06-51.23-1.39-56.27-.18a5.3,5.3,0,0,0-3.17,2,4.91,4.91,0,0,0-.53,3.52l4.4,36.2Z"/><path class="cls-43" d="M581.4,321.74a2.14,2.14,0,0,1,0,4.27c-21.82.62-42.76,1.09-64.52,1.72a2.93,2.93,0,0,1-1.52-2.58,2.88,2.88,0,0,1,.76-1.71Z"/><path class="cls-39" d="M599.62,246l.88-3.52"/><path class="cls-38" d="M599.62,246a2.67,2.67,0,0,1,.88-3.52A2.6,2.6,0,0,1,599.62,246Z"/><path class="cls-39" d="M605.12,247.14l.86-3.52"/><path class="cls-38" d="M606.25,245.57a2.52,2.52,0,0,1-1.13,1.59,2.46,2.46,0,0,1-.27-2,2.51,2.51,0,0,1,1.13-1.58A2.43,2.43,0,0,1,606.25,245.57Z"/><path class="cls-39" d="M609.83,245.08a4.65,4.65,0,0,0-4.3-3"/><path class="cls-38" d="M607.11,241.81a3,3,0,0,1,2.72,3.27l-2.11-1.54c-.65-.47-1.29-.84-2.19-1.45A3.07,3.07,0,0,1,607.11,241.81Z"/><path class="cls-39" d="M598.57,241a3.13,3.13,0,0,1,3.62-.8"/><path class="cls-38" d="M600.41,240.68a14.34,14.34,0,0,1-1.84.28,1.95,1.95,0,0,1,3.62-.8C601.35,240.43,600.92,240.55,600.41,240.68Z"/><path class="cls-9" d="M604.26,250.28a4.26,4.26,0,0,1-2.93.36,4.18,4.18,0,0,1-1.76-.94l2.58-1.64"/><path class="cls-6" d="M600,250.28v-1.11a6,6,0,0,0,4.22,1.11,3.24,3.24,0,0,1-2.52,1.08,3.9,3.9,0,0,1-2.62-1.15l-.71-.67.78-.43a9.78,9.78,0,0,1,3-1.05A9.68,9.68,0,0,1,600,250.28Z"/><path class="cls-44" d="M599,255.23a5.45,5.45,0,0,0,4.4.82,5.74,5.74,0,0,0,3.91-2.17,16.32,16.32,0,0,1-5,.71,7.66,7.66,0,0,1-3.1-.94c-1-.57-1.41-1.18-1.57-1.06S597.81,254.29,599,255.23Z"/></g></g></g></svg>