<svg xmlns="http://www.w3.org/2000/svg" viewBox="0 0 201.05 204.11"><defs><style>.cls-1{fill:#ea581c;}.cls-2{fill:#2a3280;}.cls-3{fill:#ea5719;}.cls-4,.cls-5{fill:none;}.cls-4{stroke:#ea5719;stroke-miterlimit:10;}.cls-6{fill:#28347a;}</style></defs><title>LOGO</title><g id="Слой_2" data-name="Слой 2"><g id="Слой_2-2" data-name="Слой 2"><polygon class="cls-1" points="0 141.51 0 204 31.24 204 42.96 204 31.24 192.28 11.72 192.28 11.72 153.22 42.96 153.22 42.96 153.22 31.24 141.51 0 141.51"/><rect class="cls-1" x="11.72" y="166.89" width="19.53" height="11.72"/><polygon class="cls-2" points="0 0.05 0 141.45 70.7 141.45 97.21 141.45 70.7 114.94 26.51 114.94 26.51 26.57 97.21 26.57 97.21 26.57 70.7 0.05 0 0.05"/><rect class="cls-2" x="26.51" y="57.49" width="44.18" height="26.51"/><path class="cls-3" d="M130.3,0H103.76V141.5H130.3A70.75,70.75,0,0,0,130.3,0Zm0,115V26.53a44.22,44.22,0,0,1,0,88.44Z"/><path class="cls-4" d="M174.52,70.75A44.22,44.22,0,0,1,130.3,115V26.53A44.22,44.22,0,0,1,174.52,70.75Z"/><path class="cls-4" d="M174.52,70.75A44.22,44.22,0,0,1,130.3,115V26.53A44.22,44.22,0,0,1,174.52,70.75Z"/><path class="cls-2" d="M70.76,141.39l-19.56,51-3.9,11.72,15.62-11.72H78.54l3.91,11.72H94.16Zm-4,39.27,4-15.6,3.91,15.62Z"/><path class="cls-2" d="M114.86,178.49l-.65-.1"/><path class="cls-2" d="M111.69,177.77l-.41-.14"/><path class="cls-5" d="M103.76,172.72l-.5-.57"/><path class="cls-5" d="M101.68,170c-.1-.15-.19-.3-.28-.45"/><path class="cls-2" d="M110.63,158.93a6.23,6.23,0,0,0-.1,1.15,6.46,6.46,0,0,0,.14,1.4h0a6.85,6.85,0,0,0,5.87,5.4h8.08a18.62,18.62,0,0,1,8.61,2.89l.35.23.31.22c.35.24.68.49,1,.75l.36.31.15.13.26.23.26.24c.15.13.28.27.42.4a17.91,17.91,0,0,1,1.47,1.67l.26.33.17.23.28.4.26.39c.14.22.28.43.41.66l.34.59.1.2.11.21c.14.26.27.54.39.81l.09.2c.12.28.24.56.35.85s.15.42.22.63.23.72.33,1.08l.09.34.09.36c0,.16.07.31.1.47s0,.23.07.34a17.47,17.47,0,0,1,.26,2.19c0,.14,0,.28,0,.43s0,.5,0,.75A18.57,18.57,0,0,1,123.19,204H98.81V192.28h24.38a6.86,6.86,0,0,0,6.86-6.86,6.76,6.76,0,0,0-.73-3.08h0a6.73,6.73,0,0,0-1.28-1.76l-.19-.19a7.11,7.11,0,0,0-1.57-1.09,6.61,6.61,0,0,0-2.25-.68,5.75,5.75,0,0,0-.84-.05,5.92,5.92,0,0,0-.84.05H116c-.37,0-.74-.07-1.1-.12l-.65-.1a18.92,18.92,0,0,1-2.52-.62l-.41-.14a17,17,0,0,1-2-.81c-.34-.16-.67-.34-1-.52l-.48-.28-.48-.3-.37-.25a.12.12,0,0,1-.07-.05,3.62,3.62,0,0,1-.32-.22l-.46-.34a19.71,19.71,0,0,1-1.88-1.64c-.16-.16-.32-.32-.47-.49h0l-.5-.57c-.19-.22-.37-.44-.54-.67a5,5,0,0,1-.34-.46,6.42,6.42,0,0,1-.38-.53,2.61,2.61,0,0,1-.2-.3,1,1,0,0,1-.12-.19c-.1-.15-.19-.3-.28-.45a.05.05,0,0,0,0,0l-.27-.46c-.07-.12-.13-.25-.19-.37l-.19-.37-.18-.37,0-.06c0-.1-.09-.19-.13-.29s0,0,0,0c-.08-.18-.16-.36-.23-.54s-.16-.41-.23-.62l-.18-.5a3,3,0,0,1-.1-.32,2,2,0,0,0-.07-.23c0-.17-.1-.34-.14-.5s-.13-.5-.18-.75-.08-.4-.12-.6-.05-.27-.07-.4-.06-.35-.08-.53a20.26,20.26,0,0,1-.16-2.48,19.46,19.46,0,0,1,.12-2.17,18.6,18.6,0,0,1,18.46-16.4h24.38v11.71H117.39a6.93,6.93,0,0,0-1.84.25,6.11,6.11,0,0,0-.85.3,6.63,6.63,0,0,0-.8.4l-.25.16-.31.21c-.19.15-.38.3-.57.47l-.27.25a6.81,6.81,0,0,0-1.87,3.67Z"/><path class="cls-5" d="M99.73,165.89a3,3,0,0,1-.1-.32"/><path class="cls-5" d="M100.52,167.88c0-.1-.09-.19-.13-.29"/><path class="cls-5" d="M100.55,167.94l.21.44c0,.1.1.2.16.3"/><path class="cls-5" d="M101.38,169.51c-.1-.15-.18-.3-.27-.46"/><path class="cls-2" d="M106.91,175.42a3.62,3.62,0,0,1-.32-.22"/><path class="cls-2" d="M108.31,176.3l-.48-.28-.48-.3-.37-.25"/><path class="cls-2" d="M128,180.57l-.19-.19"/><path class="cls-5" d="M141.75,184.67c0-.15,0-.29,0-.43"/><path class="cls-5" d="M141.3,181.24l-.09-.36"/><path class="cls-2" d="M138.52,174.92l-.28-.4"/><path class="cls-2" d="M124,178.61h-1.68a5.92,5.92,0,0,1,.84-.05A5.75,5.75,0,0,1,124,178.61Z"/><path class="cls-2" d="M133.89,170.23l-.31-.22"/><path class="cls-2" d="M135.25,171.29l-.36-.31"/><path class="cls-2" d="M135.66,171.65l-.26-.23"/><path class="cls-2" d="M136.34,172.29c-.14-.13-.27-.27-.42-.4"/><path class="cls-2" d="M138.07,174.29l-.26-.33"/><path class="cls-2" d="M138.78,175.31c.14.22.28.43.41.66l.34.59"/><path class="cls-2" d="M139.74,177l-.11-.21"/><path class="cls-2" d="M140.22,178l-.09-.2"/><path class="cls-5" d="M140.79,179.46c-.07-.21-.14-.42-.22-.63"/><path class="cls-5" d="M141.21,180.88l-.09-.34"/><path class="cls-5" d="M141.47,182.05c0-.11-.05-.23-.07-.34"/><path class="cls-2" d="M118.81,178.61c-.47,0-.94,0-1.42,0s-1,0-1.43,0Z"/><path class="cls-5" d="M113.34,154.54c-.19.15-.38.3-.57.47"/><path class="cls-6" d="M114.7,153.77a8.52,8.52,0,0,0-.8.4"/><path class="cls-5" d="M113.34,154.54c-.19.15-.38.3-.57.47"/><path class="cls-6" d="M114.7,153.77a8.52,8.52,0,0,0-.8.4"/><path class="cls-2" d="M124.62,166.89h-2.86c.47,0,.95,0,1.43,0S124.15,166.86,124.62,166.89Z"/><path class="cls-2" d="M116,178.61h2.85c-.47,0-.94,0-1.42,0S116.43,178.65,116,178.61Z"/><path class="cls-2" d="M124,178.61h-1.68a5.92,5.92,0,0,1,.84-.05A5.75,5.75,0,0,1,124,178.61Z"/><path class="cls-2" d="M124,178.61h-1.68a5.92,5.92,0,0,1,.84-.05A5.75,5.75,0,0,1,124,178.61Z"/><polygon class="cls-2" points="173.2 160.57 151.81 141.51 151.81 141.51 147.9 141.51 147.9 153.5 153.13 158.37 165.43 169.77 167.25 171.63 167.25 204 167.43 204 178.96 204 179.15 204 179.15 171.63 180.96 169.77 193.27 158.37 198.49 153.54 198.45 141.51 194.77 141.51 173.2 160.57 173.2 160.57 173.2 160.57 173.2 160.57"/><polyline class="cls-3" points="70.73 165.06 70.76 141.39 94.16 204.11 82.45 204.11 74.64 180.68"/><polyline class="cls-3" points="173.2 160.57 167.25 171.63 179.15 171.63 198.49 153.54 198.45 141.51 194.77 141.51"/></g></g></svg>