<svg width="19" height="19" viewBox="0 0 19 19" fill="none" xmlns="http://www.w3.org/2000/svg">
<path d="M6.9 0.600098C3.1 0.600098 0 3.70009 0 7.50009C0 9.30009 0.7 11.0001 2 12.3001C3.3 13.6001 5 14.3001 6.8 14.3001C8.6 14.3001 10.3 13.6001 11.6 12.3001C12.9 11.0001 13.6 9.30009 13.6 7.50009C13.7 3.60009 10.6 0.600098 6.9 0.600098ZM10.3 10.9001C9.4 11.8001 8.1 12.3001 6.8 12.3001C5.5 12.3001 4.3 11.8001 3.3 10.9001C2.5 10.0001 2 8.70009 2 7.40009C2 4.70009 4.2 2.50009 6.9 2.50009C9.6 2.50009 11.8 4.70009 11.8 7.40009C11.8 8.70009 11.2 10.0001 10.3 10.9001Z" fill="#EA5616"/>
<path d="M13.4702 12.6033L12.0554 14.0171L16.933 18.8981L18.3478 17.4843L13.4702 12.6033Z" fill="#EA5616"/>
</svg>
