<svg xmlns="http://www.w3.org/2000/svg" xmlns:xlink="http://www.w3.org/1999/xlink" viewBox="0 0 898.35 590.32"><defs><style>.cls-1{fill:#c9cde9;}.cls-2{fill:#b1b6dd;}.cls-3{fill:#636eb2;}.cls-13,.cls-15,.cls-32,.cls-4{fill:#404999;}.cls-4,.cls-9{stroke:#312783;}.cls-10,.cls-11,.cls-13,.cls-15,.cls-19,.cls-30,.cls-4,.cls-5,.cls-7,.cls-9{stroke-miterlimit:10;}.cls-11,.cls-5{fill:#6e7aba;}.cls-5{stroke:url(#Безымянный_градиент_7);}.cls-6{fill:#232249;}.cls-22,.cls-7{fill:#fcd4b6;}.cls-10,.cls-30,.cls-7{stroke:#f59d5c;}.cls-8{fill:#312783;}.cls-10,.cls-30,.cls-35,.cls-9{fill:none;}.cls-11{stroke:url(#Безымянный_градиент_7-2);}.cls-12{fill:url(#Безымянный_градиент_7-3);}.cls-13{stroke:url(#Безымянный_градиент_7-4);}.cls-14{fill:url(#Безымянный_градиент_7-5);}.cls-15{stroke:url(#Безымянный_градиент_7-6);}.cls-16,.cls-19{fill:#8891c8;}.cls-17{fill:url(#Безымянный_градиент_7-7);}.cls-18{fill:url(#Безымянный_градиент_7-8);}.cls-19{stroke:url(#Безымянный_градиент_7-9);}.cls-20{fill:#f59d5c;}.cls-21{fill:url(#Безымянный_градиент_14);}.cls-23{fill:url(#Безымянный_градиент_7-10);}.cls-24{fill:#9e3a16;}.cls-25{fill:#fff;}.cls-26{fill:#be1622;}.cls-27{fill:url(#Безымянный_градиент_7-11);}.cls-28{fill:url(#Безымянный_градиент_7-12);}.cls-29{fill:#ea5719;}.cls-30{stroke-width:2px;}.cls-31{fill:#292b61;}.cls-33{fill:#34398e;}.cls-34{fill:#f8b684;}</style><linearGradient id="Безымянный_градиент_7" x1="174.51" y1="363.29" x2="252.32" y2="363.29" gradientUnits="userSpaceOnUse"><stop offset="0" stop-color="#312783"/><stop offset="1" stop-color="#433481"/></linearGradient><linearGradient id="Безымянный_градиент_7-2" x1="141.6" y1="371.61" x2="284.4" y2="371.61" xlink:href="#Безымянный_градиент_7"/><linearGradient id="Безымянный_градиент_7-3" x1="649.28" y1="435.48" x2="689.65" y2="435.48" xlink:href="#Безымянный_градиент_7"/><linearGradient id="Безымянный_градиент_7-4" x1="657.43" y1="372.48" x2="735.24" y2="372.48" xlink:href="#Безымянный_градиент_7"/><linearGradient id="Безымянный_градиент_7-5" x1="667.8" y1="448.59" x2="710.98" y2="448.59" xlink:href="#Безымянный_градиент_7"/><linearGradient id="Безымянный_градиент_7-6" x1="676.54" y1="381.74" x2="759.81" y2="381.74" xlink:href="#Безымянный_градиент_7"/><linearGradient id="Безымянный_градиент_7-7" x1="702.14" y1="287.37" x2="763.35" y2="287.37" xlink:href="#Безымянный_градиент_7"/><linearGradient id="Безымянный_градиент_7-8" x1="731.44" y1="286.95" x2="759.74" y2="286.95" xlink:href="#Безымянный_градиент_7"/><linearGradient id="Безымянный_градиент_7-9" x1="696.37" y1="282.05" x2="771.4" y2="282.05" xlink:href="#Безымянный_градиент_7"/><linearGradient id="Безымянный_градиент_14" x1="704.83" y1="213.5" x2="765.11" y2="213.5" gradientUnits="userSpaceOnUse"><stop offset="0" stop-color="#973924"/><stop offset="1" stop-color="#9e3a16"/></linearGradient><linearGradient id="Безымянный_градиент_7-10" x1="732.5" y1="286.02" x2="759.3" y2="286.02" xlink:href="#Безымянный_градиент_7"/><linearGradient id="Безымянный_градиент_7-11" x1="716.09" y1="208" x2="716.59" y2="208" xlink:href="#Безымянный_градиент_7"/><linearGradient id="Безымянный_градиент_7-12" x1="725.34" y1="208.84" x2="725.84" y2="208.84" xlink:href="#Безымянный_градиент_7"/></defs><title>Ресурс 3</title><g id="Слой_2" data-name="Слой 2"><g id="Слой_4" data-name="Слой 4"><path class="cls-1" d="M63.35,420.1c17.56-12.32,24.54-30.45,27.57-38.3,16.45-42.7-8.87-84-19.91-148.6C64.12,193,50,110.29,95.52,60.1,120.14,33,155.33,22.92,166,20.27c25.11-6.25,44.44-3.87,73.54,0C372.05,37.89,372.75,41.9,397.3,40.18c54.18-3.79,44.86-22.94,114.9-33.7C547.07,1.12,599-6.85,657.73,11.08c41.58,12.68,54.19,28.44,91.91,27.57,38.82-.89,49.08-18.11,68.94-10.72C859.23,43.06,862,132.27,863,165.8c2.18,71.09-14.76,77.69-13.79,168.51.83,78.26,13.74,104.06,19.91,114.89,14.23,25,27.74,31.93,29.11,52.09,2.22,32.7-29.67,68.8-62.81,82.72-59.43,25-101-30.55-202.21-56.68-65.4-16.89-134-7.17-271.15,12.26-53.27,7.54-203.34,18.49-251.23,23-34.41,3.22-71.9,6.76-93.45-16.86-26.81-29.38-20.94-92,6.13-110.29C35.77,427.15,46.42,432,63.35,420.1Z"/><rect class="cls-2" x="441.42" y="58.39" width="338.86" height="202.88" rx="11.46"/><rect class="cls-3" x="457.96" y="68.29" width="305.79" height="183.08" rx="11.58"/><ellipse class="cls-2" cx="456.9" cy="462.72" rx="364.98" ry="36.75"/><path class="cls-4" d="M222.42,413.32c-.77,3.87-2.06,7-1.77,10.9a4.15,4.15,0,0,0,.51,1.87c.29.48,1.11,1.47,4.4,1,2.3-.32,2.92-.94,4.28-1.19,2.52-.46,4.25,1,6.41,2.21,4.62,2.59,4.47.32,17.62,2.9,2.82.55,4.32,1,5.28-.35,1.49-2,.9-7-1-9.87-.64-1-2.11-2.7-8.43-3.23-8.77-.74-12.84,2-15.34-1.53a20,20,0,0,1-2.14-5.11c-1-3.61-.54-4.93-1.51-6.3-1.56-2.2-5.31-2.18-7.05.17C222.38,406.57,223.49,407.86,222.42,413.32Z"/><path class="cls-4" d="M276.22,421.91c1.12,3.79,1.39,7.12,3.47,10.48a4.24,4.24,0,0,0,1.31,1.43c.48.29,1.67.79,4.38-1.13,1.89-1.34,2.16-2.18,3.24-3,2-1.57,4.23-1.08,6.72-1,5.28.17,4.1-1.78,17-5.56,2.76-.82,4.27-1.15,4.52-2.74.4-2.47-2.44-6.64-5.45-8.3-1-.56-3.11-1.42-9,1-8.12,3.39-10.46,7.72-14.32,5.72a20.24,20.24,0,0,1-4.25-3.54c-2.59-2.72-2.76-4.13-4.25-4.89-2.4-1.23-5.71.51-6.17,3.4C273.07,415.94,274.66,416.57,276.22,421.91Z"/><path class="cls-5" d="M176.67,320c3.12-3.75,11.53-1.73,28.34,2.3,22.62,5.42,18.14,8.51,32.94,11,4,.67,10.65,1.5,13,6.13a10,10,0,0,1,.51,6.63c-5,24.08-13,33.72-12.77,49.28.07,4.54.83,8.43-1.79,11-3.87,3.78-13.14,2.65-14.8-1-.68-1.51.24-2.71,1-5.36,1.88-6.46-.81-8.86-1-17.37-.1-4,.78-8.36,2.55-17.1,2.07-10.22,2.92-10.27,2.3-11.75-3.67-8.62-29.06,2.41-43.41-10.21C176,336.76,172.8,324.61,176.67,320Z"/><path class="cls-6" d="M199.14,217.27c1.4,2.08,3.35,4.83,5.87,7.91,3.9,4.77,5.89,7.16,7.4,6.9,3-.51,4.7-8.62,4.09-15.07-.27-2.84-1.07-11.36-7.92-16.34-8.5-6.18-19.55-2-22.72-.76-9.17,3.49-13.71,10.78-18.64,18.64-10.91,17.4-6.1,24.52-13,54.89a5.28,5.28,0,0,0,.26,3.83c3.81,6.71,31.46,5.29,44.68-10.72,10.66-12.93,7.61-30.13,6.89-33.71"/><path class="cls-7" d="M199.41,292.86a24,24,0,0,0,7.37,6.2c5.33,2.85,33.59,4.22,46.9,6.29a27.33,27.33,0,0,0,9.63,0,32.28,32.28,0,0,0,7.22-2.42c2.1-.91,6.26-2.71,6-3.62-.6-2.18-3.67-.88-10.59.74-3.6.84-2.38-1.74-2.6-2.26-.57-1.3,1-3.49,4.83-3.79,2.42-.19,5.08-.6,11.34,1.26,3.74,1.11,4.21.85,4.38.62.72-1-2.7-3.14-5.45-5.24s-4.1-3-5.73-3.22-3-1.46-6.21.16c-1.8.9-4.77,1.29-7,3.14a28.79,28.79,0,0,1-7.88,4.73c-4.1,1.44-28.2-1.25-36.79-4.86a30,30,0,0,1-6.36-3.65"/><path class="cls-4" d="M139,347.28c-1.42-1.79-2.74-4.87-1-15.32a88.11,88.11,0,0,1,5.27-19.23c16.17-36.78,15.51-37.28,20.6-45.11,0,0,6.53-10,22.81-22.13,1.35-1,3.85-2.79,6.12-2,3.87,1.27,4.44,9,4.94,15.66.76,10.23,1.34,18-3.23,25.19-2.74,4.29-5.25,5.13-6.47,9.87-.56,2.16-.41,3.41-.34,11.24,0,5.7.07,8.55,0,9.53-.49,6.88-4.4,11.87-8.68,17.19-6.53,8.13-15.51,19.29-28.09,19.41C149,351.55,142.41,351.61,139,347.28Z"/><path class="cls-4" d="M185.43,256.9a9.26,9.26,0,0,0-2.21,6.13c-.52,10.27,11.48,33.81,15.83,32.17.3-.12.38-.28.85-.87,3.47-4.28,6-3.77,12.51-9.35a6.66,6.66,0,0,0,.83-.76c4.85-6.43-14.61-31.33-23.68-29.49A8.73,8.73,0,0,0,185.43,256.9Z"/><path class="cls-7" d="M211.41,219.23c2.56,4.28-1.63,11.05-2.59,12.59a11.6,11.6,0,0,0-1.48,2.73c-1,2.92.62,5,1.24,8,.78,3.76-.57,10.49-3.48,12-.39.19-.09.26-2.75-.42-1.39-.35-11.85-3-13.88-10.21-.87-3.09.53-4.47-1.11-8-1.35-2.93-2.73-2.89-2.77-4.43-.11-3.62,7.46-3.79,13.5-10.89,2.16-2.53,2.6-4.17,4.81-4.77A8.3,8.3,0,0,1,211.41,219.23Z"/><polyline class="cls-7" points="206.89 230.48 210.89 241.72 204.88 241.72"/><path class="cls-8" d="M204.63,227.23a12.43,12.43,0,0,0-4.14-.82,13.52,13.52,0,0,0-4.16.69,5.67,5.67,0,0,1,4.18-1.69A5.57,5.57,0,0,1,204.63,227.23Z"/><path class="cls-9" d="M197.48,230.55a11.87,11.87,0,0,0,2.3-.77c1.09-.5,1.38-.85,2.17-.89s1,.27,1.78.25a3.55,3.55,0,0,0,1.92-.64"/><path class="cls-9" d="M203.64,229.15a7.75,7.75,0,0,1-.07,1.49,8.74,8.74,0,0,1-.43,1.7"/><path class="cls-10" d="M206.71,246.25a1.5,1.5,0,0,0-.79-.43,1.65,1.65,0,0,0-1.08.26c-.64.32-1.24.2-2.44,0a8.17,8.17,0,0,1-4-2.39"/><path class="cls-11" d="M142.2,343.71c-.68,4.4,2.16,10.32,5.87,14a21.44,21.44,0,0,0,8.68,5.11c20,6.3,54.38-9.29,66.12,1.8,2.79,2.63,0,0,4.35,8.15,5.32,10,10.33,11.89,22.21,23.75,13.85,13.81,15.6,19.74,22.22,19.66,5.78-.07,12.37-4.69,12.25-8.43-.07-2.15-2.35-3.66-3.32-4.34-14.06-9.86-26.77-38-31.15-47.74a20.24,20.24,0,0,0-4.08-6.13,22,22,0,0,0-10-5.62c-21-6.07-33.33-18.2-57.19-16.85C163.82,327.93,143.74,333.72,142.2,343.71Z"/><path class="cls-6" d="M202.55,371.61H133.66a4.65,4.65,0,0,1-3.55-2,3.82,3.82,0,0,1-.61-2.16c.09-1.81,1.76-3.52,4.16-4.16h68.89a4.16,4.16,0,0,1,0,8.32Z"/><rect class="cls-6" x="163.2" y="371.61" width="11.81" height="48.35"/><rect class="cls-6" x="147.56" y="409.59" width="4.94" height="49.03" transform="translate(350.9 21.06) rotate(45)"/><circle class="cls-6" cx="130.51" cy="454.84" r="6.62"/><rect class="cls-6" x="185.72" y="409.59" width="4.94" height="49.03" transform="translate(628.21 607.99) rotate(135)"/><circle class="cls-6" cx="207.71" cy="454.84" r="6.62"/><rect class="cls-6" x="166.64" y="416.22" width="4.94" height="49.03" transform="translate(337.65 881.68) rotate(-179.93)"/><circle class="cls-6" cx="169.11" cy="466.58" r="6.62"/><path class="cls-6" d="M131.76,242.9a91.62,91.62,0,0,1,6.57,16.5c7.65,26.43-1.31,40.33-4,63.65-.14,1.16-.48,4.26-2.74,5.78a6.85,6.85,0,0,1-6.12.36c-5-2.12-5.68-11.05-6.06-16.54-3.36-48.46-1.36-40.07-2.31-58.17-.59-11.16-1.6-19,2.37-21.11,3-1.59,7.59,1,10.94,3.47"/><path class="cls-6" d="M123.88,320.39l2.56,51.22v1.89h0a6.42,6.42,0,0,0,6.13-6.7l-2.06-46.41H127.2"/><path class="cls-6" d="M708.83,365.74h68.89a4.72,4.72,0,0,0,3.56-2,4,4,0,0,0,.6-2.16c-.09-1.81-1.75-3.53-4.16-4.16H708.83a4.16,4.16,0,0,0,0,8.32Z"/><rect class="cls-6" x="736.37" y="365.74" width="11.81" height="48.35" transform="translate(1484.55 779.83) rotate(-180)"/><rect class="cls-6" x="758.88" y="403.71" width="4.94" height="49.03" transform="translate(1602.51 192.67) rotate(135)"/><circle class="cls-6" cx="780.87" cy="448.97" r="6.62"/><rect class="cls-6" x="720.73" y="403.71" width="4.94" height="49.03" transform="translate(514.62 -385.95) rotate(45)"/><circle class="cls-6" cx="703.67" cy="448.97" r="6.62"/><rect class="cls-6" x="739.8" y="410.35" width="4.94" height="49.03" transform="translate(-0.56 0.96) rotate(-0.07)"/><circle class="cls-6" cx="742.27" cy="460.7" r="6.62"/><path class="cls-6" d="M779.62,237a92.2,92.2,0,0,0-6.57,16.5c-7.65,26.44,1.31,40.33,4,63.66.14,1.16.48,4.25,2.74,5.78a6.81,6.81,0,0,0,6.12.35c5-2.11,5.68-11,6.06-16.53,3.36-48.46,1.36-40.08,2.31-58.18.59-11.16,1.6-19-2.37-21.1-3-1.59-7.59,1-10.94,3.46"/><path class="cls-6" d="M787.5,314.52l-2.56,51.22v1.88h0a6.41,6.41,0,0,1-6.13-6.7l2.06-46.4h3.32"/><path class="cls-2" d="M687.33,431.33c.76,3.87,2.06,6.95,1.76,10.89a4.13,4.13,0,0,1-.5,1.87c-.29.48-1.11,1.47-4.4,1-2.3-.31-2.92-.94-4.28-1.19-2.52-.46-4.25,1-6.41,2.22-4.62,2.59-4.47.31-17.62,2.89-2.82.55-4.32,1-5.28-.34-1.49-2-.9-7,1-9.87.64-1,2.1-2.7,8.42-3.24,8.78-.74,12.85,2,15.35-1.53a20,20,0,0,0,2.14-5.11c1-3.6.54-4.93,1.51-6.29a4.49,4.49,0,0,1,7.05.17C687.37,424.57,686.26,425.86,687.33,431.33Z"/><path class="cls-12" d="M687.33,431.33c.48,2.4,1.26,4.72,1.64,7.15a16.62,16.62,0,0,1,.18,3.66,4.49,4.49,0,0,1-.4,1.8,2.21,2.21,0,0,1-1.43,1.15c-2.43.62-5-.18-7.2-1a5.22,5.22,0,0,0-3.45.45c-1.09.51-2.08,1.22-3.16,1.83a10,10,0,0,1-3.5,1.32c-1.25.18-2.47.18-3.69.26a65.49,65.49,0,0,0-7.23.9c-1.2.19-2.39.44-3.59.67-.6.12-1.2.25-1.82.34a5.57,5.57,0,0,1-2,0A2.57,2.57,0,0,1,650,448.6a5.63,5.63,0,0,1-.61-1.9,11.31,11.31,0,0,1,.13-3.81,12.77,12.77,0,0,1,1.25-3.59,6.3,6.3,0,0,1,1.15-1.6,6.59,6.59,0,0,1,1.64-1.11,13.82,13.82,0,0,1,3.62-1.08,28.92,28.92,0,0,1,3.69-.41,43.36,43.36,0,0,1,7.39.28,26,26,0,0,0,3.61.21,4,4,0,0,0,3-1.36,10.9,10.9,0,0,0,1.69-3.14,28,28,0,0,0,1.1-3.47c.3-1.18.41-2.38.64-3.6a3.74,3.74,0,0,1,2.34-2.74,4.73,4.73,0,0,1,3.62.08,4,4,0,0,1,2.38,2.67c.23,1.22.08,2.44.19,3.66A29.68,29.68,0,0,0,687.33,431.33Zm0,0a27.71,27.71,0,0,1-.5-3.64c-.12-1.21,0-2.45-.22-3.64a4,4,0,0,0-2.35-2.59,4.6,4.6,0,0,0-3.53,0,3.48,3.48,0,0,0-2.17,2.64c-.2,1.19-.28,2.43-.55,3.63a28.86,28.86,0,0,1-1,3.55,11.33,11.33,0,0,1-1.69,3.32,4,4,0,0,1-1.52,1.19,5.92,5.92,0,0,1-1.88.44,25.37,25.37,0,0,1-3.71-.13,46.35,46.35,0,0,0-7.26-.1,28.59,28.59,0,0,0-3.59.42,13.5,13.5,0,0,0-3.37,1.05,5.05,5.05,0,0,0-1.38.95,5.17,5.17,0,0,0-1,1.38,11.52,11.52,0,0,0-1.12,3.32,10.74,10.74,0,0,0-.16,3.48c.16,1.1.6,2.29,1.56,2.46a10.52,10.52,0,0,0,3.44-.33c1.2-.23,2.41-.46,3.62-.65a62.26,62.26,0,0,1,7.34-.73c1.23-.05,2.46,0,3.63-.16a9.52,9.52,0,0,0,3.35-1.18c1.07-.56,2.08-1.26,3.23-1.76a5.66,5.66,0,0,1,3.69-.39,15.7,15.7,0,0,1,1.75.62,10.42,10.42,0,0,0,1.74.48,8.11,8.11,0,0,0,3.6,0,2.07,2.07,0,0,0,1.36-1.07,4.3,4.3,0,0,0,.4-1.74,16.49,16.49,0,0,0-.14-3.65C688.54,436.07,687.79,433.73,687.33,431.33Z"/><path class="cls-13" d="M733.08,319.12c-3.12-3.75-11.53-1.74-28.34,2.29-22.62,5.43-18.14,8.51-32.94,11-4,.67-10.65,1.5-13,6.13a10,10,0,0,0-.51,6.64c5,24.07,15.05,53.77,14.81,69.34-.06,4.54-.82,8.43,1.79,11,3.88,3.78,13.15,2.65,14.81-1,.68-1.51-.25-2.71-1-5.36-1.89-6.46.81-8.86,1-17.37.1-4-2.83-28.42-4.6-37.17-2.07-10.22-2.92-10.27-2.3-11.74,3.67-8.62,29.06,2.4,43.41-10.21C733.79,335.92,737,323.76,733.08,319.12Z"/><path class="cls-2" d="M708.53,444.15c.82,4.14,2.2,7.45,1.89,11.67a4.33,4.33,0,0,1-.54,2c-.31.52-1.19,1.58-4.72,1.1-2.46-.34-3.13-1-4.58-1.28-2.7-.49-4.55,1.07-6.87,2.37-4.94,2.78-4.79.34-18.87,3.1-3,.6-4.63,1-5.66-.36-1.59-2.15-1-7.51,1.08-10.58.69-1,2.26-2.89,9-3.46,9.4-.8,13.76,2.16,16.44-1.64A22,22,0,0,0,698,441.6c1.12-3.86.58-5.29,1.62-6.75,1.67-2.35,5.68-2.34,7.54.18C708.57,436.91,707.38,438.3,708.53,444.15Z"/><path class="cls-14" d="M708.53,444.15c.51,2.57,1.35,5.06,1.75,7.66a17.81,17.81,0,0,1,.2,3.93,4.77,4.77,0,0,1-.44,1.92,2.37,2.37,0,0,1-1.52,1.23c-2.61.66-5.31-.2-7.71-1a5.75,5.75,0,0,0-3.71.48c-1.16.54-2.23,1.31-3.38,2A10.77,10.77,0,0,1,690,461.7c-1.34.19-2.65.19-4,.28a69.77,69.77,0,0,0-7.75.95c-1.28.21-2.56.47-3.84.72-.65.13-1.29.26-2,.37a6,6,0,0,1-2.12,0,2.72,2.72,0,0,1-1.79-1.4,6.1,6.1,0,0,1-.65-2,12.34,12.34,0,0,1,.14-4.07,13.23,13.23,0,0,1,1.34-3.83,6.5,6.5,0,0,1,1.23-1.71,6.77,6.77,0,0,1,1.74-1.18,14.6,14.6,0,0,1,3.87-1.16,31,31,0,0,1,3.95-.44,47.26,47.26,0,0,1,7.9.29,26.87,26.87,0,0,0,3.87.23,4.27,4.27,0,0,0,3.28-1.46,11.91,11.91,0,0,0,1.82-3.37,32.25,32.25,0,0,0,1.17-3.73c.33-1.26.44-2.55.69-3.86a4,4,0,0,1,2.49-2.92,5,5,0,0,1,3.88.08,4.32,4.32,0,0,1,2.55,2.85,36.94,36.94,0,0,1,.2,3.93A32.08,32.08,0,0,0,708.53,444.15Zm0,0a29.82,29.82,0,0,1-.53-3.89c-.13-1.3,0-2.63-.24-3.91a4.24,4.24,0,0,0-2.52-2.77,5,5,0,0,0-3.78-.05,3.73,3.73,0,0,0-2.33,2.84c-.22,1.27-.3,2.6-.6,3.88a29.47,29.47,0,0,1-1.1,3.8,12.42,12.42,0,0,1-1.81,3.55,4.32,4.32,0,0,1-1.63,1.27,6.07,6.07,0,0,1-2,.46,27.54,27.54,0,0,1-4-.13,49.45,49.45,0,0,0-7.79-.12,30.72,30.72,0,0,0-3.84.46,14.1,14.1,0,0,0-3.62,1.11,5.15,5.15,0,0,0-2.53,2.51,12.76,12.76,0,0,0-1.21,3.57,11.51,11.51,0,0,0-.17,3.74c.17,1.18.65,2.47,1.7,2.67a11.22,11.22,0,0,0,3.69-.36c1.29-.24,2.58-.5,3.89-.69a64.43,64.43,0,0,1,7.85-.8c1.32-.05,2.63,0,3.9-.17a10.29,10.29,0,0,0,3.59-1.27c1.14-.6,2.23-1.35,3.46-1.89a6.08,6.08,0,0,1,3.94-.42,15.91,15.91,0,0,1,1.87.67,12,12,0,0,0,1.87.51,8.82,8.82,0,0,0,3.86,0,2.24,2.24,0,0,0,1.45-1.15,4.58,4.58,0,0,0,.44-1.87,17.65,17.65,0,0,0-.16-3.91C709.83,449.23,709,446.72,708.53,444.15Z"/><path class="cls-15" d="M757.53,325.3c-3.34-4-12.34-1.86-30.35,2.46-24.23,5.81-19.43,9.11-35.28,11.76-4.3.72-11.42,1.6-13.95,6.56a10.64,10.64,0,0,0-.55,7.11c5.32,25.79,16,56.18,15.72,72.85-.07,4.86-.88,9,1.92,11.76,4.15,4.05,14.08,2.84,15.86-1.09.73-1.62-.26-2.9-1.09-5.75-2-6.92.86-9.48,1.09-18.6.1-4.27-2.89-29-4.78-38.38-2.22-11-3.13-11-2.46-12.58,3.92-9.24,31.12,2.57,46.49-10.94C758.3,343.29,761.68,330.27,757.53,325.3Z"/><path class="cls-16" d="M709,256.94c-8.91,11.41-7.77,28.19-1.15,35.85,2.06,2.39,4.54,3.75,5.39,7.32,1.64,6.84-5.34,10.76-4.62,15.42,1.64,10.75,43.33,20,52.42,6.56,2.81-4.14-.18-6.45-.38-22-.25-19.53,4.38-23.61.77-33.92-.67-1.91-4.24-12.11-14.26-17.35C735.53,242.74,718.31,245.06,709,256.94Z"/><path class="cls-17" d="M709,256.94a31.8,31.8,0,0,0-3.82,6.58,33.41,33.41,0,0,0-2.08,7.32,34.57,34.57,0,0,0-.36,7.6,31,31,0,0,0,1.45,7.46,19.52,19.52,0,0,0,3.61,6.64c1.59,1.94,3.86,3.39,5,5.79a9.38,9.38,0,0,1,.15,7.56c-1,2.41-2.62,4.43-3.6,6.72a5,5,0,0,0-.27,3.54,7.86,7.86,0,0,0,2,3,23.93,23.93,0,0,0,6.34,4A59.51,59.51,0,0,0,732,327.43a57.85,57.85,0,0,0,15.09.63,29.28,29.28,0,0,0,7.31-1.66,13.22,13.22,0,0,0,5.94-4.18,6.22,6.22,0,0,0,1.41-3.2,17.12,17.12,0,0,0-.22-3.68c-.36-2.51-.73-5.06-.93-7.61a108.81,108.81,0,0,1-.15-15.32c.13-2.56.43-5.1.77-7.63s.8-5,1.08-7.55a23.94,23.94,0,0,0-.16-7.51,32.33,32.33,0,0,0-11.89-18.81,25.54,25.54,0,0,0-6.71-3.5,28,28,0,0,0-7.42-1.61,29.53,29.53,0,0,0-7.59.21,36.36,36.36,0,0,0-3.74.74c-.61.17-1.21.38-1.82.57-.3.1-.61.18-.91.29l-.88.36A29.35,29.35,0,0,0,709,256.94Zm0,0a29.26,29.26,0,0,1,12.11-9l.88-.37c.3-.11.61-.2.91-.3.61-.19,1.21-.4,1.83-.57a34,34,0,0,1,3.74-.77,37.3,37.3,0,0,1,3.8-.37,34.93,34.93,0,0,1,3.83.12,29,29,0,0,1,7.47,1.55,25.34,25.34,0,0,1,6.82,3.46,31,31,0,0,1,9.73,11.7,31.72,31.72,0,0,1,2.56,7.25,24.52,24.52,0,0,1,.27,7.69c-.26,2.56-.69,5.07-1,7.59s-.57,5-.69,7.57a107,107,0,0,0,.23,15.19c.21,2.53.58,5,1,7.55a18.09,18.09,0,0,1,.25,3.92,7.11,7.11,0,0,1-1.6,3.71,14.17,14.17,0,0,1-6.39,4.47,30.41,30.41,0,0,1-7.55,1.68,58.38,58.38,0,0,1-15.34-.71,59.19,59.19,0,0,1-14.66-4.47,24.7,24.7,0,0,1-6.46-4.21,8.21,8.21,0,0,1-2.14-3.28,5.44,5.44,0,0,1,.32-3.89c1.06-2.39,2.73-4.35,3.68-6.69a9,9,0,0,0-.05-7.27c-1-2.32-3.26-3.79-4.87-5.78a20.42,20.42,0,0,1-3.58-6.73,31.45,31.45,0,0,1-1.42-7.5,34.71,34.71,0,0,1,.4-7.62,32.66,32.66,0,0,1,2.12-7.32A31.6,31.6,0,0,1,709,256.94Z"/><rect class="cls-7" x="723.18" y="224.43" width="10.28" height="18.76"/><path class="cls-7" d="M716.88,196.41c-3,1.14-3,7.46-3.08,20.05,0,6.62.31,8.87,2.05,10.28,2.07,1.68,5.13,1.38,8.74,1,2.68-.26,5.15-.5,7.71-2.06,3.7-2.25,3-4.45,7.2-7.19,2.55-1.67,3.51-1.32,5.14-3.09,2-2.17,3.12-5.5,2.05-6.68-.23-.25-.5-.34-4.49-.77-2-.22-2.13-.21-2.32-.39-1.09-1,.12-3.3.48-8.48.18-2.47,0-3.19-.48-3.47-.81-.49-2,.62-3.56,1.45-4.8,2.62-10.58,1.45-13.5.87C718.56,197.09,718.32,195.86,716.88,196.41Z"/><path class="cls-16" d="M753.37,264.64c.42,2,1.07,4.92,1.93,8.48,3.28,13.59,5.12,17.44,3.08,21.59-1,2-2.84,3.27-6.55,5.78-4,2.71-7.2,4-17.35,7.71l-2.87,1.06"/><path class="cls-18" d="M753.37,264.64c1.35,5,2.55,10,4,14.94.69,2.48,1.36,5,1.9,7.51a20.41,20.41,0,0,1,.49,3.92,9,9,0,0,1-.89,3.95,9.24,9.24,0,0,1-2.66,3.05c-1,.81-2.11,1.53-3.18,2.25a35.87,35.87,0,0,1-6.79,3.8c-4.79,2-9.68,3.59-14.58,5.2l7.16-2.91c2.39-1,4.78-1.91,7.1-3a40.75,40.75,0,0,0,6.6-3.85c1.06-.73,2.12-1.46,3.09-2.25a8.3,8.3,0,0,0,2.36-2.74c1.16-2.19.9-4.77.41-7.25s-1.18-5-1.75-7.5-1.2-5-1.73-7.54S753.83,267.18,753.37,264.64Z"/><path class="cls-19" d="M720.65,315.4s0,.09,0,.13c-1.09,3,.19,7.13,2.7,8.48,2.29,1.22,4.6-.38,10-2.7,11.64-5,14.18-3.2,23.9-8.48,3.78-2.06,5.68-3.09,7.32-4.63,9.5-8.89,6.78-24,1.93-50.88-.47-2.61-1.22-6.43-4.24-9.64s-7.26-4-15.81-5.78c-9-1.83-13.46-2.75-18.89-1.93s-5.89,2.18-11.95,2.7c-6.68.57-8.55-.88-11.18.77-3.13,2-3.68,6-4.62,13.88-1.26,10.43.67,12.09-1.16,20.43-1.08,4.93-2,5.65-1.7,8.48.58,4.89,4,7.21,9.41,12.72,8.47,8.56,11,13.77,14.31,16.45a9.48,9.48,0,0,0,4.58,2.06c3.64.65,8.31,0,9.25-2.32.41-1,.13-2.3-2.87-5.88-1.09-1.31-2.54-2.91-4.45-4.91-10.16-10.62-13.29-11.46-15.42-17-2-5.06-1.46-9.85-1.16-12.72a33.49,33.49,0,0,1,4.24-13.11"/><path class="cls-20" d="M740.15,195.94c-.55-.45,1.26.48-3.61,2.52a20.48,20.48,0,0,1-10.32,1.42c-5.29-.72-7-3.34-10.79-2.35a7,7,0,0,0-4.11,2.57c-1.82,2.6-1,6.43,0,10.79.56,2.5,1,3.23.77,3.34-.67.36-7.59-6.17-6.68-13.62.73-6,6.12-9.42,6.68-9.77,3-1.82,6.15-2.18,11.82-2.82,4.78-.54,6.61-.17,9-1.8,2-1.39,1.88-2.46,4.37-4.63,1.1-1,4-3.51,7.19-3.85,5.74-.63,10.95,6.11,13.11,10.28,3,5.75,2.59,11.34,2.31,14.65-.56,6.75-2.63,7.45-4.62,15.93-1.84,7.86-2.78,18.86.26,20.05,1.43.55,3.74-1.09,4.88-2.57,1.77-2.3,1.22-4.82,1.8-4.89.82-.09,3.44,4.81,2,9.51-1.64,5.58-7.91,7.47-8.73,7.71-5.37,1.54-11.61-.32-14.91-4.37-3.45-4.23-2.94-9.95-2.31-17,.33-3.75.8-3.7,1-7.45.43-7.35-1.31-8.69-.77-13.37C739.44,198.73,740.87,196.52,740.15,195.94Z"/><path class="cls-21" d="M740.12,196a.52.52,0,0,1-.11-.1s.15-.09.08,0a.17.17,0,0,1,0,.07.56.56,0,0,1-.06.29,1.52,1.52,0,0,1-.32.46,4.35,4.35,0,0,1-.87.68,13.24,13.24,0,0,1-1.94,1,21.09,21.09,0,0,1-4.17,1.33,19.23,19.23,0,0,1-8.7-.13,34.1,34.1,0,0,1-4.12-1.46,6.79,6.79,0,0,0-4.16-.43,7.25,7.25,0,0,0-3.69,1.93,5.74,5.74,0,0,0-1.48,3.79,18,18,0,0,0,.42,4.25c.29,1.41.6,2.85,1,4.24l.29,1a8,8,0,0,1,.3,1.14c0,.05,0,.11,0,.17a.49.49,0,0,1-.16.27.43.43,0,0,1-.26.12.47.47,0,0,1-.2,0,1.46,1.46,0,0,1-.38-.14,4.11,4.11,0,0,1-.51-.34,8.93,8.93,0,0,1-.87-.74,19.31,19.31,0,0,1-2.78-3.48,14.81,14.81,0,0,1-2.47-8.51,13,13,0,0,1,3.59-8.08,16.56,16.56,0,0,1,3.43-2.86,14.82,14.82,0,0,1,4.14-1.65,71.69,71.69,0,0,1,8.69-1.19c1.46-.14,2.92-.19,4.35-.34a7.66,7.66,0,0,0,3.94-1.45c1.19-.79,1.85-2.12,2.87-3.21a22.73,22.73,0,0,1,3.34-2.86,13.1,13.1,0,0,1,3.94-2,7.72,7.72,0,0,1,4.39.09,16,16,0,0,1,7,5.23,25.08,25.08,0,0,1,4.42,7.56,24.79,24.79,0,0,1,1.36,8.67,29.67,29.67,0,0,1-1.18,8.71c-.45,1.41-1,2.74-1.55,4.09s-1,2.72-1.36,4.12a65.9,65.9,0,0,0-1.7,8.5,47.85,47.85,0,0,0-.49,8.61,10.11,10.11,0,0,0,.86,4,1.34,1.34,0,0,0,1.31.83,3.93,3.93,0,0,0,1.78-.68,7.23,7.23,0,0,0,2.69-3,7.9,7.9,0,0,0,.55-2c.06-.35.09-.69.17-1.11a2,2,0,0,1,.12-.37.77.77,0,0,1,.6-.47.94.94,0,0,1,.59.17,1.59,1.59,0,0,1,.3.25,6.74,6.74,0,0,1,1.21,2,12,12,0,0,1,.66,2.17,11.81,11.81,0,0,1,.09,4.55,9.8,9.8,0,0,1-1.86,4.16,12.63,12.63,0,0,1-3.37,3,16.84,16.84,0,0,1-4.1,1.85,14.65,14.65,0,0,1-4.47.54,15.3,15.3,0,0,1-8.44-2.78,11.77,11.77,0,0,1-4.85-7.39,30,30,0,0,1-.22-8.81c.13-1.46.26-2.9.44-4.36s.56-2.89.77-4.3a33,33,0,0,0,.06-8.66c-.19-1.43-.51-2.86-.58-4.33a21.87,21.87,0,0,1,.33-4.36c.21-1.45.48-2.88.79-4.3L740,198c.08-.35.17-.7.23-1.06S740.36,196.21,740.12,196Zm.06-.08c.31.3.21.74.17,1.08s-.14.72-.23,1.07l-.48,2.13q-.46,2.13-.75,4.29a21,21,0,0,0-.3,4.33,42.49,42.49,0,0,0,.64,4.3,32.94,32.94,0,0,1,.13,8.76c-.2,1.47-.56,2.87-.68,4.3s-.24,2.9-.33,4.34a30.34,30.34,0,0,0,.38,8.58,11.53,11.53,0,0,0,1.63,3.85,11,11,0,0,0,2.95,2.95,14.72,14.72,0,0,0,7.92,2.55,13.84,13.84,0,0,0,4.16-.51,15.94,15.94,0,0,0,3.83-1.74,10,10,0,0,0,4.75-6.52,11,11,0,0,0-.09-4.13,11.44,11.44,0,0,0-.61-2,6,6,0,0,0-1-1.71c-.08-.12-.24-.11,0-.12a.28.28,0,0,0,.22-.12l0,.15c-.06.3-.1.69-.16,1a8.82,8.82,0,0,1-.65,2.22,8.14,8.14,0,0,1-3.08,3.41,4.84,4.84,0,0,1-2.27.82,2.24,2.24,0,0,1-1.33-.35,2.84,2.84,0,0,1-.86-1,10.92,10.92,0,0,1-1-4.45,46.89,46.89,0,0,1,.56-8.79,66.14,66.14,0,0,1,1.83-8.58c.41-1.41.89-2.8,1.43-4.16s1.14-2.69,1.6-4.05a29.26,29.26,0,0,0,1.25-8.51,24.34,24.34,0,0,0-1.25-8.51,24.82,24.82,0,0,0-4.29-7.46,15.7,15.7,0,0,0-6.76-5.18,7.19,7.19,0,0,0-4.21-.09,13.05,13.05,0,0,0-3.83,1.94,22.59,22.59,0,0,0-3.26,2.83c-1,1-1.65,2.42-2.91,3.29a8.07,8.07,0,0,1-4.12,1.6c-1.46.18-2.91.25-4.35.41a73.65,73.65,0,0,0-8.58,1.32,14,14,0,0,0-3.91,1.63,16.57,16.57,0,0,0-3.22,2.76,12.16,12.16,0,0,0-3.33,7.56,14.42,14.42,0,0,0,2.34,8,17.69,17.69,0,0,0,2.62,3.35,8.25,8.25,0,0,0,.78.68,2.76,2.76,0,0,0,.39.27l.13.06H712c-.05,0-.06,0-.14.08a.24.24,0,0,0-.09.16,0,0,0,0,0,0,0,8.13,8.13,0,0,0-.25-1l-.29-1.07c-.34-1.44-.64-2.85-.9-4.3a19.13,19.13,0,0,1-.34-4.42,6.36,6.36,0,0,1,1.73-4.12,7.66,7.66,0,0,1,4-2,7.13,7.13,0,0,1,4.37.53,36.49,36.49,0,0,0,4.07,1.54,18.51,18.51,0,0,0,8.6.22,20.16,20.16,0,0,0,4.15-1.29,14,14,0,0,0,1.93-1,4.55,4.55,0,0,0,.85-.65,1.43,1.43,0,0,0,.31-.43.69.69,0,0,0,0-.24.13.13,0,0,0,0-.06c-.08,0,.08-.11.09-.07Z"/><path class="cls-22" d="M735.2,316.21c.66,1.4,0,0,.48.65,1.61,2.14,2.74,2.58,4.37,5.09,1.05,1.6,1.19,2.35,1.13,3-.1,1-.68,1.3-.78,2.46a6.06,6.06,0,0,0,.57,2.54,39,39,0,0,1,1.19,4A10.56,10.56,0,0,1,742,338a4.94,4.94,0,0,1-.84,2.2c-1.16,1.36-3.45,1-4.93.09-1.31-.83-1.95-2.2-3.17-4.91a28.16,28.16,0,0,1-2.61-8c-.33-2.22-.14-3.17-.91-4.49a28.38,28.38,0,0,1-2-3.05,14.5,14.5,0,0,1-.71-1.7"/><path class="cls-20" d="M735.2,316.21l.24.38.12.18s0,.06,0,0c-.23,0-.09.11-.13.07h0v0a.38.38,0,0,1,0-.15s0-.1.11-.1a.14.14,0,0,1,.09,0s0,0,.06,0l.09.09a1.22,1.22,0,0,1,.15.17l.28.33a16.18,16.18,0,0,0,1.21,1.27,17.93,17.93,0,0,1,2.45,2.62,17.09,17.09,0,0,1,1,1.5,4.84,4.84,0,0,1,.68,1.77,3.18,3.18,0,0,1-.41,1.9,2.82,2.82,0,0,0-.29,1.51,8.77,8.77,0,0,0,.44,1.62l.56,1.68.54,1.7a7.21,7.21,0,0,1,.35,1.84,11.23,11.23,0,0,1-.34,3.66,6.89,6.89,0,0,1-.62,1.82,2.93,2.93,0,0,1-1.66,1.26,5.14,5.14,0,0,1-3.8-.53,4.83,4.83,0,0,1-1.5-1.23,8.9,8.9,0,0,1-1-1.58c-.55-1.08-1-2.17-1.49-3.25a34.42,34.42,0,0,1-1.29-3.34,22.38,22.38,0,0,1-.83-3.51c-.19-1.18-.22-2.4-.37-3.52a4.26,4.26,0,0,0-.56-1.59c-.29-.5-.66-1-1-1.47a12.78,12.78,0,0,1-1.47-3.24,14.45,14.45,0,0,0,1.68,3.09c.34.47.74.91,1.08,1.42a5,5,0,0,1,.72,1.7c.22,1.2.27,2.36.51,3.51a21.84,21.84,0,0,0,.93,3.37c.39,1.09.88,2.15,1.36,3.23s1,2.16,1.51,3.18a5.14,5.14,0,0,0,2.14,2.4,4.26,4.26,0,0,0,3.06.42,2,2,0,0,0,1.11-.84,5.49,5.49,0,0,0,.52-1.53,10.42,10.42,0,0,0,.37-3.37,6.23,6.23,0,0,0-.3-1.64l-.51-1.69-.54-1.69a8.87,8.87,0,0,1-.45-1.81,3.54,3.54,0,0,1,.43-1.91,2.58,2.58,0,0,0,.41-1.49,7.82,7.82,0,0,0-1.46-3,21.83,21.83,0,0,0-2.27-2.67,16.65,16.65,0,0,1-1.16-1.36l-.27-.36a1.88,1.88,0,0,1-.12-.18l-.06-.09,0,0h0c.07,0,.09-.08.08-.06a.32.32,0,0,0,0,.07v0h0s.11.07-.13.1c-.07-.07,0-.05-.06-.08l-.07-.21Z"/><path class="cls-16" d="M750.43,261.55A86.25,86.25,0,0,0,753.74,273c3.15,8.58,6.24,12.66,4.6,17.62-.34,1-.88,2.07-2.81,4.34-2.86,3.37-14.92,10.92-22.78,15.49"/><path class="cls-23" d="M750.43,261.55a99.67,99.67,0,0,0,5.11,14.94c1,2.43,2.16,4.81,3,7.37a13.13,13.13,0,0,1,.74,4,9.16,9.16,0,0,1-1,4,19.48,19.48,0,0,1-2.38,3.29,21.8,21.8,0,0,1-3,2.7c-2.1,1.64-4.32,3.09-6.53,4.53-4.45,2.87-9,5.53-13.66,8.05,4.48-2.8,8.92-5.65,13.28-8.61,2.18-1.49,4.31-3,6.38-4.64a21.6,21.6,0,0,0,2.85-2.61,18.7,18.7,0,0,0,2.22-3.14,8.44,8.44,0,0,0,.82-3.61,12.78,12.78,0,0,0-.65-3.74c-.78-2.47-1.91-4.87-2.88-7.33s-1.84-5-2.58-7.52A73.4,73.4,0,0,1,750.43,261.55Z"/><path class="cls-22" d="M718.5,316.22c-1-.64-2.4-.66-5.25-.69-3.15,0-3.6.46-3.73.77a1.1,1.1,0,0,0,.23,1.07c.37.42.94.3,2,.38a9,9,0,0,1,2.21.38,34.58,34.58,0,0,0-6.16-.46c-4.1.14-7.7,1.34-9.21,3.22a8.26,8.26,0,0,0-1.06,1.83,4.11,4.11,0,0,0-.46,2.6,1.75,1.75,0,0,0,.61,1.15c.8.5,2.07-.47,3.65-1.3a17.63,17.63,0,0,1,6-1.91c2.61-.2,2.77,1,5.63,1.14,2.66.15,7.08-.61,7.83-3.21C721.37,319.41,720,317.24,718.5,316.22Z"/><path class="cls-20" d="M718.5,316.22a4.52,4.52,0,0,0-2-.57c-.71-.06-1.42-.06-2.13-.07a15.43,15.43,0,0,0-4.2.32.73.73,0,0,0-.59.69,1,1,0,0,0,.42.83,2,2,0,0,0,1,.16q.54,0,1.08,0a10,10,0,0,1,1.07.12l.53.09.27.06.14,0,.06,0s.16.17.12.22a.25.25,0,0,1-.1.14.27.27,0,0,1-.15,0h-.06c-.72-.09-1.41-.18-2.11-.24a23.29,23.29,0,0,0-8.33.63,10.38,10.38,0,0,0-3.67,1.7,6.81,6.81,0,0,0-2.07,3.33,2.62,2.62,0,0,0,0,1.79c.19.61.4.69,1,.5,1.18-.46,2.44-1.36,3.78-1.87a16.44,16.44,0,0,1,4.19-1.18,6.9,6.9,0,0,1,2.22,0,11,11,0,0,1,2.05.73,9.61,9.61,0,0,0,4.11.44,10.12,10.12,0,0,0,4-1.08,3.73,3.73,0,0,0,1.49-1.43,3,3,0,0,0,.26-2A5.84,5.84,0,0,0,718.5,316.22Zm0,0a5.85,5.85,0,0,1,2.42,3.41,3.05,3.05,0,0,1-.23,2.1,4,4,0,0,1-1.51,1.51,10.71,10.71,0,0,1-4.09,1.26,9.86,9.86,0,0,1-4.31-.28c-2.59-1.37-5.43-.34-7.95.73a16.14,16.14,0,0,0-1.85.95,15.6,15.6,0,0,1-2,1,1.79,1.79,0,0,1-1.39,0,1.66,1.66,0,0,1-.87-1.11,3.64,3.64,0,0,1-.2-1.2,3.86,3.86,0,0,1,.21-1.19,7.74,7.74,0,0,1,2.45-3.75,11.31,11.31,0,0,1,4-1.8,23.66,23.66,0,0,1,8.59-.3c.71.09,1.43.22,2.11.34h0a.2.2,0,0,0-.12,0,.17.17,0,0,0-.06.13s.09.23.1.2h0l-.11,0-.25-.07-.51-.11c-.35-.07-.69-.12-1-.16s-.7-.06-1.06-.07a2.11,2.11,0,0,1-1.08-.25,1.23,1.23,0,0,1-.47-1,.73.73,0,0,1,.22-.53,1.21,1.21,0,0,1,.49-.28,14.82,14.82,0,0,1,4.25-.26c.71,0,1.42,0,2.13.11A4.4,4.4,0,0,1,718.5,316.22Z"/><path class="cls-24" d="M722,204a12.57,12.57,0,0,0,2.68.13c2-.12,2.74-.67,4-.51a5,5,0,0,1,3.31,2.17"/><path class="cls-24" d="M718.25,204.23l-2-.38h0l-1.15.64"/><path class="cls-10" d="M719.53,210.87a7.2,7.2,0,0,1-1.15,2.94c-1.09,1.59-2.48,2.15-2.3,2.81.14.45.92.6,1.79.76a8.4,8.4,0,0,0,3.07,0"/><path class="cls-25" d="M716.34,219.43c.33-.49,1.51.1,3.7.25a15.48,15.48,0,0,0,3.83-.25c2.78-.58,4.16-1.9,4.47-1.54s-1.12,2.19-1.79,2.94a10.8,10.8,0,0,1-3.06,2.55c-1.61.87-4.68,1.92-5.75.77-.41-.45-.1-.77-.63-2.43S716.11,219.77,716.34,219.43Z"/><path class="cls-26" d="M716.34,219.43c.22-.28.61-.19.91-.16l1,.16a15.57,15.57,0,0,0,1.93.19,14.19,14.19,0,0,0,3.8-.47,14.55,14.55,0,0,0,3.49-1.52,4.27,4.27,0,0,1,.54-.22.76.76,0,0,1,.58.08.68.68,0,0,1,.29.6,2.54,2.54,0,0,1-.43,1.13,15,15,0,0,1-1.2,1.61,11.29,11.29,0,0,1-3,2.64,11.91,11.91,0,0,1-3.77,1.31,4.46,4.46,0,0,1-2-.08,1.54,1.54,0,0,1-.84-.6,2.61,2.61,0,0,1-.2-1,8.18,8.18,0,0,0-.45-1.88c-.11-.3-.24-.6-.37-.89S716.17,219.74,716.34,219.43Zm0,0c-.16.31.1.62.21.9s.28.59.4.89a9.15,9.15,0,0,1,.55,1.87,2.16,2.16,0,0,0,.24.88,1.27,1.27,0,0,0,.75.43,4.07,4.07,0,0,0,1.83-.12,11.62,11.62,0,0,0,3.42-1.54,12.82,12.82,0,0,0,2.71-2.55,15.53,15.53,0,0,0,1.15-1.48,3.24,3.24,0,0,0,.33-.64.27.27,0,0,0,.12.17c.13.06.15,0,.11,0l-.36.13a14.6,14.6,0,0,1-3.75,1.23,15.62,15.62,0,0,1-3.92.12,18,18,0,0,1-1.93-.3l-1-.17C717,219.25,716.56,219.16,716.34,219.43Z"/><path class="cls-27" d="M715.84,206.53c-.08,1-.17,2-.25,2.94a.62.62,0,0,0,.62.62.63.63,0,0,0,.63-.62c.08-1,.17-2,.25-2.94a.62.62,0,0,0-.62-.62.63.63,0,0,0-.63.62Z"/><path class="cls-28" d="M725.09,207.37c-.08,1-.17,2-.25,2.94a.62.62,0,0,0,.62.62.64.64,0,0,0,.63-.62c.08-1,.17-2,.25-2.94a.63.63,0,0,0-.62-.63.65.65,0,0,0-.63.63Z"/><rect class="cls-29" x="274.77" y="301.83" width="53.11" height="4.66"/><rect class="cls-29" x="328.94" y="251.97" width="4.34" height="54.64" transform="translate(62.53 -60.57) rotate(11.53)"/><rect class="cls-29" x="599.79" y="300.86" width="53.11" height="4.66" transform="translate(1252.69 606.39) rotate(-180)"/><rect class="cls-29" x="594.39" y="251" width="4.34" height="54.64" transform="translate(1236.73 431.73) rotate(168.47)"/><path class="cls-30" d="M531.94,217.57c3-27.19,6.8-49.34,11.24-49.36,6.55,0,9.78,48.39,16,48.34,8.61-.08,11.57-93,20.42-93.28s18.08,93.39,26.21,92.94c7.33-.4-5.33-76.16,34.39-108.26,17.93-14.49,41-15.64,56.85-14.64"/><polyline class="cls-10" points="507.6 88.69 507.6 224.43 697.05 224.43"/><ellipse class="cls-7" cx="374.38" cy="162.05" rx="6.83" ry="6.85"/><rect class="cls-7" x="381.2" y="175.24" width="13.39" height="13.44"/><ellipse class="cls-7" cx="388.03" cy="160.19" rx="13.66" ry="19.51"/><path class="cls-6" d="M368.32,142.77c2.31-4.13,5.76-5.75,10.25-7.84,4.79-2.24,8.12-3.8,12.27-3,4.42.88,5.85,3.7,11,3.65,2.34,0,3.31-.6,4.35.18,2.8,2.08,3.38,9.7.47,12.72-2.72,2.81-6.76-.22-12.89,0-9.09.32-10.35,10.53-18.64,10.62-.85,0-5.62.07-7.92-3.48C364.72,151.79,366.58,145.88,368.32,142.77Z"/><path class="cls-8" d="M368.32,142.77a13.93,13.93,0,0,1,4.87-5.1,58.41,58.41,0,0,1,6.34-3.27,31.77,31.77,0,0,1,6.66-2.57,11.93,11.93,0,0,1,7.1.64c2.23.92,4.19,2.35,6.5,2.65a13.27,13.27,0,0,0,3.45,0,14.43,14.43,0,0,1,1.83-.17,2.4,2.4,0,0,1,1,.25,3.41,3.41,0,0,1,.81.62,7.37,7.37,0,0,1,1.72,3.32,13.33,13.33,0,0,1,.43,3.66,11.69,11.69,0,0,1-.62,3.64,5.79,5.79,0,0,1-2.27,3.07,5.59,5.59,0,0,1-3.77.56c-1.22-.16-2.37-.44-3.53-.66a18.08,18.08,0,0,0-6.9-.27,12.17,12.17,0,0,0-5.93,3.34,57.9,57.9,0,0,1-5.23,4.88,9.71,9.71,0,0,1-6.85,1.87,11.6,11.6,0,0,1-3.48-.85,7.55,7.55,0,0,1-2.87-2.13,8.92,8.92,0,0,1-1.54-6.8A19.07,19.07,0,0,1,368.32,142.77Zm0,0a19.14,19.14,0,0,0-2.18,6.73,8.87,8.87,0,0,0,1.58,6.7A8.69,8.69,0,0,0,374,159a9.28,9.28,0,0,0,6.52-1.95,59.21,59.21,0,0,0,5.05-5,12.78,12.78,0,0,1,6.23-3.68,19,19,0,0,1,7.25.19c1.18.22,2.34.49,3.48.63a4.66,4.66,0,0,0,3.12-.46,4.76,4.76,0,0,0,1.89-2.55,10.12,10.12,0,0,0,.6-3.34,12.53,12.53,0,0,0-.36-3.4,6.58,6.58,0,0,0-1.47-2.95,1.76,1.76,0,0,0-1.27-.65,13.32,13.32,0,0,0-1.71.12,13.55,13.55,0,0,1-3.65-.14,12,12,0,0,1-3.43-1.23c-1.07-.55-2.07-1.17-3.14-1.63a11.43,11.43,0,0,0-6.85-.79,30.11,30.11,0,0,0-6.66,2.39,59.08,59.08,0,0,0-6.36,3.2A13.88,13.88,0,0,0,368.32,142.77Z"/><path class="cls-8" d="M397.46,156.36a2.76,2.76,0,0,1,.79,1,2.81,2.81,0,0,1,.21,1,2.46,2.46,0,0,1-.21,1.05,2.79,2.79,0,0,1-.79,1.05,2.86,2.86,0,0,1-.78-1.05,2.64,2.64,0,0,1-.22-1.05,2.74,2.74,0,0,1,1-2.09Z"/><path class="cls-8" d="M387.9,157.33a2.75,2.75,0,0,1,.78,1,2.64,2.64,0,0,1,.22,1.05,2.81,2.81,0,0,1-.21,1,.82.82,0,1,1-1.58,0,2.81,2.81,0,0,1-.21-1,2.64,2.64,0,0,1,.22-1.05A2.75,2.75,0,0,1,387.9,157.33Z"/><path class="cls-20" d="M393.59,161.52a11.35,11.35,0,0,0,.85,1.89c.33.6.78,1,1.2,1.8a1.23,1.23,0,0,1,0,.85,1.29,1.29,0,0,1-.49.63,4.18,4.18,0,0,1-.54.29,2.64,2.64,0,0,1-.56.19,3.3,3.3,0,0,1-2.22-.19,6.41,6.41,0,0,0,2-.54l.41-.24a2.37,2.37,0,0,0,.37-.26c.18-.18.17-.2.12-.38a6.69,6.69,0,0,0-.48-.8,4.68,4.68,0,0,1-.5-1A4.07,4.07,0,0,1,393.59,161.52Z"/><path class="cls-25" d="M397.35,168.73c-.46-.55-2,1.16-5.27,1.39-4.42.32-7.25-2.46-8-1.57-.57.69.74,2.77,1.91,3.95.4.41,2.67,2.71,5.67,2.32C395.63,174.32,398,169.52,397.35,168.73Z"/><path class="cls-20" d="M397.35,168.73a.42.42,0,0,0-.49-.06,4.14,4.14,0,0,0-.49.19l-1,.45a11.52,11.52,0,0,1-2,.69,10.4,10.4,0,0,1-4.27.15,26,26,0,0,1-4.07-1.22c-.3-.11-.66-.12-.6-.08s0,.22,0,.49a6.33,6.33,0,0,0,.93,1.7,9.18,9.18,0,0,0,2.93,2.69,5.42,5.42,0,0,0,3.83.74,6.77,6.77,0,0,0,3.52-2,8.35,8.35,0,0,0,1.23-1.71,4.83,4.83,0,0,0,.4-1A1.34,1.34,0,0,0,397.35,168.73Zm0,0a1.31,1.31,0,0,1,0,1,5.13,5.13,0,0,1-.39,1,9.33,9.33,0,0,1-1.15,1.78,7.15,7.15,0,0,1-3.51,2.43,6,6,0,0,1-4.35-.45,9.11,9.11,0,0,1-3.34-2.88,7,7,0,0,1-1-2,2.08,2.08,0,0,1-.08-.68,1,1,0,0,1,.4-.8,1.14,1.14,0,0,1,.84-.17,4.18,4.18,0,0,1,.59.16,26.47,26.47,0,0,0,3.91,1.55,9.44,9.44,0,0,0,6.15-.39l1-.43a4.09,4.09,0,0,1,.49-.18A.46.46,0,0,1,397.35,168.73Z"/><path class="cls-8" d="M396.22,152.7c0,.26.11.49.24.48a2.24,2.24,0,0,0,.49-.06,4.07,4.07,0,0,1,1.51-.11,2,2,0,0,1,1.41,1,2.35,2.35,0,0,1,.29,1.52,10.08,10.08,0,0,0-.9-1,1.77,1.77,0,0,0-1-.45c-.37-.08-.8-.05-1.31-.1a1.32,1.32,0,0,1-.86-.36A.63.63,0,0,1,396.22,152.7Z"/><path class="cls-8" d="M388.81,153.34a3.56,3.56,0,0,1-.83,2A4,4,0,0,1,386,156.6a5.72,5.72,0,0,0-1.77.58,2.41,2.41,0,0,0-.61,1.73,2,2,0,0,1,0-2.25,2.29,2.29,0,0,1,1-.71c.36-.13.7-.2,1-.31a4.62,4.62,0,0,0,1.68-.82A7.58,7.58,0,0,0,388.81,153.34Z"/><path class="cls-6" d="M405.38,419.43a23,23,0,0,1-.24,7c-.4,2.15-.81,2.53-1.62,5.57-1.15,4.32-2,7.68-.46,9.06.57.51,1.27.58,2.55.7,2.1.2,3.36-.39,4.86-.7s3.35-.06,6.94.46,6.25,1.18,7.18,1.4c0,0,12.48,2.93,24.3-1.16a4.81,4.81,0,0,0,2.78-2.09c.78-1.45.62-3.6-.46-4.42s-3,.13-4.86.7c-3.49,1.08-6.65.26-13-1.39-8.34-2.18-8.46-4.49-14.12-4.65-3-.08-4.88.53-6-.7-1.65-1.78-.27-5.75,1.15-8.82"/><path class="cls-8" d="M405.38,419.43a22.53,22.53,0,0,1-.29,7.85c-.29,1.29-.79,2.51-1.12,3.77s-.65,2.54-.93,3.81a17.4,17.4,0,0,0-.53,3.83,3.32,3.32,0,0,0,.43,1.73,1.87,1.87,0,0,0,1.43.84,10.22,10.22,0,0,0,3.78,0c.62-.13,1.24-.33,1.89-.49a8.32,8.32,0,0,1,2-.25,36.58,36.58,0,0,1,4,.37c1.3.18,2.6.37,3.9.6s2.59.49,3.88.79a38.46,38.46,0,0,0,3.83.7,50.79,50.79,0,0,0,15.52-.28,37,37,0,0,0,3.78-.87l1.86-.57a5.47,5.47,0,0,0,1.59-.83,3.58,3.58,0,0,0,1.27-3.09,2.62,2.62,0,0,0-.56-1.54,1.48,1.48,0,0,0-1.39-.43,38.64,38.64,0,0,0-3.7,1.12,11.79,11.79,0,0,1-4,.32,46.52,46.52,0,0,1-7.76-1.65,38.94,38.94,0,0,1-7.46-2.64c-1.2-.57-2.34-1.22-3.54-1.66a12.33,12.33,0,0,0-3.77-.7c-1.3-.09-2.59,0-3.93,0a3.58,3.58,0,0,1-2-.5,2.69,2.69,0,0,1-1.07-1.72,8.42,8.42,0,0,1,.43-3.93,27.52,27.52,0,0,1,1.49-3.64,27,27,0,0,0-1.34,3.68,8.08,8.08,0,0,0-.32,3.83,2.37,2.37,0,0,0,1,1.51,3.21,3.21,0,0,0,1.8.39c1.29,0,2.61-.17,3.94-.12a12.67,12.67,0,0,1,3.94.66c1.27.44,2.43,1.08,3.62,1.61a38.68,38.68,0,0,0,7.39,2.48,51.28,51.28,0,0,0,7.63,1.53,10.73,10.73,0,0,0,3.75-.32,33.9,33.9,0,0,1,3.82-1.16,2.88,2.88,0,0,1,1.16.06,2.19,2.19,0,0,1,1,.65,3.54,3.54,0,0,1,.8,2.09,5,5,0,0,1-.31,2.13,4.09,4.09,0,0,1-1.29,1.77,6.28,6.28,0,0,1-1.87,1l-1.91.6a36.25,36.25,0,0,1-3.87.91,51.5,51.5,0,0,1-15.82.2,36.9,36.9,0,0,1-3.91-.74c-1.27-.3-2.55-.56-3.83-.8s-2.57-.42-3.87-.62a32.16,32.16,0,0,0-3.85-.43,14.85,14.85,0,0,0-3.79.65,10.76,10.76,0,0,1-4,0,3.17,3.17,0,0,1-1-.35,2.39,2.39,0,0,1-.79-.79,3.78,3.78,0,0,1-.49-2,17.22,17.22,0,0,1,.61-3.95c.33-1.28.68-2.54,1.05-3.8s.9-2.48,1.22-3.74A23.1,23.1,0,0,0,405.38,419.43Z"/><path class="cls-6" d="M373.52,422.21a22.57,22.57,0,0,1-.23,7c-.41,2.16-.81,2.54-1.62,5.58-1.15,4.32-2,7.68-.46,9.06.57.51,1.27.57,2.55.69a13.69,13.69,0,0,0,4.86-.69c1.55-.33,3.35-.07,6.94.46s6.25,1.18,7.18,1.4c0,0,12.48,2.92,24.3-1.17a4.76,4.76,0,0,0,2.78-2.09c.78-1.44.62-3.59-.46-4.41s-3,.12-4.87.7c-3.48,1.08-6.64.25-13-1.4-8.34-2.17-8.46-4.49-14.12-4.64-3-.09-4.88.53-6-.7-1.64-1.78-.26-5.76,1.16-8.83"/><path class="cls-8" d="M373.52,422.21a22.29,22.29,0,0,1-.28,7.85c-.3,1.3-.79,2.52-1.12,3.78s-.65,2.54-.93,3.81a17.4,17.4,0,0,0-.53,3.83,3.32,3.32,0,0,0,.43,1.73,1.87,1.87,0,0,0,1.42.84,10.27,10.27,0,0,0,3.79,0c.62-.14,1.24-.33,1.89-.49a8.32,8.32,0,0,1,2-.25,32.35,32.35,0,0,1,4,.37c1.3.18,2.6.37,3.9.6s2.59.49,3.88.78a33.46,33.46,0,0,0,3.83.7,50.17,50.17,0,0,0,15.52-.28,37,37,0,0,0,3.78-.86L417,444a5.49,5.49,0,0,0,1.59-.84,3.52,3.52,0,0,0,1.26-3.09,2.52,2.52,0,0,0-.55-1.53,1.44,1.44,0,0,0-1.39-.43,38.44,38.44,0,0,0-3.7,1.11,11.8,11.8,0,0,1-4.05.33,46.52,46.52,0,0,1-7.76-1.65,39,39,0,0,1-7.46-2.65c-1.2-.57-2.34-1.21-3.54-1.66a13,13,0,0,0-3.77-.7c-1.3-.08-2.59,0-3.93,0a3.56,3.56,0,0,1-2-.5,2.69,2.69,0,0,1-1.07-1.72,8.42,8.42,0,0,1,.43-3.93,27.65,27.65,0,0,1,1.49-3.65,29.14,29.14,0,0,0-1.35,3.69,8.21,8.21,0,0,0-.31,3.83,2.37,2.37,0,0,0,1,1.51,3.29,3.29,0,0,0,1.8.39c1.29,0,2.61-.17,3.94-.13a13.28,13.28,0,0,1,3.94.66c1.27.45,2.43,1.08,3.62,1.62a38.45,38.45,0,0,0,7.39,2.48,52.59,52.59,0,0,0,7.63,1.53,11,11,0,0,0,3.75-.32,36,36,0,0,1,3.82-1.17,3.08,3.08,0,0,1,1.16.07,2.19,2.19,0,0,1,1,.65,3.54,3.54,0,0,1,.8,2.09,5,5,0,0,1-.31,2.13,4.15,4.15,0,0,1-1.3,1.77,6.11,6.11,0,0,1-1.86,1l-1.91.6a36.25,36.25,0,0,1-3.87.91,51.56,51.56,0,0,1-15.83.19,36.69,36.69,0,0,1-3.9-.73c-1.27-.3-2.55-.57-3.83-.8s-2.57-.43-3.87-.62a32.09,32.09,0,0,0-3.86-.43,14.85,14.85,0,0,0-3.78.65,11,11,0,0,1-4,0,2.9,2.9,0,0,1-1-.36,2.22,2.22,0,0,1-.79-.79,3.74,3.74,0,0,1-.49-2,17.22,17.22,0,0,1,.61-3.94c.33-1.28.68-2.54,1.05-3.8s.9-2.48,1.22-3.74A22.92,22.92,0,0,0,373.52,422.21Z"/><rect class="cls-1" x="378.54" y="188.68" width="23.15" height="95.32"/><path class="cls-8" d="M401.69,284l-23.15.19h-.19V284l-.23-47.66L378,188.68v-.5h.5l23.15,0h.46v.47q0,23.91-.16,47.79Zm0,0-.31-47.79q-.15-23.81-.16-47.53l.47.46-23.15,0,.5-.5L379,236.34,378.73,284l-.19-.19Z"/><polygon class="cls-31" points="370.38 295.85 370.38 430.11 387.31 430.11 394.6 307 401.69 430.11 417.43 430.11 417.43 300.16 417.43 280.98 372.06 280.98 370.38 295.85"/><path class="cls-8" d="M370.38,295.85l.21,134.26-.21-.21,16.93,0-.25.23L394.16,307H395l1.83,30.78,1.74,30.78,3.45,61.56-.36-.34,15.74,0-.34.33L417.33,281l.1.1L372.06,281l0,0Zm0,0L372,281v0h0l45.37-.08h.1v.1l.24,149.13v.34h-.34l-15.74,0h-.34l0-.35-3.65-61.55-1.8-30.78L394.16,307H395l-7.48,123.11,0,.22h-.22l-16.93,0h-.22v-.22Z"/><path class="cls-22" d="M503.71,183.85a10.53,10.53,0,0,0,1.7-3.61,26.89,26.89,0,0,0,1.51-7.45c.09-1.76,0-3,.46-3.2s1,.44,1.31,1,.24,1,0,2.72c-.31,2.24-.49,2.8-.13,3.41a1.69,1.69,0,0,0,1.24.83c.82.07,1.48-.69,1.77-1,1.12-1.32,7.31-8.93,9.18-11.07a2.74,2.74,0,0,1,1.84-1.11c1.36,0,2.42,1.63,2.88,2.37a10.4,10.4,0,0,1,1.38,6.47,11.12,11.12,0,0,1-1.71,4.66c-1.51,2.46-2.54,2.23-5.24,5.08-3,3.2-2.5,4.27-4.85,5.71-.18.11-1.76.74-4.92,2-2.42,1-2.7,1.08-3.21,1.05-2.84-.2-5.49-4.12-4.78-6.13C502.38,184.91,502.84,184.94,503.71,183.85Z"/><path class="cls-20" d="M503.71,183.85a17.16,17.16,0,0,0,2.21-5.36,24.83,24.83,0,0,0,.93-5.74c0-.48,0-1,0-1.46a4.77,4.77,0,0,1,.16-1.48.58.58,0,0,1,.29-.33.69.69,0,0,1,.45,0,1.73,1.73,0,0,1,.62.47,2.2,2.2,0,0,1,.62,1.39,21.71,21.71,0,0,1-.26,2.94c-.08.95-.44,2,.21,2.6a1.27,1.27,0,0,0,1.08.41,2.06,2.06,0,0,0,1.06-.68c.6-.72,1.22-1.51,1.82-2.26l3.67-4.55,3.7-4.52a4.47,4.47,0,0,1,1.19-1.08,2.22,2.22,0,0,1,1.77-.24,4.93,4.93,0,0,1,2.4,2.12,10.91,10.91,0,0,1,.11,11.56,9,9,0,0,1-1.9,2.37c-.78.66-1.58,1.17-2.31,1.8a20.19,20.19,0,0,0-3.82,4.27,7.71,7.71,0,0,1-1.92,2.28,6.81,6.81,0,0,1-.63.41c-.22.11-.45.19-.68.28l-1.37.54c-1.83.7-3.62,1.45-5.47,2.08a2.38,2.38,0,0,1-1.47-.05,4.67,4.67,0,0,1-1.34-.62,7.35,7.35,0,0,1-2-2.12,4.91,4.91,0,0,1-.84-2.77,2.23,2.23,0,0,1,.17-.71,1.94,1.94,0,0,1,.48-.55A6.68,6.68,0,0,0,503.71,183.85Zm0,0a6.33,6.33,0,0,1-1,1,1.54,1.54,0,0,0-.46.55,2.05,2.05,0,0,0-.17.7,4.88,4.88,0,0,0,.87,2.72,7.21,7.21,0,0,0,2,2.07,4.77,4.77,0,0,0,1.3.59,2.24,2.24,0,0,0,1.4,0c1.82-.65,3.59-1.48,5.37-2.22l1.33-.57c.22-.1.45-.19.66-.3a6,6,0,0,0,.58-.41,7.27,7.27,0,0,0,1.75-2.22,20.51,20.51,0,0,1,3.79-4.52c.73-.67,1.55-1.25,2.24-1.86a8.84,8.84,0,0,0,1.68-2.22,10,10,0,0,0-.21-10.58,4,4,0,0,0-1.83-1.74c-.69-.24-1.4.26-2,1l-3.76,4.47-3.79,4.44c-.64.74-1.24,1.47-1.92,2.22a2.53,2.53,0,0,1-1.39.81,1.9,1.9,0,0,1-1.94-1.34,2.24,2.24,0,0,1-.05-.81c0-.5.13-1,.21-1.46a21.88,21.88,0,0,0,.35-2.86,1.86,1.86,0,0,0-.51-1.23c-.26-.33-.8-.7-1-.25a4.52,4.52,0,0,0-.19,1.4l-.06,1.46a24.41,24.41,0,0,1-1,5.75A17.34,17.34,0,0,1,503.71,183.85Z"/><path class="cls-32" d="M395,185.88l5.7,135s28.24-2.55,28.24,0,.74-102.9,0-104.3S395,185.88,395,185.88Z"/><path class="cls-8" d="M395,185.88l6.15,135-.49-.43c7.43-.63,14.86-1.21,22.36-1.17.93,0,1.87,0,2.82.13a9.36,9.36,0,0,1,2.91.59,1.44,1.44,0,0,1,.42.3.81.81,0,0,1,.19.29.65.65,0,0,1,.05.2v.11c-.43,0,1,0-1,0v-2.09l0-2.79.1-11.17.29-44.69.06-22.35,0-11.17-.06-5.58-.07-2.79c0-.46,0-.93-.07-1.37,0-.11,0-.23-.05-.24l-.21-.23A5.1,5.1,0,0,0,428,216c-5.34-5.15-10.9-10.14-16.4-15.15Zm0,0,16.79,14.75,8.36,7.42c2.77,2.49,5.55,5,8.23,7.57a6.7,6.7,0,0,1,.51.54l.25.29a.91.91,0,0,1,.11.43c.05.48.06.94.09,1.41l.07,2.8.08,5.59.08,11.17,0,22.35-.1,44.69-.05,11.18V321c-1.94,0-.54,0-1-.06v0s0,0,0,0,0,0,0,0a.69.69,0,0,0-.15-.09,8.89,8.89,0,0,0-2.55-.48c-.92-.07-1.84-.1-2.76-.11-7.41-.07-14.86.48-22.26,1.07l-.48,0v-.47Z"/><rect class="cls-20" x="388.22" y="245.21" width="54.7" height="37.28" transform="translate(97.79 639.79) rotate(-82.2)"/><path class="cls-8" d="M430.35,293.48l-18.41-2.34-18.56-2.39-.33,0,0-.33,3.58-27.12,3.63-27.11.06-.49.5.06,36.92,5.13.43.06-.06.42-3.88,27.19Zm0,0,3.45-27.24,3.5-27,.36.48-36.94-5,.57-.42-3.74,27.09-3.8,27.09-.28-.38Z"/><path class="cls-32" d="M361,265v52H381.2V185l-19.09,32.29s-2.78,42.51-2.55,41.58S361,265,361,265Z"/><path class="cls-8" d="M361,265l.14,52-.14-.15,20.25-.1L381,317l-.17-33-.07-33,0-33,.12-33,.6.17L362.22,217.4v-.06l-1.61,24-.76,12-.18,3-.08,1.5,0,.75a2.1,2.1,0,0,1,0,.32s0-.07.07-.08.05,0,.07.07.05.11.08.17C360.31,261,360.6,263,361,265Zm0,0c-.36-2-.66-4-1.21-5.88a.87.87,0,0,0-.07-.17c0-.07-.08-.07-.09,0v0c-.05,0,0,0,0,0v-.33l0-.75.07-1.5.17-3,.71-12,1.46-24v0l0,0,18.93-32.39.59-1V185l.13,33,0,33-.07,33-.17,33v.25h-.25l-20.25-.1h-.14V317Z"/><path class="cls-22" d="M388,270.3A18.41,18.41,0,0,0,398.1,272a7.2,7.2,0,0,0,3.47-1.05c.72-.48,2.31-1.79,3.47-8.71.85-5,1.27-7.51,0-8.71-1.52-1.45-4.33-.78-7.63,0a26.46,26.46,0,0,0-7.64,3.14"/><path class="cls-20" d="M388,270.3a19.09,19.09,0,0,0,11.79,1.06,4.4,4.4,0,0,0,2.3-1.47,9.5,9.5,0,0,0,1.26-2.6,35.9,35.9,0,0,0,1.3-5.87,30,30,0,0,0,.68-5.93,2.94,2.94,0,0,0-.35-1.26,2.18,2.18,0,0,0-.95-.79,5.69,5.69,0,0,0-2.78-.26,32.62,32.62,0,0,0-11.51,3.53,25.45,25.45,0,0,1,5.45-2.78,28.32,28.32,0,0,1,2.95-.86,27.3,27.3,0,0,1,3-.66,6,6,0,0,1,3.23.24,2.93,2.93,0,0,1,1.35,1.12,3.63,3.63,0,0,1,.5,1.64,14.81,14.81,0,0,1-.14,3.14c-.13,1-.29,2-.45,3a37.11,37.11,0,0,1-1.43,6,10.28,10.28,0,0,1-1.44,2.84A4.88,4.88,0,0,1,400,272.1a17.14,17.14,0,0,1-6.18.15A19.56,19.56,0,0,1,388,270.3Z"/><path class="cls-32" d="M381.2,186.67a103.9,103.9,0,0,0-16.08,8.71c-11.82,7.83-14.66,13.26-15.63,15.33a31,31,0,0,0-1.73,4.88c-2.42,8.22-2.78,11.42-3.46,20.33-.66,8.43-1.1,17.7.68,23.23a8.08,8.08,0,0,0,2.43,3.83c1.83,1.52,4,1.52,4.86,1.74a144.65,144.65,0,0,0,29.51,4.88c1.28.07,2.41,1.11,3.82.7,4.31-1.26,6.88-11,3.47-15-1.27-1.48-3-1.75-4.86-2.09-8.56-1.58-20.85-3.85-23.26-9.41-.4-.92-.52-1.93,1-7.66a135.46,135.46,0,0,1,5.9-17.07"/><path class="cls-8" d="M381.2,186.67a99.81,99.81,0,0,0-22.11,13.4,35.9,35.9,0,0,0-8.63,9.45,26.48,26.48,0,0,0-2.31,6c-.6,2.08-1.17,4.16-1.64,6.26a85.55,85.55,0,0,0-1.67,12.8c-.34,4.31-.64,8.62-.66,12.93a62.62,62.62,0,0,0,.28,6.43,21.34,21.34,0,0,0,1.39,6.16,7.47,7.47,0,0,0,1.77,2.45,6.29,6.29,0,0,0,2.67,1.33,14.68,14.68,0,0,0,1.55.29c.59.09,1.1.25,1.63.38l3.14.77c4.2,1,8.43,1.86,12.69,2.53q3.19.49,6.41.83c1.07.12,2.15.21,3.22.3l1.61.12.81.05a5.61,5.61,0,0,1,.86.08c1.2.25,2.11.87,3,.72a4.53,4.53,0,0,0,2.39-1.57,12.26,12.26,0,0,0,2.43-5.69,10.13,10.13,0,0,0-.62-6.08,3,3,0,0,0-.39-.64,3.33,3.33,0,0,0-.46-.59,4.63,4.63,0,0,0-1.2-.86,11.26,11.26,0,0,0-3-.85,126.41,126.41,0,0,1-12.69-2.88,34.44,34.44,0,0,1-6.09-2.37,10.45,10.45,0,0,1-4.81-4.44,3.31,3.31,0,0,1-.28-1.69,12.68,12.68,0,0,1,.22-1.64c.21-1.07.48-2.12.77-3.17q.84-3.13,1.85-6.23c1.33-4.12,2.86-8.18,4.58-12.14-1.64,4-3.09,8.08-4.35,12.21-.62,2.07-1.2,4.16-1.73,6.25-.26,1.05-.51,2.1-.69,3.16a5.17,5.17,0,0,0,.07,3.05,10.1,10.1,0,0,0,4.63,4.14,34.74,34.74,0,0,0,6,2.27,128.13,128.13,0,0,0,12.65,2.72,12,12,0,0,1,3.22.89,5.26,5.26,0,0,1,1.43,1,5.11,5.11,0,0,1,.55.68,3.8,3.8,0,0,1,.46.74,10.92,10.92,0,0,1,.74,6.61,13.25,13.25,0,0,1-2.61,6.12,5.31,5.31,0,0,1-2.94,1.89c-1.34.18-2.37-.58-3.28-.72a5.3,5.3,0,0,0-.75-.06l-.81,0-1.63-.11c-1.08-.09-2.16-.18-3.24-.29q-3.24-.33-6.47-.82-6.43-1-12.77-2.5l-3.16-.79c-.53-.12-1.05-.29-1.53-.36s-1.09-.17-1.64-.31a7.35,7.35,0,0,1-3.07-1.56,8.36,8.36,0,0,1-2-2.77,22.36,22.36,0,0,1-1.45-6.46,64.92,64.92,0,0,1-.26-6.53c0-4.35.36-8.68.7-13a81.71,81.71,0,0,1,1.79-12.9c.5-2.12,1.1-4.21,1.72-6.28a27.27,27.27,0,0,1,2.43-6.09,36.41,36.41,0,0,1,8.87-9.52A100.12,100.12,0,0,1,381.2,186.67Z"/><path class="cls-32" d="M394.6,185.28a187.17,187.17,0,0,1,19.82,7.66c5.19,2.36,9.05,4.42,15.28,5.58a50,50,0,0,0,11.11.69c9.44-.23,18.74-.46,28.47-3.48,18.56-5.76,21.88-16.47,29.86-13.94,6.6,2.1,11.25,11.64,9,17.42-1,2.71-5.8,4.63-15.27,8.37-20.83,8.2-23,9-27.78,10.45-8.42,2.53-12.63,3.79-16,4.18-6.3.73-19.19.74-36.07-10.45"/><path class="cls-8" d="M394.6,185.28q7,2.21,13.83,4.94,3.4,1.36,6.76,2.87c2.23,1,4.44,2,6.72,2.92a42,42,0,0,0,14.22,2.89c2.44.07,4.88,0,7.32-.1s4.89-.18,7.32-.34a86.6,86.6,0,0,0,14.45-2.07,55.38,55.38,0,0,0,19.77-9c2-1.39,3.89-2.93,6-4.31a14.86,14.86,0,0,1,3.37-1.72,9.32,9.32,0,0,1,1.9-.41c.33,0,.66,0,1,0a3.48,3.48,0,0,1,1,.11,10.3,10.3,0,0,1,3.57,1.39,14.5,14.5,0,0,1,2.9,2.44,18.08,18.08,0,0,1,3.79,6.47,15.06,15.06,0,0,1,.73,3.71,9.82,9.82,0,0,1-.4,3.8,4.28,4.28,0,0,1-.94,1.77,7.69,7.69,0,0,1-1.45,1.3,22,22,0,0,1-3.26,1.86c-2.23,1.06-4.51,2-6.78,2.88l-13.68,5.36c-4.56,1.77-9.11,3.58-13.76,5.17-2.33.79-4.69,1.44-7,2.14s-4.7,1.38-7.07,2a38.14,38.14,0,0,1-14.65,1.14,51.89,51.89,0,0,1-14.2-3.75,71.44,71.44,0,0,1-12.9-7,71.91,71.91,0,0,0,13,6.77A51.79,51.79,0,0,0,440.18,222a37.85,37.85,0,0,0,14.44-1.26c2.35-.63,4.69-1.34,7-2.05s4.69-1.4,7-2.2c4.6-1.62,9.14-3.47,13.7-5.24l13.65-5.4c2.27-.92,4.53-1.83,6.71-2.88a22.12,22.12,0,0,0,3.12-1.78,4.8,4.8,0,0,0,2-2.59,9.07,9.07,0,0,0,.35-3.45,14.25,14.25,0,0,0-.7-3.47,17,17,0,0,0-3.59-6.1,13.61,13.61,0,0,0-2.69-2.28A9.59,9.59,0,0,0,498,182a2.71,2.71,0,0,0-.85-.1c-.28,0-.57,0-.85,0a8.14,8.14,0,0,0-1.68.37,13.55,13.55,0,0,0-3.15,1.6c-2,1.32-3.92,2.87-6,4.27a57.74,57.74,0,0,1-6.28,3.9,56.87,56.87,0,0,1-13.82,5.17,80.88,80.88,0,0,1-14.6,2c-2.45.14-4.9.22-7.35.27s-4.9.14-7.36,0a42.48,42.48,0,0,1-14.38-3.05c-2.28-.93-4.48-2-6.7-3.05s-4.44-2-6.7-3Q401.57,187.59,394.6,185.28Z"/><circle class="cls-33" cx="243.25" cy="126.31" r="34.29"/><path class="cls-3" d="M275.86,126.31a32.6,32.6,0,0,1-32.61,32.6c-.52,0-1,0-1.55,0V126.31L230.32,96.36a32.63,32.63,0,0,1,45.54,30Z"/><path class="cls-34" d="M241.7,126.31v32.56c-.6,0-1.2-.07-1.8-.13a32.61,32.61,0,0,1-11.49-61.48c.63-.32,1.26-.62,1.91-.9Z"/><path class="cls-25" d="M230.32,96.36c-.65.28-1.28.58-1.91.9Z"/><path class="cls-35" d="M241.7,158.87c-.6,0-1.2-.07-1.8-.13"/><path class="cls-6" d="M245,109.88c-.17,2.82-.52,5.6-.92,8.36-.19,1.39-.43,2.77-.66,4.14s-.51,2.75-.76,4.12l-1.2-1.15c2.21-.57,4.45-1.06,6.67-1.59s4.46-1,6.7-1.47,4.49-.91,6.74-1.33,4.51-.81,6.79-1.12c-2.17.77-4.36,1.44-6.55,2.11s-4.39,1.3-6.6,1.91-4.41,1.19-6.63,1.77-4.43,1.13-6.66,1.64l-1.53.35.33-1.51c.3-1.36.56-2.73.89-4.09s.64-2.72,1-4.07C243.31,115.24,244.07,112.54,245,109.88Z"/></g><g id="Слой_2-2" data-name="Слой 2"><rect class="cls-31" x="221.67" y="306.49" width="451.26" height="12.08" rx="6.04"/><polyline class="cls-31" points="251.01 318.57 221.67 459.38 229.85 459.38 261.78 318.57"/><polyline class="cls-31" points="643.56 318.57 672.91 459.38 664.72 459.38 632.8 318.57"/></g></g></svg>