<svg width="333" height="367" viewBox="0 0 333 367" fill="none" xmlns="http://www.w3.org/2000/svg">
<g filter="url(#filter0_i_151_7718)">
<path d="M10.9473 4H12.3473V18H10.9473V11.46H3.34727V18H1.94727V4H3.34727V10.14H10.9473V4ZM24.241 8H25.561V18H24.241V16.04C23.321 17.5067 21.9744 18.24 20.201 18.24C18.7744 18.24 17.5544 17.7333 16.541 16.72C15.541 15.7067 15.041 14.4667 15.041 13C15.041 11.5333 15.541 10.2933 16.541 9.28C17.5544 8.26667 18.7744 7.76 20.201 7.76C21.9744 7.76 23.321 8.49333 24.241 9.96V8ZM17.501 15.82C18.261 16.58 19.1944 16.96 20.301 16.96C21.4077 16.96 22.341 16.58 23.101 15.82C23.861 15.0467 24.241 14.1067 24.241 13C24.241 11.8933 23.861 10.96 23.101 10.2C22.341 9.42667 21.4077 9.04 20.301 9.04C19.1944 9.04 18.261 9.42667 17.501 10.2C16.741 10.96 16.361 11.8933 16.361 13C16.361 14.1067 16.741 15.0467 17.501 15.82ZM35.9359 8H37.0559V18H35.7359V10.3L29.7759 18H28.6559V8H29.9759V15.7L35.9359 8ZM49.9473 8V18H48.6273V10.02L45.1273 15.7H44.9673L41.4673 10.02V18H40.1473V8H41.6673L45.0473 13.48L48.4273 8H49.9473ZM57.6649 7.76C59.1449 7.76 60.3383 8.28667 61.2449 9.34C62.1649 10.38 62.6249 11.6133 62.6249 13.04C62.6249 13.1867 62.6116 13.3933 62.5849 13.66H53.8049C53.9383 14.6733 54.3649 15.48 55.0849 16.08C55.8183 16.6667 56.7183 16.96 57.7849 16.96C58.5449 16.96 59.1983 16.8067 59.7449 16.5C60.3049 16.18 60.7249 15.7667 61.0049 15.26L62.1649 15.94C61.7249 16.6467 61.1249 17.2067 60.3649 17.62C59.6049 18.0333 58.7383 18.24 57.7649 18.24C56.1916 18.24 54.9116 17.7467 53.9249 16.76C52.9383 15.7733 52.4449 14.52 52.4449 13C52.4449 11.5067 52.9316 10.26 53.9049 9.26C54.8783 8.26 56.1316 7.76 57.6649 7.76ZM57.6649 9.04C56.6249 9.04 55.7516 9.35333 55.0449 9.98C54.3516 10.5933 53.9383 11.3933 53.8049 12.38H61.2649C61.1316 11.3267 60.7249 10.5067 60.0449 9.92C59.3649 9.33333 58.5716 9.04 57.6649 9.04ZM72.1046 8H73.4246V18H72.1046V13.64H66.3446V18H65.0246V8H66.3446V12.36H72.1046V8ZM84.896 16.74C83.8827 17.74 82.6427 18.24 81.176 18.24C79.7094 18.24 78.4627 17.74 77.436 16.74C76.4227 15.7267 75.916 14.48 75.916 13C75.916 11.52 76.4227 10.28 77.436 9.28C78.4627 8.26667 79.7094 7.76 81.176 7.76C82.6427 7.76 83.8827 8.26667 84.896 9.28C85.9227 10.28 86.436 11.52 86.436 13C86.436 14.48 85.9227 15.7267 84.896 16.74ZM78.376 15.82C79.136 16.58 80.0694 16.96 81.176 16.96C82.2827 16.96 83.216 16.58 83.976 15.82C84.736 15.0467 85.116 14.1067 85.116 13C85.116 11.8933 84.736 10.96 83.976 10.2C83.216 9.42667 82.2827 9.04 81.176 9.04C80.0694 9.04 79.136 9.42667 78.376 10.2C77.616 10.96 77.236 11.8933 77.236 13C77.236 14.1067 77.616 15.0467 78.376 15.82ZM95.3049 12.86C96.3983 13.26 96.9449 14.04 96.9449 15.2C96.9449 16.0133 96.6716 16.6867 96.1249 17.22C95.5916 17.74 94.8183 18 93.8049 18H88.9449V8H93.4049C94.3783 8 95.1316 8.25333 95.6649 8.76C96.1983 9.25333 96.4649 9.89333 96.4649 10.68C96.4649 11.68 96.0783 12.4067 95.3049 12.86ZM93.4049 9.28H90.2649V12.32H93.4049C94.5649 12.32 95.1449 11.8 95.1449 10.76C95.1449 10.2933 94.9916 9.93333 94.6849 9.68C94.3916 9.41333 93.9649 9.28 93.4049 9.28ZM93.8049 16.72C94.3916 16.72 94.8383 16.58 95.1449 16.3C95.4649 16.02 95.6249 15.6267 95.6249 15.12C95.6249 14.6533 95.4649 14.2867 95.1449 14.02C94.8383 13.74 94.3916 13.6 93.8049 13.6H90.2649V16.72H93.8049ZM107.845 8H109.165V18H107.845V16.04C106.925 17.5067 105.578 18.24 103.805 18.24C102.378 18.24 101.158 17.7333 100.145 16.72C99.1449 15.7067 98.6449 14.4667 98.6449 13C98.6449 11.5333 99.1449 10.2933 100.145 9.28C101.158 8.26667 102.378 7.76 103.805 7.76C105.578 7.76 106.925 8.49333 107.845 9.96V8ZM101.105 15.82C101.865 16.58 102.798 16.96 103.905 16.96C105.012 16.96 105.945 16.58 106.705 15.82C107.465 15.0467 107.845 14.1067 107.845 13C107.845 11.8933 107.465 10.96 106.705 10.2C105.945 9.42667 105.012 9.04 103.905 9.04C102.798 9.04 101.865 9.42667 101.105 10.2C100.345 10.96 99.9649 11.8933 99.9649 13C99.9649 14.1067 100.345 15.0467 101.105 15.82ZM119.34 8H120.66V18H119.34V13.64H113.58V18H112.26V8H113.58V12.36H119.34V8ZM131.031 8H132.151V18H130.831V10.3L124.871 18H123.751V8H125.071V15.7L131.031 8ZM139.863 7.76C141.343 7.76 142.536 8.28667 143.443 9.34C144.363 10.38 144.823 11.6133 144.823 13.04C144.823 13.1867 144.809 13.3933 144.783 13.66H136.003C136.136 14.6733 136.563 15.48 137.283 16.08C138.016 16.6667 138.916 16.96 139.983 16.96C140.743 16.96 141.396 16.8067 141.943 16.5C142.503 16.18 142.923 15.7667 143.203 15.26L144.363 15.94C143.923 16.6467 143.323 17.2067 142.563 17.62C141.803 18.0333 140.936 18.24 139.963 18.24C138.389 18.24 137.109 17.7467 136.123 16.76C135.136 15.7733 134.643 14.52 134.643 13C134.643 11.5067 135.129 10.26 136.103 9.26C137.076 8.26 138.329 7.76 139.863 7.76ZM139.863 9.04C138.823 9.04 137.949 9.35333 137.243 9.98C136.549 10.5933 136.136 11.3933 136.003 12.38H143.463C143.329 11.3267 142.923 10.5067 142.243 9.92C141.563 9.33333 140.769 9.04 139.863 9.04ZM160.922 8V18H159.602V9.28H153.842V18H152.522V8H160.922ZM169.374 7.76C170.8 7.76 172.014 8.26667 173.014 9.28C174.027 10.2933 174.534 11.5333 174.534 13C174.534 14.4667 174.027 15.7067 173.014 16.72C172.014 17.7333 170.8 18.24 169.374 18.24C167.6 18.24 166.254 17.5067 165.334 16.04V22H164.014V8H165.334V9.96C166.254 8.49333 167.6 7.76 169.374 7.76ZM166.474 15.82C167.234 16.58 168.167 16.96 169.274 16.96C170.38 16.96 171.314 16.58 172.074 15.82C172.834 15.0467 173.214 14.1067 173.214 13C173.214 11.8933 172.834 10.96 172.074 10.2C171.314 9.42667 170.38 9.04 169.274 9.04C168.167 9.04 167.234 9.42667 166.474 10.2C165.714 10.96 165.334 11.8933 165.334 13C165.334 14.1067 165.714 15.0467 166.474 15.82ZM185.409 16.74C184.395 17.74 183.155 18.24 181.689 18.24C180.222 18.24 178.975 17.74 177.949 16.74C176.935 15.7267 176.429 14.48 176.429 13C176.429 11.52 176.935 10.28 177.949 9.28C178.975 8.26667 180.222 7.76 181.689 7.76C183.155 7.76 184.395 8.26667 185.409 9.28C186.435 10.28 186.949 11.52 186.949 13C186.949 14.48 186.435 15.7267 185.409 16.74ZM178.889 15.82C179.649 16.58 180.582 16.96 181.689 16.96C182.795 16.96 183.729 16.58 184.489 15.82C185.249 15.0467 185.629 14.1067 185.629 13C185.629 11.8933 185.249 10.96 184.489 10.2C183.729 9.42667 182.795 9.04 181.689 9.04C180.582 9.04 179.649 9.42667 178.889 10.2C178.129 10.96 177.749 11.8933 177.749 13C177.749 14.1067 178.129 15.0467 178.889 15.82ZM194.077 7.76C195.557 7.76 196.751 8.28667 197.657 9.34C198.577 10.38 199.037 11.6133 199.037 13.04C199.037 13.1867 199.024 13.3933 198.997 13.66H190.217C190.351 14.6733 190.777 15.48 191.497 16.08C192.231 16.6667 193.131 16.96 194.197 16.96C194.957 16.96 195.611 16.8067 196.157 16.5C196.717 16.18 197.137 15.7667 197.417 15.26L198.577 15.94C198.137 16.6467 197.537 17.2067 196.777 17.62C196.017 18.0333 195.151 18.24 194.177 18.24C192.604 18.24 191.324 17.7467 190.337 16.76C189.351 15.7733 188.857 14.52 188.857 13C188.857 11.5067 189.344 10.26 190.317 9.26C191.291 8.26 192.544 7.76 194.077 7.76ZM194.077 9.04C193.037 9.04 192.164 9.35333 191.457 9.98C190.764 10.5933 190.351 11.3933 190.217 12.38H197.677C197.544 11.3267 197.137 10.5067 196.457 9.92C195.777 9.33333 194.984 9.04 194.077 9.04ZM209.517 18H207.757L202.757 13.18V18H201.437V8H202.757V12.42L207.517 8H209.317L204.157 12.8L209.517 18ZM218.82 8V9.28H215.28V18H213.96V9.28H210.42V8H218.82ZM228.938 8H230.258V18H228.938V16.04C228.018 17.5067 226.671 18.24 224.898 18.24C223.471 18.24 222.251 17.7333 221.238 16.72C220.238 15.7067 219.738 14.4667 219.738 13C219.738 11.5333 220.238 10.2933 221.238 9.28C222.251 8.26667 223.471 7.76 224.898 7.76C226.671 7.76 228.018 8.49333 228.938 9.96V8ZM222.198 15.82C222.958 16.58 223.891 16.96 224.998 16.96C226.105 16.96 227.038 16.58 227.798 15.82C228.558 15.0467 228.938 14.1067 228.938 13C228.938 11.8933 228.558 10.96 227.798 10.2C227.038 9.42667 226.105 9.04 224.998 9.04C223.891 9.04 222.958 9.42667 222.198 10.2C221.438 10.96 221.058 11.8933 221.058 13C221.058 14.1067 221.438 15.0467 222.198 15.82Z" fill="#6E7ABA"/>
<path d="M0.347267 22H231.658V23H0.347267V22Z" fill="#6E7ABA"/>
</g>
<g filter="url(#filter1_i_151_7718)">
<path d="M11.7715 362H9.93148L3.37148 355.22V362H1.97148V348H3.37148V354.4L9.73148 348H11.5715L4.85148 354.8L11.7715 362ZM21.1546 360.74C20.1413 361.74 18.9013 362.24 17.4346 362.24C15.9679 362.24 14.7213 361.74 13.6946 360.74C12.6813 359.727 12.1746 358.48 12.1746 357C12.1746 355.52 12.6813 354.28 13.6946 353.28C14.7213 352.267 15.9679 351.76 17.4346 351.76C18.9013 351.76 20.1413 352.267 21.1546 353.28C22.1813 354.28 22.6946 355.52 22.6946 357C22.6946 358.48 22.1813 359.727 21.1546 360.74ZM14.6346 359.82C15.3946 360.58 16.3279 360.96 17.4346 360.96C18.5413 360.96 19.4746 360.58 20.2346 359.82C20.9946 359.047 21.3746 358.107 21.3746 357C21.3746 355.893 20.9946 354.96 20.2346 354.2C19.4746 353.427 18.5413 353.04 17.4346 353.04C16.3279 353.04 15.3946 353.427 14.6346 354.2C13.8746 354.96 13.4946 355.893 13.4946 357C13.4946 358.107 13.8746 359.047 14.6346 359.82ZM35.0035 352V362H33.6835V354.02L30.1835 359.7H30.0235L26.5235 354.02V362H25.2035V352H26.7235L30.1035 357.48L33.4835 352H35.0035ZM46.7012 352H48.0212V362H46.7012V360.04C45.7812 361.507 44.4345 362.24 42.6612 362.24C41.2345 362.24 40.0145 361.733 39.0012 360.72C38.0012 359.707 37.5012 358.467 37.5012 357C37.5012 355.533 38.0012 354.293 39.0012 353.28C40.0145 352.267 41.2345 351.76 42.6612 351.76C44.4345 351.76 45.7812 352.493 46.7012 353.96V352ZM39.9612 359.82C40.7212 360.58 41.6545 360.96 42.7612 360.96C43.8678 360.96 44.8012 360.58 45.5612 359.82C46.3212 359.047 46.7012 358.107 46.7012 357C46.7012 355.893 46.3212 354.96 45.5612 354.2C44.8012 353.427 43.8678 353.04 42.7612 353.04C41.6545 353.04 40.7212 353.427 39.9612 354.2C39.2012 354.96 38.8212 355.893 38.8212 357C38.8212 358.107 39.2012 359.047 39.9612 359.82ZM58.196 352H59.516V362H58.196V357.64H52.436V362H51.116V352H52.436V356.36H58.196V352ZM71.0074 360.72H72.4074V364.68H71.0874V362H62.9274V364.68H61.6074V360.72H62.8274C63.5074 359.827 63.8474 358.567 63.8474 356.94V352H71.0074V360.72ZM64.4274 360.72H69.6874V353.28H65.1674V356.94C65.1674 358.473 64.9208 359.733 64.4274 360.72ZM82.9137 352H84.2337V362H82.9137V360.04C81.9937 361.507 80.647 362.24 78.8737 362.24C77.447 362.24 76.227 361.733 75.2137 360.72C74.2137 359.707 73.7137 358.467 73.7137 357C73.7137 355.533 74.2137 354.293 75.2137 353.28C76.227 352.267 77.447 351.76 78.8737 351.76C80.647 351.76 81.9937 352.493 82.9137 353.96V352ZM76.1737 359.82C76.9337 360.58 77.867 360.96 78.9737 360.96C80.0803 360.96 81.0137 360.58 81.7737 359.82C82.5337 359.047 82.9137 358.107 82.9137 357C82.9137 355.893 82.5337 354.96 81.7737 354.2C81.0137 353.427 80.0803 353.04 78.9737 353.04C77.867 353.04 76.9337 353.427 76.1737 354.2C75.4137 354.96 75.0337 355.893 75.0337 357C75.0337 358.107 75.4137 359.047 76.1737 359.82Z" fill="#6E7ABA"/>
<path d="M0.371483 366H85.6337V367H0.371483V366Z" fill="#6E7ABA"/>
</g>
<g filter="url(#filter2_i_151_7718)">
<path d="M10.6461 90V91.32H6.34609V104H4.94609V91.32H0.646094V90H10.6461ZM18.6206 94H19.7406V104H18.4206V96.3L12.4606 104H11.3406V94H12.6606V101.7L18.6206 94ZM31.232 94V104H29.912V95.28H24.152V104H22.832V94H31.232ZM48.0234 94V104H46.7034V95.28H40.9434V104H39.6234V94H48.0234ZM56.4748 93.76C57.9015 93.76 59.1148 94.2667 60.1148 95.28C61.1282 96.2933 61.6348 97.5333 61.6348 99C61.6348 100.467 61.1282 101.707 60.1148 102.72C59.1148 103.733 57.9015 104.24 56.4748 104.24C54.7015 104.24 53.3548 103.507 52.4348 102.04V108H51.1148V94H52.4348V95.96C53.3548 94.4933 54.7015 93.76 56.4748 93.76ZM53.5748 101.82C54.3348 102.58 55.2682 102.96 56.3748 102.96C57.4815 102.96 58.4148 102.58 59.1748 101.82C59.9348 101.047 60.3148 100.107 60.3148 99C60.3148 97.8933 59.9348 96.96 59.1748 96.2C58.4148 95.4267 57.4815 95.04 56.3748 95.04C55.2682 95.04 54.3348 95.4267 53.5748 96.2C52.8148 96.96 52.4348 97.8933 52.4348 99C52.4348 100.107 52.8148 101.047 53.5748 101.82ZM72.5097 102.74C71.4964 103.74 70.2564 104.24 68.7897 104.24C67.323 104.24 66.0764 103.74 65.0497 102.74C64.0364 101.727 63.5297 100.48 63.5297 99C63.5297 97.52 64.0364 96.28 65.0497 95.28C66.0764 94.2667 67.323 93.76 68.7897 93.76C70.2564 93.76 71.4964 94.2667 72.5097 95.28C73.5364 96.28 74.0497 97.52 74.0497 99C74.0497 100.48 73.5364 101.727 72.5097 102.74ZM65.9897 101.82C66.7497 102.58 67.683 102.96 68.7897 102.96C69.8964 102.96 70.8297 102.58 71.5897 101.82C72.3497 101.047 72.7297 100.107 72.7297 99C72.7297 97.8933 72.3497 96.96 71.5897 96.2C70.8297 95.4267 69.8964 95.04 68.7897 95.04C67.683 95.04 66.7497 95.4267 65.9897 96.2C65.2297 96.96 64.8497 97.8933 64.8497 99C64.8497 100.107 65.2297 101.047 65.9897 101.82ZM81.1786 93.76C82.6586 93.76 83.8519 94.2867 84.7586 95.34C85.6786 96.38 86.1386 97.6133 86.1386 99.04C86.1386 99.1867 86.1253 99.3933 86.0986 99.66H77.3186C77.4519 100.673 77.8786 101.48 78.5986 102.08C79.3319 102.667 80.2319 102.96 81.2986 102.96C82.0586 102.96 82.7119 102.807 83.2586 102.5C83.8186 102.18 84.2386 101.767 84.5186 101.26L85.6786 101.94C85.2386 102.647 84.6386 103.207 83.8786 103.62C83.1186 104.033 82.2519 104.24 81.2786 104.24C79.7053 104.24 78.4253 103.747 77.4386 102.76C76.4519 101.773 75.9586 100.52 75.9586 99C75.9586 97.5067 76.4453 96.26 77.4186 95.26C78.3919 94.26 79.6453 93.76 81.1786 93.76ZM81.1786 95.04C80.1386 95.04 79.2653 95.3533 78.5586 95.98C77.8653 96.5933 77.4519 97.3933 77.3186 98.38H84.7786C84.6453 97.3267 84.2386 96.5067 83.5586 95.92C82.8786 95.3333 82.0853 95.04 81.1786 95.04ZM96.6183 104H94.8583L89.8583 99.18V104H88.5383V94H89.8583V98.42L94.6183 94H96.4183L91.2583 98.8L96.6183 104ZM105.921 94V95.28H102.381V104H101.061V95.28H97.5211V94H105.921ZM116.039 94H117.359V104H116.039V102.04C115.119 103.507 113.772 104.24 111.999 104.24C110.572 104.24 109.352 103.733 108.339 102.72C107.339 101.707 106.839 100.467 106.839 99C106.839 97.5333 107.339 96.2933 108.339 95.28C109.352 94.2667 110.572 93.76 111.999 93.76C113.772 93.76 115.119 94.4933 116.039 95.96V94ZM109.299 101.82C110.059 102.58 110.992 102.96 112.099 102.96C113.206 102.96 114.139 102.58 114.899 101.82C115.659 101.047 116.039 100.107 116.039 99C116.039 97.8933 115.659 96.96 114.899 96.2C114.139 95.4267 113.206 95.04 112.099 95.04C110.992 95.04 110.059 95.4267 109.299 96.2C108.539 96.96 108.159 97.8933 108.159 99C108.159 100.107 108.539 101.047 109.299 101.82Z" fill="#6E7ABA"/>
<path d="M0.246094 108H118.759V109H0.246094V108Z" fill="#6E7ABA"/>
</g>
<g filter="url(#filter3_i_151_7718)">
<path d="M11.9875 59.68H13.4875V63.68H12.0875V61H1.9875V47H3.3875V59.68H10.5875V47H11.9875V59.68ZM20.1255 50.76C21.6055 50.76 22.7988 51.2867 23.7055 52.34C24.6255 53.38 25.0855 54.6133 25.0855 56.04C25.0855 56.1867 25.0721 56.3933 25.0455 56.66H16.2655C16.3988 57.6733 16.8255 58.48 17.5455 59.08C18.2788 59.6667 19.1788 59.96 20.2455 59.96C21.0055 59.96 21.6588 59.8067 22.2055 59.5C22.7655 59.18 23.1855 58.7667 23.4655 58.26L24.6255 58.94C24.1855 59.6467 23.5855 60.2067 22.8255 60.62C22.0655 61.0333 21.1988 61.24 20.2255 61.24C18.6521 61.24 17.3721 60.7467 16.3855 59.76C15.3988 58.7733 14.9055 57.52 14.9055 56C14.9055 54.5067 15.3921 53.26 16.3655 52.26C17.3388 51.26 18.5921 50.76 20.1255 50.76ZM20.1255 52.04C19.0855 52.04 18.2121 52.3533 17.5055 52.98C16.8121 53.5933 16.3988 54.3933 16.2655 55.38H23.7255C23.5921 54.3267 23.1855 53.5067 22.5055 52.92C21.8255 52.3333 21.0321 52.04 20.1255 52.04ZM35.2945 51V61H33.9745V52.28H29.4545V56.74C29.4545 58.4067 29.1345 59.5533 28.4945 60.18C27.8679 60.8067 27.0012 61.08 25.8945 61V59.76C26.6545 59.84 27.2145 59.66 27.5745 59.22C27.9479 58.78 28.1345 57.9533 28.1345 56.74V51H35.2945ZM45.6706 51H46.7906V61H45.4706V53.3L39.5106 61H38.3906V51H39.7106V58.7L45.6706 51ZM62.462 51H63.582V61H62.262V53.3L56.302 61H55.182V51H56.502V58.7L62.462 51ZM77.1334 55.86C78.2934 56.3 78.8734 57.1 78.8734 58.26C78.8734 59.0867 78.5468 59.7933 77.8934 60.38C77.2534 60.9533 76.3334 61.24 75.1334 61.24C73.1201 61.24 71.8001 60.44 71.1734 58.84L72.2934 58.18C72.7068 59.3667 73.6534 59.96 75.1334 59.96C75.9068 59.96 76.5001 59.7933 76.9134 59.46C77.3401 59.1267 77.5534 58.7 77.5534 58.18C77.5534 57.7133 77.3801 57.3333 77.0334 57.04C76.6868 56.7467 76.2201 56.6 75.6334 56.6H74.1734V55.32H75.2334C75.8068 55.32 76.2534 55.18 76.5734 54.9C76.9068 54.6067 77.0734 54.2067 77.0734 53.7C77.0734 53.22 76.8801 52.8267 76.4934 52.52C76.1068 52.2 75.5868 52.04 74.9334 52.04C73.6801 52.04 72.8468 52.54 72.4334 53.54L71.3334 52.9C72.0001 51.4733 73.2001 50.76 74.9334 50.76C75.9868 50.76 76.8268 51.04 77.4534 51.6C78.0801 52.1467 78.3934 52.82 78.3934 53.62C78.3934 54.6467 77.9734 55.3933 77.1334 55.86ZM89.7797 51H91.0997V61H89.7797V59.04C88.8597 60.5067 87.513 61.24 85.7397 61.24C84.313 61.24 83.093 60.7333 82.0797 59.72C81.0797 58.7067 80.5797 57.4667 80.5797 56C80.5797 54.5333 81.0797 53.2933 82.0797 52.28C83.093 51.2667 84.313 50.76 85.7397 50.76C87.513 50.76 88.8597 51.4933 89.7797 52.96V51ZM83.0397 58.82C83.7997 59.58 84.733 59.96 85.8397 59.96C86.9464 59.96 87.8797 59.58 88.6397 58.82C89.3997 58.0467 89.7797 57.1067 89.7797 56C89.7797 54.8933 89.3997 53.96 88.6397 53.2C87.8797 52.4267 86.9464 52.04 85.8397 52.04C84.733 52.04 83.7997 52.4267 83.0397 53.2C82.2797 53.96 81.8997 54.8933 81.8997 56C81.8997 57.1067 82.2797 58.0467 83.0397 58.82ZM102.595 59.72H103.995V63.68H102.675V61H94.5145V63.68H93.1945V59.72H94.4145C95.0945 58.8267 95.4345 57.5667 95.4345 55.94V51H102.595V59.72ZM96.0145 59.72H101.275V52.28H96.7545V55.94C96.7545 57.4733 96.5079 58.7333 96.0145 59.72ZM114.501 51H115.821V61H114.501V59.04C113.581 60.5067 112.234 61.24 110.461 61.24C109.034 61.24 107.814 60.7333 106.801 59.72C105.801 58.7067 105.301 57.4667 105.301 56C105.301 54.5333 105.801 53.2933 106.801 52.28C107.814 51.2667 109.034 50.76 110.461 50.76C112.234 50.76 113.581 51.4933 114.501 52.96V51ZM107.761 58.82C108.521 59.58 109.454 59.96 110.561 59.96C111.667 59.96 112.601 59.58 113.361 58.82C114.121 58.0467 114.501 57.1067 114.501 56C114.501 54.8933 114.121 53.96 113.361 53.2C112.601 52.4267 111.667 52.04 110.561 52.04C109.454 52.04 108.521 52.4267 107.761 53.2C107.001 53.96 106.621 54.8933 106.621 56C106.621 57.1067 107.001 58.0467 107.761 58.82ZM125.396 51H126.716V61H125.396V57.2C124.622 57.6 123.669 57.8 122.536 57.8C121.229 57.8 120.229 57.5 119.536 56.9C118.856 56.2867 118.516 55.3867 118.516 54.2V51H119.836V54.2C119.836 55.04 120.056 55.6467 120.496 56.02C120.936 56.38 121.602 56.56 122.496 56.56C123.536 56.56 124.502 56.3667 125.396 55.98V51ZM137.101 51H138.221V61H136.901V53.3L130.941 61H129.821V51H131.141V58.7L137.101 51Z" fill="#6E7ABA"/>
<path d="M0.387497 65H139.621V66H0.387497V65Z" fill="#6E7ABA"/>
</g>
<g filter="url(#filter4_i_151_7718)">
<path d="M13.3452 145.14C11.9452 146.54 10.2319 147.24 8.20524 147.24C6.17857 147.24 4.46524 146.54 3.06524 145.14C1.66524 143.727 0.965237 142.013 0.965237 140C0.965237 137.987 1.66524 136.28 3.06524 134.88C4.46524 133.467 6.17857 132.76 8.20524 132.76C10.2319 132.76 11.9452 133.467 13.3452 134.88C14.7452 136.28 15.4452 137.987 15.4452 140C15.4452 142.013 14.7452 143.727 13.3452 145.14ZM4.04524 144.18C5.16524 145.313 6.5519 145.88 8.20524 145.88C9.85857 145.88 11.2452 145.313 12.3652 144.18C13.4852 143.033 14.0452 141.64 14.0452 140C14.0452 138.36 13.4852 136.973 12.3652 135.84C11.2452 134.693 9.85857 134.12 8.20524 134.12C6.5519 134.12 5.16524 134.693 4.04524 135.84C2.92524 136.973 2.36524 138.36 2.36524 140C2.36524 141.64 2.92524 143.033 4.04524 144.18ZM22.3795 147.24C20.9395 147.24 19.7395 146.767 18.7795 145.82C17.8195 144.86 17.3395 143.62 17.3395 142.1C17.3395 140.393 17.5928 139.087 18.0995 138.18C18.6061 137.26 19.6328 136.427 21.1795 135.68C21.4728 135.533 21.8595 135.36 22.3395 135.16C22.8328 134.96 23.1995 134.8 23.4395 134.68C23.6928 134.56 23.9661 134.407 24.2595 134.22C24.5528 134.02 24.7728 133.8 24.9195 133.56C25.0661 133.32 25.1595 133.033 25.1995 132.7L26.2395 133.3C26.1861 133.62 26.0795 133.92 25.9195 134.2C25.7595 134.48 25.5928 134.707 25.4195 134.88C25.2595 135.053 24.9995 135.247 24.6395 135.46C24.2928 135.66 24.0195 135.807 23.8195 135.9C23.6328 135.98 23.2995 136.12 22.8195 136.32C22.3528 136.52 22.0395 136.653 21.8795 136.72C20.9461 137.12 20.2595 137.54 19.8195 137.98C19.3795 138.407 19.0661 138.967 18.8795 139.66C19.3328 139.06 19.9061 138.62 20.5995 138.34C21.3061 138.047 21.9928 137.9 22.6595 137.9C23.9928 137.9 25.0928 138.34 25.9595 139.22C26.8395 140.087 27.2795 141.2 27.2795 142.56C27.2795 143.907 26.8128 145.027 25.8795 145.92C24.9595 146.8 23.7928 147.24 22.3795 147.24ZM22.3795 145.92C23.4195 145.92 24.2728 145.607 24.9395 144.98C25.6195 144.34 25.9595 143.533 25.9595 142.56C25.9595 141.573 25.6395 140.767 24.9995 140.14C24.3728 139.5 23.5328 139.18 22.4795 139.18C21.5328 139.18 20.6728 139.48 19.8995 140.08C19.1261 140.667 18.7395 141.453 18.7395 142.44C18.7395 143.453 19.0861 144.287 19.7795 144.94C20.4861 145.593 21.3528 145.92 22.3795 145.92ZM36.3965 137V147H35.0765V143.16H33.3565L30.2765 147H28.5965L31.7565 143.12C30.9565 143 30.2965 142.667 29.7765 142.12C29.2565 141.573 28.9965 140.9 28.9965 140.1C28.9965 139.193 29.3165 138.453 29.9565 137.88C30.6098 137.293 31.4032 137 32.3365 137H36.3965ZM32.3365 141.92H35.0765V138.28H32.3365C31.7765 138.28 31.2965 138.447 30.8965 138.78C30.5098 139.113 30.3165 139.553 30.3165 140.1C30.3165 140.647 30.5098 141.087 30.8965 141.42C31.2965 141.753 31.7765 141.92 32.3365 141.92ZM44.6565 141.86C45.8165 142.3 46.3965 143.1 46.3965 144.26C46.3965 145.087 46.0698 145.793 45.4165 146.38C44.7765 146.953 43.8565 147.24 42.6565 147.24C40.6432 147.24 39.3232 146.44 38.6965 144.84L39.8165 144.18C40.2298 145.367 41.1765 145.96 42.6565 145.96C43.4298 145.96 44.0232 145.793 44.4365 145.46C44.8632 145.127 45.0765 144.7 45.0765 144.18C45.0765 143.713 44.9032 143.333 44.5565 143.04C44.2098 142.747 43.7432 142.6 43.1565 142.6H41.6965V141.32H42.7565C43.3298 141.32 43.7765 141.18 44.0965 140.9C44.4298 140.607 44.5965 140.207 44.5965 139.7C44.5965 139.22 44.4032 138.827 44.0165 138.52C43.6298 138.2 43.1098 138.04 42.4565 138.04C41.2032 138.04 40.3698 138.54 39.9565 139.54L38.8565 138.9C39.5232 137.473 40.7232 136.76 42.4565 136.76C43.5098 136.76 44.3498 137.04 44.9765 137.6C45.6032 138.147 45.9165 138.82 45.9165 139.62C45.9165 140.647 45.4965 141.393 44.6565 141.86ZM57.3027 137H58.6227V147H57.3027V145.04C56.3827 146.507 55.0361 147.24 53.2627 147.24C51.8361 147.24 50.6161 146.733 49.6027 145.72C48.6027 144.707 48.1027 143.467 48.1027 142C48.1027 140.533 48.6027 139.293 49.6027 138.28C50.6161 137.267 51.8361 136.76 53.2627 136.76C55.0361 136.76 56.3827 137.493 57.3027 138.96V137ZM50.5627 144.82C51.3227 145.58 52.2561 145.96 53.3627 145.96C54.4694 145.96 55.4027 145.58 56.1627 144.82C56.9227 144.047 57.3027 143.107 57.3027 142C57.3027 140.893 56.9227 139.96 56.1627 139.2C55.4027 138.427 54.4694 138.04 53.3627 138.04C52.2561 138.04 51.3227 138.427 50.5627 139.2C49.8027 139.96 49.4227 140.893 49.4227 142C49.4227 143.107 49.8027 144.047 50.5627 144.82ZM68.9176 137V138.28H65.3776V147H64.0576V138.28H60.5176V137H68.9176ZM75.0556 136.76C76.5356 136.76 77.7289 137.287 78.6356 138.34C79.5556 139.38 80.0156 140.613 80.0156 142.04C80.0156 142.187 80.0022 142.393 79.9756 142.66H71.1956C71.3289 143.673 71.7556 144.48 72.4756 145.08C73.2089 145.667 74.1089 145.96 75.1756 145.96C75.9356 145.96 76.5889 145.807 77.1356 145.5C77.6956 145.18 78.1156 144.767 78.3956 144.26L79.5556 144.94C79.1156 145.647 78.5156 146.207 77.7556 146.62C76.9956 147.033 76.1289 147.24 75.1556 147.24C73.5822 147.24 72.3022 146.747 71.3156 145.76C70.3289 144.773 69.8356 143.52 69.8356 142C69.8356 140.507 70.3222 139.26 71.2956 138.26C72.2689 137.26 73.5222 136.76 75.0556 136.76ZM75.0556 138.04C74.0156 138.04 73.1422 138.353 72.4356 138.98C71.7422 139.593 71.3289 140.393 71.1956 141.38H78.6556C78.5222 140.327 78.1156 139.507 77.4356 138.92C76.7556 138.333 75.9622 138.04 75.0556 138.04ZM90.2246 137V147H88.9046V138.28H84.3846V142.74C84.3846 144.407 84.0646 145.553 83.4246 146.18C82.7979 146.807 81.9313 147.08 80.8246 147V145.76C81.5846 145.84 82.1446 145.66 82.5046 145.22C82.8779 144.78 83.0646 143.953 83.0646 142.74V137H90.2246ZM97.3807 140.8C98.314 140.8 99.1007 141.093 99.7407 141.68C100.394 142.253 100.721 142.993 100.721 143.9C100.721 144.807 100.394 145.553 99.7407 146.14C99.1007 146.713 98.314 147 97.3807 147H93.3207V137H94.6407V140.8H97.3807ZM97.3807 145.72C97.9407 145.72 98.414 145.553 98.8007 145.22C99.2007 144.887 99.4007 144.447 99.4007 143.9C99.4007 143.353 99.2007 142.913 98.8007 142.58C98.414 142.247 97.9407 142.08 97.3807 142.08H94.6407V145.72H97.3807ZM110.095 137H111.415V147H110.095V142.64H104.335V147H103.015V137H104.335V141.36H110.095V137ZM118.567 140.8C119.5 140.8 120.287 141.093 120.927 141.68C121.58 142.253 121.907 142.993 121.907 143.9C121.907 144.807 121.58 145.553 120.927 146.14C120.287 146.713 119.5 147 118.567 147H114.507V137H115.827V140.8H118.567ZM123.307 137H124.627V147H123.307V137ZM118.567 145.72C119.127 145.72 119.6 145.553 119.987 145.22C120.387 144.887 120.587 144.447 120.587 143.9C120.587 143.353 120.387 142.913 119.987 142.58C119.6 142.247 119.127 142.08 118.567 142.08H115.827V145.72H118.567ZM132.356 136.76C133.836 136.76 135.03 137.287 135.936 138.34C136.856 139.38 137.316 140.613 137.316 142.04C137.316 142.187 137.303 142.393 137.276 142.66H128.496C128.63 143.673 129.056 144.48 129.776 145.08C130.51 145.667 131.41 145.96 132.476 145.96C133.236 145.96 133.89 145.807 134.436 145.5C134.996 145.18 135.416 144.767 135.696 144.26L136.856 144.94C136.416 145.647 135.816 146.207 135.056 146.62C134.296 147.033 133.43 147.24 132.456 147.24C130.883 147.24 129.603 146.747 128.616 145.76C127.63 144.773 127.136 143.52 127.136 142C127.136 140.507 127.623 139.26 128.596 138.26C129.57 137.26 130.823 136.76 132.356 136.76ZM132.356 138.04C131.316 138.04 130.443 138.353 129.736 138.98C129.043 139.593 128.63 140.393 128.496 141.38H135.956C135.823 140.327 135.416 139.507 134.736 138.92C134.056 138.333 133.263 138.04 132.356 138.04ZM154.816 137V147H153.496V139.02L149.996 144.7H149.836L146.336 139.02V147H145.016V137H146.536L149.916 142.48L153.296 137H154.816ZM162.534 136.76C164.014 136.76 165.207 137.287 166.114 138.34C167.034 139.38 167.494 140.613 167.494 142.04C167.494 142.187 167.48 142.393 167.454 142.66H158.674C158.807 143.673 159.234 144.48 159.954 145.08C160.687 145.667 161.587 145.96 162.654 145.96C163.414 145.96 164.067 145.807 164.614 145.5C165.174 145.18 165.594 144.767 165.874 144.26L167.034 144.94C166.594 145.647 165.994 146.207 165.234 146.62C164.474 147.033 163.607 147.24 162.634 147.24C161.06 147.24 159.78 146.747 158.794 145.76C157.807 144.773 157.314 143.52 157.314 142C157.314 140.507 157.8 139.26 158.774 138.26C159.747 137.26 161 136.76 162.534 136.76ZM162.534 138.04C161.494 138.04 160.62 138.353 159.914 138.98C159.22 139.593 158.807 140.393 158.674 141.38H166.134C166 140.327 165.594 139.507 164.914 138.92C164.234 138.333 163.44 138.04 162.534 138.04ZM175.253 136.76C176.68 136.76 177.893 137.267 178.893 138.28C179.907 139.293 180.413 140.533 180.413 142C180.413 143.467 179.907 144.707 178.893 145.72C177.893 146.733 176.68 147.24 175.253 147.24C173.48 147.24 172.133 146.507 171.213 145.04V151H169.893V137H171.213V138.96C172.133 137.493 173.48 136.76 175.253 136.76ZM172.353 144.82C173.113 145.58 174.047 145.96 175.153 145.96C176.26 145.96 177.193 145.58 177.953 144.82C178.713 144.047 179.093 143.107 179.093 142C179.093 140.893 178.713 139.96 177.953 139.2C177.193 138.427 176.26 138.04 175.153 138.04C174.047 138.04 173.113 138.427 172.353 139.2C171.593 139.96 171.213 140.893 171.213 142C171.213 143.107 171.593 144.047 172.353 144.82ZM191.288 145.74C190.275 146.74 189.035 147.24 187.568 147.24C186.102 147.24 184.855 146.74 183.828 145.74C182.815 144.727 182.308 143.48 182.308 142C182.308 140.52 182.815 139.28 183.828 138.28C184.855 137.267 186.102 136.76 187.568 136.76C189.035 136.76 190.275 137.267 191.288 138.28C192.315 139.28 192.828 140.52 192.828 142C192.828 143.48 192.315 144.727 191.288 145.74ZM184.768 144.82C185.528 145.58 186.462 145.96 187.568 145.96C188.675 145.96 189.608 145.58 190.368 144.82C191.128 144.047 191.508 143.107 191.508 142C191.508 140.893 191.128 139.96 190.368 139.2C189.608 138.427 188.675 138.04 187.568 138.04C186.462 138.04 185.528 138.427 184.768 139.2C184.008 139.96 183.628 140.893 183.628 142C183.628 143.107 184.008 144.047 184.768 144.82ZM203.737 137V147H202.417V138.28H196.657V147H195.337V137H203.737ZM212.189 136.76C213.615 136.76 214.829 137.267 215.829 138.28C216.842 139.293 217.349 140.533 217.349 142C217.349 143.467 216.842 144.707 215.829 145.72C214.829 146.733 213.615 147.24 212.189 147.24C210.415 147.24 209.069 146.507 208.149 145.04V151H206.829V137H208.149V138.96C209.069 137.493 210.415 136.76 212.189 136.76ZM209.289 144.82C210.049 145.58 210.982 145.96 212.089 145.96C213.195 145.96 214.129 145.58 214.889 144.82C215.649 144.047 216.029 143.107 216.029 142C216.029 140.893 215.649 139.96 214.889 139.2C214.129 138.427 213.195 138.04 212.089 138.04C210.982 138.04 210.049 138.427 209.289 139.2C208.529 139.96 208.149 140.893 208.149 142C208.149 143.107 208.529 144.047 209.289 144.82ZM227.123 137H228.243V147H226.923V139.3L220.963 147H219.843V137H221.163V144.7L227.123 137ZM238.535 137V147H237.215V143.16H235.495L232.415 147H230.735L233.895 143.12C233.095 143 232.435 142.667 231.915 142.12C231.395 141.573 231.135 140.9 231.135 140.1C231.135 139.193 231.455 138.453 232.095 137.88C232.748 137.293 233.541 137 234.475 137H238.535ZM234.475 141.92H237.215V138.28H234.475C233.915 138.28 233.435 138.447 233.035 138.78C232.648 139.113 232.455 139.553 232.455 140.1C232.455 140.647 232.648 141.087 233.035 141.42C233.435 141.753 233.915 141.92 234.475 141.92ZM248.835 137V138.28H245.295V147H243.975V138.28H240.435V137H248.835ZM258.023 137H259.143V147H257.823V139.3L251.863 147H250.743V137H252.063V144.7L258.023 137ZM269.435 137V147H268.115V143.16H266.395L263.315 147H261.635L264.795 143.12C263.995 143 263.335 142.667 262.815 142.12C262.295 141.573 262.035 140.9 262.035 140.1C262.035 139.193 262.355 138.453 262.995 137.88C263.648 137.293 264.441 137 265.375 137H269.435ZM265.375 141.92H268.115V138.28H265.375C264.815 138.28 264.335 138.447 263.935 138.78C263.548 139.113 263.355 139.553 263.355 140.1C263.355 140.647 263.548 141.087 263.935 141.42C264.335 141.753 264.815 141.92 265.375 141.92Z" fill="#6E7ABA"/>
<path d="M0.165237 151H270.835V152H0.165237V151Z" fill="#6E7ABA"/>
</g>
<g filter="url(#filter5_i_151_7718)">
<path d="M11.6 176V190H10.2V177.32H3V190H1.6V176H11.6ZM23.1031 180V190H21.7831V181.28H17.2631V185.74C17.2631 187.407 16.9431 188.553 16.3031 189.18C15.6765 189.807 14.8098 190.08 13.7031 190V188.76C14.4631 188.84 15.0231 188.66 15.3831 188.22C15.7565 187.78 15.9431 186.953 15.9431 185.74V180H23.1031ZM34.7992 180H36.1192V190H34.7992V188.04C33.8792 189.507 32.5326 190.24 30.7592 190.24C29.3326 190.24 28.1126 189.733 27.0992 188.72C26.0992 187.707 25.5992 186.467 25.5992 185C25.5992 183.533 26.0992 182.293 27.0992 181.28C28.1126 180.267 29.3326 179.76 30.7592 179.76C32.5326 179.76 33.8792 180.493 34.7992 181.96V180ZM28.0592 187.82C28.8192 188.58 29.7526 188.96 30.8592 188.96C31.9659 188.96 32.8992 188.58 33.6592 187.82C34.4192 187.047 34.7992 186.107 34.7992 185C34.7992 183.893 34.4192 182.96 33.6592 182.2C32.8992 181.427 31.9659 181.04 30.8592 181.04C29.7526 181.04 28.8192 181.427 28.0592 182.2C27.2992 182.96 26.9192 183.893 26.9192 185C26.9192 186.107 27.2992 187.047 28.0592 187.82ZM46.2941 180H47.6141V190H46.2941V185.64H40.5341V190H39.2141V180H40.5341V184.36H46.2941V180ZM61.3655 179.76C62.7921 179.76 64.0055 180.267 65.0055 181.28C66.0188 182.293 66.5255 183.533 66.5255 185C66.5255 186.467 66.0188 187.707 65.0055 188.72C64.0055 189.733 62.7921 190.24 61.3655 190.24C59.5921 190.24 58.2455 189.507 57.3255 188.04V194H56.0055V180H57.3255V181.96C58.2455 180.493 59.5921 179.76 61.3655 179.76ZM58.4655 187.82C59.2255 188.58 60.1588 188.96 61.2655 188.96C62.3721 188.96 63.3055 188.58 64.0655 187.82C64.8255 187.047 65.2055 186.107 65.2055 185C65.2055 183.893 64.8255 182.96 64.0655 182.2C63.3055 181.427 62.3721 181.04 61.2655 181.04C60.1588 181.04 59.2255 181.427 58.4655 182.2C57.7055 182.96 57.3255 183.893 57.3255 185C57.3255 186.107 57.7055 187.047 58.4655 187.82ZM77.6203 180H78.9403V190H77.6203V188.04C76.7003 189.507 75.3536 190.24 73.5803 190.24C72.1536 190.24 70.9336 189.733 69.9203 188.72C68.9203 187.707 68.4203 186.467 68.4203 185C68.4203 183.533 68.9203 182.293 69.9203 181.28C70.9336 180.267 72.1536 179.76 73.5803 179.76C75.3536 179.76 76.7003 180.493 77.6203 181.96V180ZM70.8803 187.82C71.6403 188.58 72.5736 188.96 73.6803 188.96C74.787 188.96 75.7203 188.58 76.4803 187.82C77.2403 187.047 77.6203 186.107 77.6203 185C77.6203 183.893 77.2403 182.96 76.4803 182.2C75.7203 181.427 74.787 181.04 73.6803 181.04C72.5736 181.04 71.6403 181.427 70.8803 182.2C70.1203 182.96 69.7403 183.893 69.7403 185C69.7403 186.107 70.1203 187.047 70.8803 187.82ZM86.4752 190.24C85.0352 190.24 83.8352 189.767 82.8752 188.82C81.9152 187.86 81.4352 186.62 81.4352 185.1C81.4352 183.393 81.6885 182.087 82.1952 181.18C82.7018 180.26 83.7285 179.427 85.2752 178.68C85.5685 178.533 85.9552 178.36 86.4352 178.16C86.9285 177.96 87.2952 177.8 87.5352 177.68C87.7885 177.56 88.0618 177.407 88.3552 177.22C88.6485 177.02 88.8685 176.8 89.0152 176.56C89.1618 176.32 89.2552 176.033 89.2952 175.7L90.3352 176.3C90.2818 176.62 90.1752 176.92 90.0152 177.2C89.8552 177.48 89.6885 177.707 89.5152 177.88C89.3552 178.053 89.0952 178.247 88.7352 178.46C88.3885 178.66 88.1152 178.807 87.9152 178.9C87.7285 178.98 87.3952 179.12 86.9152 179.32C86.4485 179.52 86.1352 179.653 85.9752 179.72C85.0418 180.12 84.3552 180.54 83.9152 180.98C83.4752 181.407 83.1618 181.967 82.9752 182.66C83.4285 182.06 84.0018 181.62 84.6952 181.34C85.4018 181.047 86.0885 180.9 86.7552 180.9C88.0885 180.9 89.1885 181.34 90.0552 182.22C90.9352 183.087 91.3752 184.2 91.3752 185.56C91.3752 186.907 90.9085 188.027 89.9752 188.92C89.0552 189.8 87.8885 190.24 86.4752 190.24ZM86.4752 188.92C87.5152 188.92 88.3685 188.607 89.0352 187.98C89.7152 187.34 90.0552 186.533 90.0552 185.56C90.0552 184.573 89.7352 183.767 89.0952 183.14C88.4685 182.5 87.6285 182.18 86.5752 182.18C85.6285 182.18 84.7685 182.48 83.9952 183.08C83.2218 183.667 82.8352 184.453 82.8352 185.44C82.8352 186.453 83.1818 187.287 83.8752 187.94C84.5818 188.593 85.4485 188.92 86.4752 188.92ZM102.063 188.74C101.049 189.74 99.8095 190.24 98.3428 190.24C96.8761 190.24 95.6295 189.74 94.6028 188.74C93.5895 187.727 93.0828 186.48 93.0828 185C93.0828 183.52 93.5895 182.28 94.6028 181.28C95.6295 180.267 96.8761 179.76 98.3428 179.76C99.8095 179.76 101.049 180.267 102.063 181.28C103.089 182.28 103.603 183.52 103.603 185C103.603 186.48 103.089 187.727 102.063 188.74ZM95.5428 187.82C96.3028 188.58 97.2361 188.96 98.3428 188.96C99.4495 188.96 100.383 188.58 101.143 187.82C101.903 187.047 102.283 186.107 102.283 185C102.283 183.893 101.903 182.96 101.143 182.2C100.383 181.427 99.4495 181.04 98.3428 181.04C97.2361 181.04 96.3028 181.427 95.5428 182.2C94.7828 182.96 94.4028 183.893 94.4028 185C94.4028 186.107 94.7828 187.047 95.5428 187.82ZM112.921 180V181.28H109.381V190H108.061V181.28H104.521V180H112.921ZM118.89 183.8C119.823 183.8 120.61 184.093 121.25 184.68C121.903 185.253 122.23 185.993 122.23 186.9C122.23 187.807 121.903 188.553 121.25 189.14C120.61 189.713 119.823 190 118.89 190H114.83V180H116.15V183.8H118.89ZM123.63 180H124.95V190H123.63V180ZM118.89 188.72C119.45 188.72 119.923 188.553 120.31 188.22C120.71 187.887 120.91 187.447 120.91 186.9C120.91 186.353 120.71 185.913 120.31 185.58C119.923 185.247 119.45 185.08 118.89 185.08H116.15V188.72H118.89ZM140.639 180H141.759V190H140.439V182.3L134.479 190H133.359V180H134.679V187.7L140.639 180ZM158.231 190H156.471L151.471 185.18V190H150.151V180H151.471V184.42L156.231 180H158.031L152.871 184.8L158.231 190ZM167.718 188.74C166.704 189.74 165.464 190.24 163.998 190.24C162.531 190.24 161.284 189.74 160.258 188.74C159.244 187.727 158.738 186.48 158.738 185C158.738 183.52 159.244 182.28 160.258 181.28C161.284 180.267 162.531 179.76 163.998 179.76C165.464 179.76 166.704 180.267 167.718 181.28C168.744 182.28 169.258 183.52 169.258 185C169.258 186.48 168.744 187.727 167.718 188.74ZM161.198 187.82C161.958 188.58 162.891 188.96 163.998 188.96C165.104 188.96 166.038 188.58 166.798 187.82C167.558 187.047 167.938 186.107 167.938 185C167.938 183.893 167.558 182.96 166.798 182.2C166.038 181.427 165.104 181.04 163.998 181.04C162.891 181.04 161.958 181.427 161.198 182.2C160.438 182.96 160.058 183.893 160.058 185C160.058 186.107 160.438 187.047 161.198 187.82ZM178.846 180H180.166V190H178.846V185.64H173.086V190H171.766V180H173.086V184.36H178.846V180ZM190.458 180V181.28H186.918V190H185.598V181.28H182.058V180H190.458ZM197.726 179.76C199.153 179.76 200.366 180.267 201.366 181.28C202.38 182.293 202.886 183.533 202.886 185C202.886 186.467 202.38 187.707 201.366 188.72C200.366 189.733 199.153 190.24 197.726 190.24C195.953 190.24 194.606 189.507 193.686 188.04V194H192.366V180H193.686V181.96C194.606 180.493 195.953 179.76 197.726 179.76ZM194.826 187.82C195.586 188.58 196.52 188.96 197.626 188.96C198.733 188.96 199.666 188.58 200.426 187.82C201.186 187.047 201.566 186.107 201.566 185C201.566 183.893 201.186 182.96 200.426 182.2C199.666 181.427 198.733 181.04 197.626 181.04C196.52 181.04 195.586 181.427 194.826 182.2C194.066 182.96 193.686 183.893 193.686 185C193.686 186.107 194.066 187.047 194.826 187.82ZM213.761 188.74C212.748 189.74 211.508 190.24 210.041 190.24C208.575 190.24 207.328 189.74 206.301 188.74C205.288 187.727 204.781 186.48 204.781 185C204.781 183.52 205.288 182.28 206.301 181.28C207.328 180.267 208.575 179.76 210.041 179.76C211.508 179.76 212.748 180.267 213.761 181.28C214.788 182.28 215.301 183.52 215.301 185C215.301 186.48 214.788 187.727 213.761 188.74ZM207.241 187.82C208.001 188.58 208.935 188.96 210.041 188.96C211.148 188.96 212.081 188.58 212.841 187.82C213.601 187.047 213.981 186.107 213.981 185C213.981 183.893 213.601 182.96 212.841 182.2C212.081 181.427 211.148 181.04 210.041 181.04C208.935 181.04 208.001 181.427 207.241 182.2C206.481 182.96 206.101 183.893 206.101 185C206.101 186.107 206.481 187.047 207.241 187.82ZM225.62 180V190H224.3V181.28H219.78V185.74C219.78 187.407 219.46 188.553 218.82 189.18C218.193 189.807 217.326 190.08 216.22 190V188.76C216.98 188.84 217.54 188.66 217.9 188.22C218.273 187.78 218.46 186.953 218.46 185.74V180H225.62ZM232.776 183.8C233.709 183.8 234.496 184.093 235.136 184.68C235.789 185.253 236.116 185.993 236.116 186.9C236.116 187.807 235.789 188.553 235.136 189.14C234.496 189.713 233.709 190 232.776 190H228.716V180H230.036V183.8H232.776ZM232.776 188.72C233.336 188.72 233.809 188.553 234.196 188.22C234.596 187.887 234.796 187.447 234.796 186.9C234.796 186.353 234.596 185.913 234.196 185.58C233.809 185.247 233.336 185.08 232.776 185.08H230.036V188.72H232.776ZM245.49 180H246.81V190H245.49V185.64H239.73V190H238.41V180H239.73V184.36H245.49V180ZM253.962 183.8C254.895 183.8 255.682 184.093 256.322 184.68C256.975 185.253 257.302 185.993 257.302 186.9C257.302 187.807 256.975 188.553 256.322 189.14C255.682 189.713 254.895 190 253.962 190H249.902V180H251.222V183.8H253.962ZM258.702 180H260.022V190H258.702V180ZM253.962 188.72C254.522 188.72 254.995 188.553 255.382 188.22C255.782 187.887 255.982 187.447 255.982 186.9C255.982 186.353 255.782 185.913 255.382 185.58C254.995 185.247 254.522 185.08 253.962 185.08H251.222V188.72H253.962ZM267.751 179.76C269.231 179.76 270.425 180.287 271.331 181.34C272.251 182.38 272.711 183.613 272.711 185.04C272.711 185.187 272.698 185.393 272.671 185.66H263.891C264.025 186.673 264.451 187.48 265.171 188.08C265.905 188.667 266.805 188.96 267.871 188.96C268.631 188.96 269.285 188.807 269.831 188.5C270.391 188.18 270.811 187.767 271.091 187.26L272.251 187.94C271.811 188.647 271.211 189.207 270.451 189.62C269.691 190.033 268.825 190.24 267.851 190.24C266.278 190.24 264.998 189.747 264.011 188.76C263.025 187.773 262.531 186.52 262.531 185C262.531 183.507 263.018 182.26 263.991 181.26C264.965 180.26 266.218 179.76 267.751 179.76ZM267.751 181.04C266.711 181.04 265.838 181.353 265.131 181.98C264.438 182.593 264.025 183.393 263.891 184.38H271.351C271.218 183.327 270.811 182.507 270.131 181.92C269.451 181.333 268.658 181.04 267.751 181.04ZM287.611 180V181.28H284.071V190H282.751V181.28H279.211V180H287.611ZM297.509 188.74C296.496 189.74 295.256 190.24 293.789 190.24C292.322 190.24 291.076 189.74 290.049 188.74C289.036 187.727 288.529 186.48 288.529 185C288.529 183.52 289.036 182.28 290.049 181.28C291.076 180.267 292.322 179.76 293.789 179.76C295.256 179.76 296.496 180.267 297.509 181.28C298.536 182.28 299.049 183.52 299.049 185C299.049 186.48 298.536 187.727 297.509 188.74ZM290.989 187.82C291.749 188.58 292.682 188.96 293.789 188.96C294.896 188.96 295.829 188.58 296.589 187.82C297.349 187.047 297.729 186.107 297.729 185C297.729 183.893 297.349 182.96 296.589 182.2C295.829 181.427 294.896 181.04 293.789 181.04C292.682 181.04 291.749 181.427 290.989 182.2C290.229 182.96 289.849 183.893 289.849 185C289.849 186.107 290.229 187.047 290.989 187.82ZM307.842 180H309.162V190H307.842V186.2C307.069 186.6 306.116 186.8 304.982 186.8C303.676 186.8 302.676 186.5 301.982 185.9C301.302 185.287 300.962 184.387 300.962 183.2V180H302.282V183.2C302.282 184.04 302.502 184.647 302.942 185.02C303.382 185.38 304.049 185.56 304.942 185.56C305.982 185.56 306.949 185.367 307.842 184.98V180ZM320.348 190H318.588L313.588 185.18V190H312.268V180H313.588V184.42L318.348 180H320.148L314.988 184.8L320.348 190ZM329.731 180H330.851V190H329.531V182.3L323.571 190H322.451V180H323.771V187.7L329.731 180Z" fill="#6E7ABA"/>
<path d="M0 194H332.251V195H0V194Z" fill="#6E7ABA"/>
</g>
<g filter="url(#filter6_i_151_7718)">
<path d="M6.6 219C7.85333 219 8.9 219.42 9.74 220.26C10.58 221.1 11 222.147 11 223.4C11 224.653 10.58 225.7 9.74 226.54C8.9 227.38 7.85333 227.8 6.6 227.8H3V233H1.6V219H6.6ZM6.6 226.48C7.46667 226.48 8.18 226.193 8.74 225.62C9.31333 225.033 9.6 224.293 9.6 223.4C9.6 222.507 9.31333 221.773 8.74 221.2C8.18 220.613 7.46667 220.32 6.6 220.32H3V226.48H6.6ZM17.3161 222.76C18.7961 222.76 19.9894 223.287 20.8961 224.34C21.8161 225.38 22.2761 226.613 22.2761 228.04C22.2761 228.187 22.2628 228.393 22.2361 228.66H13.4561C13.5894 229.673 14.0161 230.48 14.7361 231.08C15.4694 231.667 16.3694 231.96 17.4361 231.96C18.1961 231.96 18.8494 231.807 19.3961 231.5C19.9561 231.18 20.3761 230.767 20.6561 230.26L21.8161 230.94C21.3761 231.647 20.7761 232.207 20.0161 232.62C19.2561 233.033 18.3894 233.24 17.4161 233.24C15.8428 233.24 14.5628 232.747 13.5761 231.76C12.5894 230.773 12.0961 229.52 12.0961 228C12.0961 226.507 12.5828 225.26 13.5561 224.26C14.5294 223.26 15.7828 222.76 17.3161 222.76ZM17.3161 224.04C16.2761 224.04 15.4028 224.353 14.6961 224.98C14.0028 225.593 13.5894 226.393 13.4561 227.38H20.9161C20.7828 226.327 20.3761 225.507 19.6961 224.92C19.0161 224.333 18.2228 224.04 17.3161 224.04ZM29.6405 227.86C30.8005 228.3 31.3805 229.1 31.3805 230.26C31.3805 231.087 31.0538 231.793 30.4005 232.38C29.7605 232.953 28.8405 233.24 27.6405 233.24C25.6271 233.24 24.3071 232.44 23.6805 230.84L24.8005 230.18C25.2138 231.367 26.1605 231.96 27.6405 231.96C28.4138 231.96 29.0071 231.793 29.4205 231.46C29.8471 231.127 30.0605 230.7 30.0605 230.18C30.0605 229.713 29.8871 229.333 29.5405 229.04C29.1938 228.747 28.7271 228.6 28.1405 228.6H26.6805V227.32H27.7405C28.3138 227.32 28.7605 227.18 29.0805 226.9C29.4138 226.607 29.5805 226.207 29.5805 225.7C29.5805 225.22 29.3871 224.827 29.0005 224.52C28.6138 224.2 28.0938 224.04 27.4405 224.04C26.1871 224.04 25.3538 224.54 24.9405 225.54L23.8405 224.9C24.5071 223.473 25.7071 222.76 27.4405 222.76C28.4938 222.76 29.3338 223.04 29.9605 223.6C30.5871 224.147 30.9005 224.82 30.9005 225.62C30.9005 226.647 30.4805 227.393 29.6405 227.86ZM40.4961 223H41.8961L37.6161 233.92C37.2294 234.907 36.6761 235.68 35.9561 236.24C35.2494 236.813 34.4561 237.067 33.5761 237V235.76C34.7761 235.893 35.6894 235.2 36.3161 233.68L36.5761 233.06L32.0961 223H33.4961L37.2561 231.38L40.4961 223ZM51.3859 223V233H50.0659V224.28H45.5459V228.74C45.5459 230.407 45.2259 231.553 44.5859 232.18C43.9593 232.807 43.0926 233.08 41.9859 233V231.76C42.7459 231.84 43.3059 231.66 43.6659 231.22C44.0393 230.78 44.2259 229.953 44.2259 228.74V223H51.3859ZM58.542 226.8C59.4754 226.8 60.262 227.093 60.902 227.68C61.5554 228.253 61.882 228.993 61.882 229.9C61.882 230.807 61.5554 231.553 60.902 232.14C60.262 232.713 59.4754 233 58.542 233H54.482V223H55.802V226.8H58.542ZM58.542 231.72C59.102 231.72 59.5754 231.553 59.962 231.22C60.362 230.887 60.562 230.447 60.562 229.9C60.562 229.353 60.362 228.913 59.962 228.58C59.5754 228.247 59.102 228.08 58.542 228.08H55.802V231.72H58.542ZM70.1852 223V224.28H66.6452V233H65.3252V224.28H61.7852V223H70.1852ZM80.3031 223H81.6231V233H80.3031V231.04C79.3831 232.507 78.0365 233.24 76.2631 233.24C74.8365 233.24 73.6165 232.733 72.6031 231.72C71.6031 230.707 71.1031 229.467 71.1031 228C71.1031 226.533 71.6031 225.293 72.6031 224.28C73.6165 223.267 74.8365 222.76 76.2631 222.76C78.0365 222.76 79.3831 223.493 80.3031 224.96V223ZM73.5631 230.82C74.3231 231.58 75.2565 231.96 76.3631 231.96C77.4698 231.96 78.4031 231.58 79.1631 230.82C79.9231 230.047 80.3031 229.107 80.3031 228C80.3031 226.893 79.9231 225.96 79.1631 225.2C78.4031 224.427 77.4698 224.04 76.3631 224.04C75.2565 224.04 74.3231 224.427 73.5631 225.2C72.8031 225.96 72.4231 226.893 72.4231 228C72.4231 229.107 72.8031 230.047 73.5631 230.82ZM91.918 223V224.28H88.378V233H87.058V224.28H83.518V223H91.918ZM97.8866 226.8C98.8199 226.8 99.6066 227.093 100.247 227.68C100.9 228.253 101.227 228.993 101.227 229.9C101.227 230.807 100.9 231.553 100.247 232.14C99.6066 232.713 98.8199 233 97.8866 233H93.8266V223H95.1466V226.8H97.8866ZM102.627 223H103.947V233H102.627V223ZM97.8866 231.72C98.4466 231.72 98.9199 231.553 99.3066 231.22C99.7066 230.887 99.9066 230.447 99.9066 229.9C99.9066 229.353 99.7066 228.913 99.3066 228.58C98.9199 228.247 98.4466 228.08 97.8866 228.08H95.1466V231.72H97.8866ZM120.756 223V233H119.436V224.28H113.676V233H112.356V223H120.756ZM129.208 222.76C130.634 222.76 131.848 223.267 132.848 224.28C133.861 225.293 134.368 226.533 134.368 228C134.368 229.467 133.861 230.707 132.848 231.72C131.848 232.733 130.634 233.24 129.208 233.24C127.434 233.24 126.088 232.507 125.168 231.04V237H123.848V223H125.168V224.96C126.088 223.493 127.434 222.76 129.208 222.76ZM126.308 230.82C127.068 231.58 128.001 231.96 129.108 231.96C130.214 231.96 131.148 231.58 131.908 230.82C132.668 230.047 133.048 229.107 133.048 228C133.048 226.893 132.668 225.96 131.908 225.2C131.148 224.427 130.214 224.04 129.108 224.04C128.001 224.04 127.068 224.427 126.308 225.2C125.548 225.96 125.168 226.893 125.168 228C125.168 229.107 125.548 230.047 126.308 230.82ZM145.242 231.74C144.229 232.74 142.989 233.24 141.522 233.24C140.056 233.24 138.809 232.74 137.782 231.74C136.769 230.727 136.262 229.48 136.262 228C136.262 226.52 136.769 225.28 137.782 224.28C138.809 223.267 140.056 222.76 141.522 222.76C142.989 222.76 144.229 223.267 145.242 224.28C146.269 225.28 146.782 226.52 146.782 228C146.782 229.48 146.269 230.727 145.242 231.74ZM138.722 230.82C139.482 231.58 140.416 231.96 141.522 231.96C142.629 231.96 143.562 231.58 144.322 230.82C145.082 230.047 145.462 229.107 145.462 228C145.462 226.893 145.082 225.96 144.322 225.2C143.562 224.427 142.629 224.04 141.522 224.04C140.416 224.04 139.482 224.427 138.722 225.2C137.962 225.96 137.582 226.893 137.582 228C137.582 229.107 137.962 230.047 138.722 230.82ZM153.911 222.76C155.391 222.76 156.585 223.287 157.491 224.34C158.411 225.38 158.871 226.613 158.871 228.04C158.871 228.187 158.858 228.393 158.831 228.66H150.051C150.185 229.673 150.611 230.48 151.331 231.08C152.065 231.667 152.965 231.96 154.031 231.96C154.791 231.96 155.445 231.807 155.991 231.5C156.551 231.18 156.971 230.767 157.251 230.26L158.411 230.94C157.971 231.647 157.371 232.207 156.611 232.62C155.851 233.033 154.985 233.24 154.011 233.24C152.438 233.24 151.158 232.747 150.171 231.76C149.185 230.773 148.691 229.52 148.691 228C148.691 226.507 149.178 225.26 150.151 224.26C151.125 223.26 152.378 222.76 153.911 222.76ZM153.911 224.04C152.871 224.04 151.998 224.353 151.291 224.98C150.598 225.593 150.185 226.393 150.051 227.38H157.511C157.378 226.327 156.971 225.507 156.291 224.92C155.611 224.333 154.818 224.04 153.911 224.04ZM169.351 233H167.591L162.591 228.18V233H161.271V223H162.591V227.42L167.351 223H169.151L163.991 227.8L169.351 233ZM178.654 223V224.28H175.114V233H173.794V224.28H170.254V223H178.654ZM188.772 223H190.092V233H188.772V231.04C187.852 232.507 186.505 233.24 184.732 233.24C183.305 233.24 182.085 232.733 181.072 231.72C180.072 230.707 179.572 229.467 179.572 228C179.572 226.533 180.072 225.293 181.072 224.28C182.085 223.267 183.305 222.76 184.732 222.76C186.505 222.76 187.852 223.493 188.772 224.96V223ZM182.032 230.82C182.792 231.58 183.725 231.96 184.832 231.96C185.939 231.96 186.872 231.58 187.632 230.82C188.392 230.047 188.772 229.107 188.772 228C188.772 226.893 188.392 225.96 187.632 225.2C186.872 224.427 185.939 224.04 184.832 224.04C183.725 224.04 182.792 224.427 182.032 225.2C181.272 225.96 180.892 226.893 180.892 228C180.892 229.107 181.272 230.047 182.032 230.82Z" fill="#6E7ABA"/>
<path d="M0 237H191.492V238H0V237Z" fill="#6E7ABA"/>
</g>
<g filter="url(#filter7_i_151_7718)">
<path d="M13.18 274.14C11.78 275.54 10.0667 276.24 8.04 276.24C6.01333 276.24 4.3 275.54 2.9 274.14C1.5 272.727 0.8 271.013 0.8 269C0.8 266.987 1.5 265.28 2.9 263.88C4.3 262.467 6.01333 261.76 8.04 261.76C10.0667 261.76 11.78 262.467 13.18 263.88C14.58 265.28 15.28 266.987 15.28 269C15.28 271.013 14.58 272.727 13.18 274.14ZM3.88 273.18C5 274.313 6.38667 274.88 8.04 274.88C9.69333 274.88 11.08 274.313 12.2 273.18C13.32 272.033 13.88 270.64 13.88 269C13.88 267.36 13.32 265.973 12.2 264.84C11.08 263.693 9.69333 263.12 8.04 263.12C6.38667 263.12 5 263.693 3.88 264.84C2.76 265.973 2.2 267.36 2.2 269C2.2 270.64 2.76 272.033 3.88 273.18ZM23.1342 265.76C24.5609 265.76 25.7742 266.267 26.7742 267.28C27.7876 268.293 28.2942 269.533 28.2942 271C28.2942 272.467 27.7876 273.707 26.7742 274.72C25.7742 275.733 24.5609 276.24 23.1342 276.24C21.3609 276.24 20.0142 275.507 19.0942 274.04V280H17.7742V266H19.0942V267.96C20.0142 266.493 21.3609 265.76 23.1342 265.76ZM20.2342 273.82C20.9942 274.58 21.9276 274.96 23.0342 274.96C24.1409 274.96 25.0742 274.58 25.8342 273.82C26.5942 273.047 26.9742 272.107 26.9742 271C26.9742 269.893 26.5942 268.96 25.8342 268.2C25.0742 267.427 24.1409 267.04 23.0342 267.04C21.9276 267.04 20.9942 267.427 20.2342 268.2C19.4742 268.96 19.0942 269.893 19.0942 271C19.0942 272.107 19.4742 273.047 20.2342 273.82ZM37.1891 266V267.28H32.1091V276H30.7891V266H37.1891ZM47.3063 266H48.6263V276H47.3063V274.04C46.3863 275.507 45.0396 276.24 43.2663 276.24C41.8396 276.24 40.6196 275.733 39.6063 274.72C38.6063 273.707 38.1063 272.467 38.1063 271C38.1063 269.533 38.6063 268.293 39.6063 267.28C40.6196 266.267 41.8396 265.76 43.2663 265.76C45.0396 265.76 46.3863 266.493 47.3063 267.96V266ZM40.5663 273.82C41.3263 274.58 42.2596 274.96 43.3663 274.96C44.4729 274.96 45.4063 274.58 46.1663 273.82C46.9263 273.047 47.3063 272.107 47.3063 271C47.3063 269.893 46.9263 268.96 46.1663 268.2C45.4063 267.427 44.4729 267.04 43.3663 267.04C42.2596 267.04 41.3263 267.427 40.5663 268.2C39.8063 268.96 39.4263 269.893 39.4263 271C39.4263 272.107 39.8063 273.047 40.5663 273.82ZM58.8011 266H60.1211V276H58.8011V271.64H53.0411V276H51.7211V266H53.0411V270.36H58.8011V266ZM70.4925 266H71.6125V276H70.2925V268.3L64.3325 276H63.2125V266H64.5325V273.7L70.4925 266ZM79.8639 270.86C81.0239 271.3 81.6039 272.1 81.6039 273.26C81.6039 274.087 81.2772 274.793 80.6239 275.38C79.9839 275.953 79.0639 276.24 77.8639 276.24C75.8506 276.24 74.5306 275.44 73.9039 273.84L75.0239 273.18C75.4372 274.367 76.3839 274.96 77.8639 274.96C78.6372 274.96 79.2306 274.793 79.6439 274.46C80.0706 274.127 80.2839 273.7 80.2839 273.18C80.2839 272.713 80.1106 272.333 79.7639 272.04C79.4172 271.747 78.9506 271.6 78.3639 271.6H76.9039V270.32H77.9639C78.5372 270.32 78.9839 270.18 79.3039 269.9C79.6372 269.607 79.8039 269.207 79.8039 268.7C79.8039 268.22 79.6106 267.827 79.2239 267.52C78.8372 267.2 78.3172 267.04 77.6639 267.04C76.4106 267.04 75.5772 267.54 75.1639 268.54L74.0639 267.9C74.7306 266.473 75.9306 265.76 77.6639 265.76C78.7172 265.76 79.5572 266.04 80.1839 266.6C80.8106 267.147 81.1239 267.82 81.1239 268.62C81.1239 269.647 80.7039 270.393 79.8639 270.86ZM92.5102 266H93.8302V276H92.5102V274.04C91.5902 275.507 90.2435 276.24 88.4702 276.24C87.0435 276.24 85.8235 275.733 84.8102 274.72C83.8102 273.707 83.3102 272.467 83.3102 271C83.3102 269.533 83.8102 268.293 84.8102 267.28C85.8235 266.267 87.0435 265.76 88.4702 265.76C90.2435 265.76 91.5902 266.493 92.5102 267.96V266ZM85.7702 273.82C86.5302 274.58 87.4635 274.96 88.5702 274.96C89.6768 274.96 90.6102 274.58 91.3702 273.82C92.1302 273.047 92.5102 272.107 92.5102 271C92.5102 269.893 92.1302 268.96 91.3702 268.2C90.6102 267.427 89.6768 267.04 88.5702 267.04C87.4635 267.04 86.5302 267.427 85.7702 268.2C85.0102 268.96 84.6302 269.893 84.6302 271C84.6302 272.107 85.0102 273.047 85.7702 273.82ZM105.125 274.72H106.725V278.68H105.405V276H96.925V266H98.245V274.72H103.805V266H105.125V274.72ZM116.302 266H117.422V276H116.102V268.3L110.142 276H109.022V266H110.342V273.7L116.302 266ZM128.893 274.74C127.88 275.74 126.64 276.24 125.173 276.24C123.707 276.24 122.46 275.74 121.433 274.74C120.42 273.727 119.913 272.48 119.913 271C119.913 269.52 120.42 268.28 121.433 267.28C122.46 266.267 123.707 265.76 125.173 265.76C126.64 265.76 127.88 266.267 128.893 267.28C129.92 268.28 130.433 269.52 130.433 271C130.433 272.48 129.92 273.727 128.893 274.74ZM122.373 273.82C123.133 274.58 124.067 274.96 125.173 274.96C126.28 274.96 127.213 274.58 127.973 273.82C128.733 273.047 129.113 272.107 129.113 271C129.113 269.893 128.733 268.96 127.973 268.2C127.213 267.427 126.28 267.04 125.173 267.04C124.067 267.04 123.133 267.427 122.373 268.2C121.613 268.96 121.233 269.893 121.233 271C121.233 272.107 121.613 273.047 122.373 273.82ZM140.022 266H141.342V276H140.022V271.64H134.262V276H132.942V266H134.262V270.36H140.022V266ZM151.514 266H152.834V276H151.514V271.64H145.754V276H144.434V266H145.754V270.36H151.514V266ZM164.525 266H165.845V276H164.525V274.04C163.605 275.507 162.258 276.24 160.485 276.24C159.058 276.24 157.838 275.733 156.825 274.72C155.825 273.707 155.325 272.467 155.325 271C155.325 269.533 155.825 268.293 156.825 267.28C157.838 266.267 159.058 265.76 160.485 265.76C162.258 265.76 163.605 266.493 164.525 267.96V266ZM157.785 273.82C158.545 274.58 159.478 274.96 160.585 274.96C161.692 274.96 162.625 274.58 163.385 273.82C164.145 273.047 164.525 272.107 164.525 271C164.525 269.893 164.145 268.96 163.385 268.2C162.625 267.427 161.692 267.04 160.585 267.04C159.478 267.04 158.545 267.427 157.785 268.2C157.025 268.96 156.645 269.893 156.645 271C156.645 272.107 157.025 273.047 157.785 273.82ZM176.14 266V276H174.82V272.16H173.1L170.02 276H168.34L171.5 272.12C170.7 272 170.04 271.667 169.52 271.12C169 270.573 168.74 269.9 168.74 269.1C168.74 268.193 169.06 267.453 169.7 266.88C170.353 266.293 171.147 266 172.08 266H176.14ZM172.08 270.92H174.82V267.28H172.08C171.52 267.28 171.04 267.447 170.64 267.78C170.253 268.113 170.06 268.553 170.06 269.1C170.06 269.647 170.253 270.087 170.64 270.42C171.04 270.753 171.52 270.92 172.08 270.92ZM189.2 276.24C187.693 276.24 186.44 275.74 185.44 274.74C184.44 273.727 183.94 272.48 183.94 271C183.94 269.52 184.44 268.28 185.44 267.28C186.44 266.267 187.693 265.76 189.2 265.76C190.187 265.76 191.073 266 191.86 266.48C192.647 266.947 193.22 267.58 193.58 268.38L192.5 269C192.233 268.4 191.8 267.927 191.2 267.58C190.613 267.22 189.947 267.04 189.2 267.04C188.093 267.04 187.16 267.427 186.4 268.2C185.64 268.96 185.26 269.893 185.26 271C185.26 272.107 185.64 273.047 186.4 273.82C187.16 274.58 188.093 274.96 189.2 274.96C189.947 274.96 190.613 274.787 191.2 274.44C191.787 274.08 192.247 273.6 192.58 273L193.68 273.64C193.267 274.44 192.66 275.073 191.86 275.54C191.06 276.007 190.173 276.24 189.2 276.24ZM202.88 266V267.28H199.34V276H198.02V267.28H194.48V266H202.88ZM210.148 265.76C211.575 265.76 212.788 266.267 213.788 267.28C214.802 268.293 215.308 269.533 215.308 271C215.308 272.467 214.802 273.707 213.788 274.72C212.788 275.733 211.575 276.24 210.148 276.24C208.375 276.24 207.028 275.507 206.108 274.04V280H204.788V266H206.108V267.96C207.028 266.493 208.375 265.76 210.148 265.76ZM207.248 273.82C208.008 274.58 208.942 274.96 210.048 274.96C211.155 274.96 212.088 274.58 212.848 273.82C213.608 273.047 213.988 272.107 213.988 271C213.988 269.893 213.608 268.96 212.848 268.2C212.088 267.427 211.155 267.04 210.048 267.04C208.942 267.04 208.008 267.427 207.248 268.2C206.488 268.96 206.108 269.893 206.108 271C206.108 272.107 206.488 273.047 207.248 273.82ZM224.612 266H226.012L221.732 276.92C221.346 277.907 220.792 278.68 220.072 279.24C219.366 279.813 218.572 280.067 217.692 280V278.76C218.892 278.893 219.806 278.2 220.432 276.68L220.692 276.06L216.212 266H217.612L221.372 274.38L224.612 266ZM235.988 276H234.228L229.228 271.18V276H227.908V266H229.228V270.42L233.988 266H235.788L230.628 270.8L235.988 276ZM245.291 266V267.28H241.751V276H240.431V267.28H236.891V266H245.291ZM254.399 266H255.799L251.519 276.92C251.133 277.907 250.579 278.68 249.859 279.24C249.153 279.813 248.359 280.067 247.479 280V278.76C248.679 278.893 249.593 278.2 250.219 276.68L250.479 276.06L245.999 266H247.399L251.159 274.38L254.399 266ZM263.055 265.76C264.481 265.76 265.695 266.267 266.695 267.28C267.708 268.293 268.215 269.533 268.215 271C268.215 272.467 267.708 273.707 266.695 274.72C265.695 275.733 264.481 276.24 263.055 276.24C261.281 276.24 259.935 275.507 259.015 274.04V280H257.695V266H259.015V267.96C259.935 266.493 261.281 265.76 263.055 265.76ZM260.155 273.82C260.915 274.58 261.848 274.96 262.955 274.96C264.061 274.96 264.995 274.58 265.755 273.82C266.515 273.047 266.895 272.107 266.895 271C266.895 269.893 266.515 268.96 265.755 268.2C264.995 267.427 264.061 267.04 262.955 267.04C261.848 267.04 260.915 267.427 260.155 268.2C259.395 268.96 259.015 269.893 259.015 271C259.015 272.107 259.395 273.047 260.155 273.82ZM279.309 266H280.629V276H279.309V274.04C278.389 275.507 277.043 276.24 275.269 276.24C273.843 276.24 272.623 275.733 271.609 274.72C270.609 273.707 270.109 272.467 270.109 271C270.109 269.533 270.609 268.293 271.609 267.28C272.623 266.267 273.843 265.76 275.269 265.76C277.043 265.76 278.389 266.493 279.309 267.96V266ZM272.569 273.82C273.329 274.58 274.263 274.96 275.369 274.96C276.476 274.96 277.409 274.58 278.169 273.82C278.929 273.047 279.309 272.107 279.309 271C279.309 269.893 278.929 268.96 278.169 268.2C277.409 267.427 276.476 267.04 275.369 267.04C274.263 267.04 273.329 267.427 272.569 268.2C271.809 268.96 271.429 269.893 271.429 271C271.429 272.107 271.809 273.047 272.569 273.82Z" fill="#6E7ABA"/>
<path d="M0 280H282.029V281H0V280Z" fill="#6E7ABA"/>
</g>
<g filter="url(#filter8_i_151_7718)">
<path d="M11.4 319H9.56L3 312.22V319H1.6V305H3V311.4L9.36 305H11.2L4.48 311.8L11.4 319ZM21.0031 309H22.3231V319H21.0031V317.04C20.0831 318.507 18.7365 319.24 16.9631 319.24C15.5365 319.24 14.3165 318.733 13.3031 317.72C12.3031 316.707 11.8031 315.467 11.8031 314C11.8031 312.533 12.3031 311.293 13.3031 310.28C14.3165 309.267 15.5365 308.76 16.9631 308.76C18.7365 308.76 20.0831 309.493 21.0031 310.96V309ZM14.2631 316.82C15.0231 317.58 15.9565 317.96 17.0631 317.96C18.1698 317.96 19.1031 317.58 19.8631 316.82C20.6231 316.047 21.0031 315.107 21.0031 314C21.0031 312.893 20.6231 311.96 19.8631 311.2C19.1031 310.427 18.1698 310.04 17.0631 310.04C15.9565 310.04 15.0231 310.427 14.2631 311.2C13.5031 311.96 13.1231 312.893 13.1231 314C13.1231 315.107 13.5031 316.047 14.2631 316.82ZM30.778 308.76C32.2046 308.76 33.418 309.267 34.418 310.28C35.4313 311.293 35.938 312.533 35.938 314C35.938 315.467 35.4313 316.707 34.418 317.72C33.418 318.733 32.2046 319.24 30.778 319.24C29.0046 319.24 27.658 318.507 26.738 317.04V323H25.418V309H26.738V310.96C27.658 309.493 29.0046 308.76 30.778 308.76ZM27.878 316.82C28.638 317.58 29.5713 317.96 30.678 317.96C31.7846 317.96 32.718 317.58 33.478 316.82C34.238 316.047 34.618 315.107 34.618 314C34.618 312.893 34.238 311.96 33.478 311.2C32.718 310.427 31.7846 310.04 30.678 310.04C29.5713 310.04 28.638 310.427 27.878 311.2C27.118 311.96 26.738 312.893 26.738 314C26.738 315.107 27.118 316.047 27.878 316.82ZM45.2422 309V310.28H41.7022V319H40.3822V310.28H36.8422V309H45.2422ZM55.3602 309H56.6802V319H55.3602V317.04C54.4402 318.507 53.0935 319.24 51.3202 319.24C49.8935 319.24 48.6735 318.733 47.6602 317.72C46.6602 316.707 46.1602 315.467 46.1602 314C46.1602 312.533 46.6602 311.293 47.6602 310.28C48.6735 309.267 49.8935 308.76 51.3202 308.76C53.0935 308.76 54.4402 309.493 55.3602 310.96V309ZM48.6202 316.82C49.3802 317.58 50.3135 317.96 51.4202 317.96C52.5268 317.96 53.4602 317.58 54.2202 316.82C54.9802 316.047 55.3602 315.107 55.3602 314C55.3602 312.893 54.9802 311.96 54.2202 311.2C53.4602 310.427 52.5268 310.04 51.4202 310.04C50.3135 310.04 49.3802 310.427 48.6202 311.2C47.8602 311.96 47.4802 312.893 47.4802 314C47.4802 315.107 47.8602 316.047 48.6202 316.82ZM73.155 319H71.395L66.395 314.18V319H65.075V309H66.395V313.42L71.155 309H72.955L67.795 313.8L73.155 319ZM82.6417 317.74C81.6284 318.74 80.3884 319.24 78.9217 319.24C77.4551 319.24 76.2084 318.74 75.1817 317.74C74.1684 316.727 73.6617 315.48 73.6617 314C73.6617 312.52 74.1684 311.28 75.1817 310.28C76.2084 309.267 77.4551 308.76 78.9217 308.76C80.3884 308.76 81.6284 309.267 82.6417 310.28C83.6684 311.28 84.1817 312.52 84.1817 314C84.1817 315.48 83.6684 316.727 82.6417 317.74ZM76.1217 316.82C76.8817 317.58 77.8151 317.96 78.9217 317.96C80.0284 317.96 80.9617 317.58 81.7217 316.82C82.4817 316.047 82.8617 315.107 82.8617 314C82.8617 312.893 82.4817 311.96 81.7217 311.2C80.9617 310.427 80.0284 310.04 78.9217 310.04C77.8151 310.04 76.8817 310.427 76.1217 311.2C75.3617 311.96 74.9817 312.893 74.9817 314C74.9817 315.107 75.3617 316.047 76.1217 316.82ZM96.4906 309V319H95.1706V311.02L91.6706 316.7H91.5106L88.0106 311.02V319H86.6906V309H88.2106L91.5906 314.48L94.9706 309H96.4906ZM109.388 309V319H108.068V311.02L104.568 316.7H104.408L100.908 311.02V319H99.5883V309H101.108L104.488 314.48L107.868 309H109.388ZM119.686 309H121.086L116.806 319.92C116.419 320.907 115.866 321.68 115.146 322.24C114.439 322.813 113.646 323.067 112.766 323V321.76C113.966 321.893 114.879 321.2 115.506 319.68L115.766 319.06L111.286 309H112.686L116.446 317.38L119.686 309ZM130.061 309H131.381V319H130.061V314.64H124.301V319H122.981V309H124.301V313.36H130.061V309ZM141.753 309H142.873V319H141.553V311.3L135.593 319H134.473V309H135.793V316.7L141.753 309ZM154.044 319H152.284L147.284 314.18V319H145.964V309H147.284V313.42L152.044 309H153.844L148.684 313.8L154.044 319ZM163.751 309H165.071V319H163.751V317.04C162.831 318.507 161.484 319.24 159.711 319.24C158.284 319.24 157.064 318.733 156.051 317.72C155.051 316.707 154.551 315.467 154.551 314C154.551 312.533 155.051 311.293 156.051 310.28C157.064 309.267 158.284 308.76 159.711 308.76C161.484 308.76 162.831 309.493 163.751 310.96V309ZM157.011 316.82C157.771 317.58 158.704 317.96 159.811 317.96C160.917 317.96 161.851 317.58 162.611 316.82C163.371 316.047 163.751 315.107 163.751 314C163.751 312.893 163.371 311.96 162.611 311.2C161.851 310.427 160.917 310.04 159.811 310.04C158.704 310.04 157.771 310.427 157.011 311.2C156.251 311.96 155.871 312.893 155.871 314C155.871 315.107 156.251 316.047 157.011 316.82ZM176.366 317.72H177.966V321.68H176.646V319H168.166V309H169.486V317.72H175.046V309H176.366V317.72ZM187.543 309H188.663V319H187.343V311.3L181.383 319H180.263V309H181.583V316.7L187.543 309ZM193.354 307.4V306.24H198.554V307.4H193.354ZM199.034 309H200.154V319H198.834V311.3L192.874 319H191.754V309H193.074V316.7L199.034 309Z" fill="#6E7ABA"/>
<path d="M0 323H201.554V324H0V323Z" fill="#6E7ABA"/>
</g>
<defs>
<filter id="filter0_i_151_7718" x="1.94727" y="4" width="228.311" height="19.356" filterUnits="userSpaceOnUse" color-interpolation-filters="sRGB">
<feFlood flood-opacity="0" result="BackgroundImageFix"/>
<feBlend mode="normal" in="SourceGraphic" in2="BackgroundImageFix" result="shape"/>
<feColorMatrix in="SourceAlpha" type="matrix" values="0 0 0 0 0 0 0 0 0 0 0 0 0 0 0 0 0 0 127 0" result="hardAlpha"/>
<feOffset dy="1.35595"/>
<feGaussianBlur stdDeviation="1.35595"/>
<feComposite in2="hardAlpha" operator="arithmetic" k2="-1" k3="1"/>
<feColorMatrix type="matrix" values="0 0 0 0 0 0 0 0 0 0 0 0 0 0 0 0 0 0 0.15 0"/>
<feBlend mode="normal" in2="shape" result="effect1_innerShadow_151_7718"/>
</filter>
<filter id="filter1_i_151_7718" x="1.97168" y="348" width="82.2622" height="18.0361" filterUnits="userSpaceOnUse" color-interpolation-filters="sRGB">
<feFlood flood-opacity="0" result="BackgroundImageFix"/>
<feBlend mode="normal" in="SourceGraphic" in2="BackgroundImageFix" result="shape"/>
<feColorMatrix in="SourceAlpha" type="matrix" values="0 0 0 0 0 0 0 0 0 0 0 0 0 0 0 0 0 0 127 0" result="hardAlpha"/>
<feOffset dy="1.35595"/>
<feGaussianBlur stdDeviation="1.35595"/>
<feComposite in2="hardAlpha" operator="arithmetic" k2="-1" k3="1"/>
<feColorMatrix type="matrix" values="0 0 0 0 0 0 0 0 0 0 0 0 0 0 0 0 0 0 0.15 0"/>
<feBlend mode="normal" in2="shape" result="effect1_innerShadow_151_7718"/>
</filter>
<filter id="filter2_i_151_7718" x="0.645996" y="90" width="116.713" height="19.356" filterUnits="userSpaceOnUse" color-interpolation-filters="sRGB">
<feFlood flood-opacity="0" result="BackgroundImageFix"/>
<feBlend mode="normal" in="SourceGraphic" in2="BackgroundImageFix" result="shape"/>
<feColorMatrix in="SourceAlpha" type="matrix" values="0 0 0 0 0 0 0 0 0 0 0 0 0 0 0 0 0 0 127 0" result="hardAlpha"/>
<feOffset dy="1.35595"/>
<feGaussianBlur stdDeviation="1.35595"/>
<feComposite in2="hardAlpha" operator="arithmetic" k2="-1" k3="1"/>
<feColorMatrix type="matrix" values="0 0 0 0 0 0 0 0 0 0 0 0 0 0 0 0 0 0 0.15 0"/>
<feBlend mode="normal" in2="shape" result="effect1_innerShadow_151_7718"/>
</filter>
<filter id="filter3_i_151_7718" x="1.9873" y="47" width="136.234" height="18.0361" filterUnits="userSpaceOnUse" color-interpolation-filters="sRGB">
<feFlood flood-opacity="0" result="BackgroundImageFix"/>
<feBlend mode="normal" in="SourceGraphic" in2="BackgroundImageFix" result="shape"/>
<feColorMatrix in="SourceAlpha" type="matrix" values="0 0 0 0 0 0 0 0 0 0 0 0 0 0 0 0 0 0 127 0" result="hardAlpha"/>
<feOffset dy="1.35595"/>
<feGaussianBlur stdDeviation="1.35595"/>
<feComposite in2="hardAlpha" operator="arithmetic" k2="-1" k3="1"/>
<feColorMatrix type="matrix" values="0 0 0 0 0 0 0 0 0 0 0 0 0 0 0 0 0 0 0.15 0"/>
<feBlend mode="normal" in2="shape" result="effect1_innerShadow_151_7718"/>
</filter>
<filter id="filter4_i_151_7718" x="0.965332" y="132.7" width="268.469" height="19.6558" filterUnits="userSpaceOnUse" color-interpolation-filters="sRGB">
<feFlood flood-opacity="0" result="BackgroundImageFix"/>
<feBlend mode="normal" in="SourceGraphic" in2="BackgroundImageFix" result="shape"/>
<feColorMatrix in="SourceAlpha" type="matrix" values="0 0 0 0 0 0 0 0 0 0 0 0 0 0 0 0 0 0 127 0" result="hardAlpha"/>
<feOffset dy="1.35595"/>
<feGaussianBlur stdDeviation="1.35595"/>
<feComposite in2="hardAlpha" operator="arithmetic" k2="-1" k3="1"/>
<feColorMatrix type="matrix" values="0 0 0 0 0 0 0 0 0 0 0 0 0 0 0 0 0 0 0.15 0"/>
<feBlend mode="normal" in2="shape" result="effect1_innerShadow_151_7718"/>
</filter>
<filter id="filter5_i_151_7718" x="1.6001" y="175.7" width="329.25" height="19.6558" filterUnits="userSpaceOnUse" color-interpolation-filters="sRGB">
<feFlood flood-opacity="0" result="BackgroundImageFix"/>
<feBlend mode="normal" in="SourceGraphic" in2="BackgroundImageFix" result="shape"/>
<feColorMatrix in="SourceAlpha" type="matrix" values="0 0 0 0 0 0 0 0 0 0 0 0 0 0 0 0 0 0 127 0" result="hardAlpha"/>
<feOffset dy="1.35595"/>
<feGaussianBlur stdDeviation="1.35595"/>
<feComposite in2="hardAlpha" operator="arithmetic" k2="-1" k3="1"/>
<feColorMatrix type="matrix" values="0 0 0 0 0 0 0 0 0 0 0 0 0 0 0 0 0 0 0.15 0"/>
<feBlend mode="normal" in2="shape" result="effect1_innerShadow_151_7718"/>
</filter>
<filter id="filter6_i_151_7718" x="1.6001" y="219" width="188.492" height="19.456" filterUnits="userSpaceOnUse" color-interpolation-filters="sRGB">
<feFlood flood-opacity="0" result="BackgroundImageFix"/>
<feBlend mode="normal" in="SourceGraphic" in2="BackgroundImageFix" result="shape"/>
<feColorMatrix in="SourceAlpha" type="matrix" values="0 0 0 0 0 0 0 0 0 0 0 0 0 0 0 0 0 0 127 0" result="hardAlpha"/>
<feOffset dy="1.35595"/>
<feGaussianBlur stdDeviation="1.35595"/>
<feComposite in2="hardAlpha" operator="arithmetic" k2="-1" k3="1"/>
<feColorMatrix type="matrix" values="0 0 0 0 0 0 0 0 0 0 0 0 0 0 0 0 0 0 0.15 0"/>
<feBlend mode="normal" in2="shape" result="effect1_innerShadow_151_7718"/>
</filter>
<filter id="filter7_i_151_7718" x="0.799805" y="261.76" width="279.83" height="19.6963" filterUnits="userSpaceOnUse" color-interpolation-filters="sRGB">
<feFlood flood-opacity="0" result="BackgroundImageFix"/>
<feBlend mode="normal" in="SourceGraphic" in2="BackgroundImageFix" result="shape"/>
<feColorMatrix in="SourceAlpha" type="matrix" values="0 0 0 0 0 0 0 0 0 0 0 0 0 0 0 0 0 0 127 0" result="hardAlpha"/>
<feOffset dy="1.35595"/>
<feGaussianBlur stdDeviation="1.35595"/>
<feComposite in2="hardAlpha" operator="arithmetic" k2="-1" k3="1"/>
<feColorMatrix type="matrix" values="0 0 0 0 0 0 0 0 0 0 0 0 0 0 0 0 0 0 0.15 0"/>
<feBlend mode="normal" in2="shape" result="effect1_innerShadow_151_7718"/>
</filter>
<filter id="filter8_i_151_7718" x="1.6001" y="305" width="198.554" height="19.456" filterUnits="userSpaceOnUse" color-interpolation-filters="sRGB">
<feFlood flood-opacity="0" result="BackgroundImageFix"/>
<feBlend mode="normal" in="SourceGraphic" in2="BackgroundImageFix" result="shape"/>
<feColorMatrix in="SourceAlpha" type="matrix" values="0 0 0 0 0 0 0 0 0 0 0 0 0 0 0 0 0 0 127 0" result="hardAlpha"/>
<feOffset dy="1.35595"/>
<feGaussianBlur stdDeviation="1.35595"/>
<feComposite in2="hardAlpha" operator="arithmetic" k2="-1" k3="1"/>
<feColorMatrix type="matrix" values="0 0 0 0 0 0 0 0 0 0 0 0 0 0 0 0 0 0 0.15 0"/>
<feBlend mode="normal" in2="shape" result="effect1_innerShadow_151_7718"/>
</filter>
</defs>
</svg>
