<svg xmlns="http://www.w3.org/2000/svg" viewBox="0 0 898.35 590.32"><defs><style>.cls-1{fill:#c9cde9;}.cls-2,.cls-4{fill:#b1b6dd;}.cls-3{opacity:0.5;}.cls-4,.cls-5{opacity:0.75;}.cls-10,.cls-11,.cls-5{fill:none;}.cls-5{stroke:#f18637;}.cls-10,.cls-15,.cls-17,.cls-5{stroke-miterlimit:10;}.cls-17,.cls-6{fill:#f59d5c;}.cls-7{fill:#636eb2;}.cls-8{fill:#f18637;}.cls-9{fill:#4752a0;}.cls-10{stroke:#312783;}.cls-12{fill:#2a2c62;}.cls-13,.cls-15{fill:#302d7e;}.cls-14{fill:#fcd4b6;}.cls-15,.cls-17{stroke:#683c11;}.cls-16{fill:#414a9a;}.cls-18{fill:#232349;}</style></defs><title>Мой проект</title><g id="Слой_2" data-name="Слой 2"><g id="Слой_4" data-name="Слой 4"><path class="cls-1" d="M835.43,584c-59.43,25-101-30.56-202.21-56.68-65.4-16.89-134-7.18-271.15,12.25-53.27,7.55-203.34,18.49-251.23,23-34.4,3.22-71.9,6.77-93.45-16.85-26.81-29.38-20.94-92,6.13-110.3,12.25-8.27,22.9-3.45,39.83-15.32,17.56-12.32,24.55-30.44,27.57-38.3,16.46-42.7-8.87-84-19.91-148.59-4.75-27.7-12.93-75.55-2.69-119,4.62-19.66,13-38.44,27.2-54.06C120.14,33,155.33,22.92,166,20.27c25.1-6.24,44.43-3.87,73.53,0C372.05,37.89,372.76,41.91,397.3,40.19c54.18-3.8,44.86-22.94,114.9-33.71C547.07,1.12,599-6.85,657.73,11.08c41.58,12.68,54.19,28.44,91.91,27.57,19.61-.45,31.94-5.07,41.89-8.57,9.75-3.44,17.22-5.81,27.05-2.15C859.23,43.06,862,132.27,863,165.8c2.18,71.09-14.76,77.69-13.79,168.51.83,78.27,13.74,104.06,19.91,114.9,14.23,25,27.74,31.93,29.11,52.08C900.46,534,868.57,570.09,835.43,584Z"/><path class="cls-2" d="M835.43,584c-59.43,25-101-30.56-202.21-56.68-65.4-16.89-134-7.18-271.15,12.25-53.27,7.55-203.34,18.49-251.23,23-34.4,3.22-71.9,6.77-93.45-16.85-26.81-29.38-20.94-92,6.13-110.3,12.25-8.27,22.9-3.45,39.83-15.32,17.56-12.32,24.55-30.44,27.57-38.3,16.46-42.7-8.87-84-19.91-148.59-4.75-27.7-12.93-75.55-2.69-119,52,32.84,98.3,102.8,100.5,168.08,2.47,73.34-51.12,128.87-23,165.44,13,16.95,36.32,20.31,70.46,21.45,110.6,3.7,153.09-21.92,225.19-27.57,119-9.33,135.47,50.11,274.22,36.76,42.16-4.05,108.19-10.41,122.55-47.49,13.1-33.82-28.53-62.93-46-151.66-4.48-22.82-5-44.32-6.12-87.32-1.81-70.94-3.22-126.2,5.34-161.77,9.75-3.44,17.22-5.81,27.05-2.15C859.23,43.06,862,132.27,863,165.8c2.18,71.09-14.76,77.69-13.79,168.51.83,78.27,13.74,104.06,19.91,114.9,14.23,25,27.74,31.93,29.11,52.08C900.46,534,868.57,570.09,835.43,584Z"/></g><g id="Слой_2-2" data-name="Слой 2"><g class="cls-3"><rect class="cls-4" x="273.54" y="187.98" width="379.24" height="145.75" rx="28.34" transform="matrix(1, -0.02, 0.02, 1, -5.68, 10.35)"/><path class="cls-5" d="M320.61,296.7c8.29-40.41,13.81-53.49,17.6-53.18,7.5.62,6.87,53.67,17.5,54.91,9.75,1.15,15-43,35.28-46,15.21-2.26,20.24,21.33,41.85,24.2,25.32,3.37,35.42-26.74,62.06-24,21.11,2.17,22.2,21.82,41.83,22.95,26.55,1.53,38.47-33.64,63.15-31.56,13.74,1.16,24,13.25,30.56,23.2"/></g><path class="cls-6" d="M406.32,298.9l-11,9.71a76.46,76.46,0,0,1-19.19-50.76h14.68A61.82,61.82,0,0,0,406.32,298.9Z"/><path class="cls-7" d="M452.49,334.57a76.54,76.54,0,0,1-57.17-26l11-9.71a61.94,61.94,0,0,0,46.16,21Z"/><path class="cls-8" d="M510.25,308.76a76.49,76.49,0,0,1-57.4,25.81h-.36V319.9h.37a61.87,61.87,0,0,0,46.39-20.85Z"/><path class="cls-9" d="M529.59,257.85a76.34,76.34,0,0,1-19.34,50.91l-11-9.71a61.78,61.78,0,0,0,15.67-41.2Z"/><path class="cls-6" d="M529.59,257.85H514.91A61.8,61.8,0,0,0,499.4,216.8l11-9.72A76.5,76.5,0,0,1,529.59,257.85Z"/><path class="cls-8" d="M510.39,207.08l-11,9.72a61.89,61.89,0,0,0-46.55-21h-.47V181.11h.48A76.55,76.55,0,0,1,510.39,207.08Z"/><path class="cls-7" d="M452.38,195.79A61.87,61.87,0,0,0,406.18,217l-11-9.71a76.56,76.56,0,0,1,57.2-26.14Z"/><path class="cls-9" d="M406.18,217a61.76,61.76,0,0,0-15.37,40.89H376.13a76.49,76.49,0,0,1,19-50.6Z"/><polyline class="cls-10" points="452.85 257.85 452.54 257.85 452.43 257.85"/><polyline class="cls-10" points="452.85 257.85 452.69 257.99 452.43 258.22"/><polyline class="cls-10" points="452.43 257.76 452.54 257.85 452.69 257.99"/><polyline class="cls-10" points="452.43 258.22 452.43 257.85 452.43 257.76"/><path class="cls-7" d="M327,358.77a46.16,46.16,0,0,1-43.49,46.08l-2.68-46.08Z"/><path class="cls-8" d="M327,358.77H280.84l-22.55,18.29,57.92-48A46,46,0,0,1,327,358.77Z"/><path class="cls-6" d="M316.21,329.09l-57.92,48L245,387.85a46.17,46.17,0,0,1,71.22-58.76Z"/><line class="cls-11" x1="258.29" y1="377.06" x2="250.04" y2="383.9"/><rect class="cls-9" x="613.78" y="105.09" width="16.65" height="131.65"/><rect class="cls-7" x="641.54" y="119.74" width="16.65" height="117"/><rect class="cls-9" x="669.3" y="181.6" width="16.65" height="54.98"/><rect class="cls-8" x="697.05" y="148.82" width="16.65" height="87.76"/><rect class="cls-6" x="724.81" y="127.67" width="16.65" height="108.91"/><path class="cls-12" d="M553.87,468.28c1.28,1.65.35,2.87.73,8.36.22,3.08.56,3.63,0,4.34-1.58,2-6.61.69-8.51.21a25,25,0,0,1-4.26-1.56c-8.87-4.14-14.79-.46-19.23-4.94-2.38-2.37-3.55-6.17-2.4-7.54.83-1,2.71-.63,4.26-.32,12.49,2.53,18.22,6.17,21.38,3.84,1.81-1.36,1.48-3.7,3.52-4.24A4.74,4.74,0,0,1,553.87,468.28Z"/><path class="cls-13" d="M553.87,468.28a3.9,3.9,0,0,1,.72,2.74v2.89a44.43,44.43,0,0,0,.47,5.75,1.82,1.82,0,0,1-.34,1.48,2.84,2.84,0,0,1-1.26.84,8.21,8.21,0,0,1-3,.3,29.5,29.5,0,0,1-5.74-1.08c-1.89-.52-3.64-1.48-5.41-2a24.87,24.87,0,0,0-5.54-1.05c-1.89-.17-3.8-.12-5.78-.33a13.63,13.63,0,0,1-3-.66,8.85,8.85,0,0,1-2.68-1.66,10.75,10.75,0,0,1-3.13-5.25,4.24,4.24,0,0,1,.31-3.36,2.43,2.43,0,0,1,1.65-1,5.57,5.57,0,0,1,1.63,0,92.91,92.91,0,0,1,11.27,3c1.84.57,3.67,1.19,5.51,1.71a17.8,17.8,0,0,0,2.79.61,5.24,5.24,0,0,0,2.77-.28,4,4,0,0,0,1.92-2,4.65,4.65,0,0,1,1.71-2.29,3.44,3.44,0,0,1,2.81,0A5.25,5.25,0,0,1,553.87,468.28Zm0,0a5.08,5.08,0,0,0-2.3-1.65,3.42,3.42,0,0,0-2.8,0c-.87.46-1.18,1.48-1.6,2.31a4.26,4.26,0,0,1-1.95,2.13,5.56,5.56,0,0,1-3,.41,18.6,18.6,0,0,1-2.88-.47c-1.88-.45-3.73-1-5.6-1.48a101.4,101.4,0,0,0-11.2-2.4c-.88-.09-1.8,0-2,.47a3.31,3.31,0,0,0,0,2.24,9.39,9.39,0,0,0,2.75,4.44,7.37,7.37,0,0,0,2.21,1.39,12.43,12.43,0,0,0,2.63.62c1.84.22,3.8.25,5.74.47a24.59,24.59,0,0,1,5.74,1.35c1.88.68,3.52,1.67,5.33,2.25a27.16,27.16,0,0,0,5.55,1.31,7.43,7.43,0,0,0,2.78-.14,1.79,1.79,0,0,0,1.48-2,53,53,0,0,1-.31-5.77V470.9A3.85,3.85,0,0,0,553.87,468.28Z"/><path class="cls-12" d="M593.11,466.73c1.26,1.66.34,2.87.73,8.36.2,3.08.56,3.62,0,4.33-1.59,2-6.62.71-8.51.21a22.16,22.16,0,0,1-4.26-1.48c-8.88-4.14-14.8-.46-19.31-4.95-2.37-2.36-3.55-6.16-2.38-7.53.81-1,2.69-.63,4.24-.32,12.51,2.52,18.23,6.17,21.38,3.82,1.82-1.34,1.48-3.7,3.54-4.23A4.74,4.74,0,0,1,593.11,466.73Z"/><path class="cls-13" d="M593.11,466.73a4,4,0,0,1,.71,2.74c0,1-.07,1.94,0,3a50.43,50.43,0,0,0,.46,5.75,1.75,1.75,0,0,1-.34,1.48,2.77,2.77,0,0,1-1.24.84,8,8,0,0,1-3,.32,29.36,29.36,0,0,1-5.74-1.08c-1.91-.52-3.64-1.48-5.42-2a24.54,24.54,0,0,0-5.62-1.17c-1.88-.18-3.79-.13-5.78-.34a12.46,12.46,0,0,1-3-.67,8.87,8.87,0,0,1-2.67-1.64,10.81,10.81,0,0,1-3.15-5.25,4.27,4.27,0,0,1,.33-3.37,2.33,2.33,0,0,1,1.65-.95,6.27,6.27,0,0,1,1.62,0,93.39,93.39,0,0,1,11.27,3c1.85.57,3.67,1.2,5.52,1.71a15.69,15.69,0,0,0,2.78.61,5.08,5.08,0,0,0,2.78-.27,4.06,4.06,0,0,0,1.93-2,4.58,4.58,0,0,1,1.68-2.29,3.49,3.49,0,0,1,2.83,0A5.37,5.37,0,0,1,593.11,466.73Zm0,0a5.35,5.35,0,0,0-2.32-1.66,3.53,3.53,0,0,0-2.78,0c-.88.46-1.2,1.48-1.62,2.31a4.18,4.18,0,0,1-1.93,2.13,5.57,5.57,0,0,1-3,.42,17.37,17.37,0,0,1-2.87-.48c-1.9-.44-3.75-1-5.61-1.48a102.32,102.32,0,0,0-11.2-2.38c-.87-.1-1.79,0-2,.46a3.12,3.12,0,0,0,0,2.25,9.31,9.31,0,0,0,2.75,4.44,7.21,7.21,0,0,0,2.21,1.4,11.3,11.3,0,0,0,2.63.61c1.84.22,3.79.25,5.74.47a24.59,24.59,0,0,1,5.74,1.35c1.88.68,3.52,1.67,5.31,2.25a27.16,27.16,0,0,0,5.55,1.31,7.54,7.54,0,0,0,2.8-.14,1.77,1.77,0,0,0,1.48-2,52.84,52.84,0,0,1-.31-5.77c0-1,0-1.93.09-2.95A4,4,0,0,0,593.11,466.73Z"/><path class="cls-14" d="M513.6,321c-.2-1-2.84-.28-5.13-2-2.74-2.07-2.47-5.78-3.42-5.72s-1.64,2.39-1.25,4.43c.25,1.32.87,1.88.63,2.16-.46.51-2.84-1-6.85-3.09-5.47-2.79-6.12-2.53-6.39-2.32-1.17.89-.46,4.56,1.48,6.8a9.56,9.56,0,0,0,4.84,2.64c1.85.56,3.83.53,7.78.47a12.52,12.52,0,0,0,4.82-.62C511.71,323.21,513.78,321.94,513.6,321Z"/><path class="cls-6" d="M513.6,321c-.08-.34-.45-.47-.77-.54a9.91,9.91,0,0,0-1-.17,9.27,9.27,0,0,1-1.95-.48,6.19,6.19,0,0,1-3.08-2.58,10.85,10.85,0,0,1-.87-1.86,9.52,9.52,0,0,0-.73-1.78c-.1-.07-.1-.1-.19,0a.67.67,0,0,0-.25.25,3,3,0,0,0-.4.83,6.07,6.07,0,0,0-.28,1.9,5.47,5.47,0,0,0,.32,1.83c.12.3.25.56.42.89a.42.42,0,0,0,.11.31.75.75,0,0,1,0,.62,1,1,0,0,1-1,.34,9.25,9.25,0,0,1-2-.75c-.62-.3-1.23-.6-1.82-.91-2.4-1.2-4.81-2.47-7.23-3.4-.28-.1-.57-.19-.86-.27h-.34a1.88,1.88,0,0,0-.27,1.31,7.91,7.91,0,0,0,1.14,3.49,6.89,6.89,0,0,0,2.62,2.6,15.84,15.84,0,0,0,3.67,1.35,23.91,23.91,0,0,0,4,.37h4a9.39,9.39,0,0,0,3.92-.73,9.81,9.81,0,0,0,1.76-1C513,322.17,513.63,321.71,513.6,321Zm0,0c0,.73-.62,1.19-1.12,1.59a10.25,10.25,0,0,1-5.68,1.89,52.81,52.81,0,0,1-8.15.1,16,16,0,0,1-4-1.18,7.59,7.59,0,0,1-3.24-2.83,8.88,8.88,0,0,1-1.48-4.06,4.82,4.82,0,0,1,0-1.2,2.14,2.14,0,0,1,.67-1.29,1,1,0,0,1,.46-.28,1.08,1.08,0,0,1,.47-.07,2.55,2.55,0,0,1,.67.07,8.06,8.06,0,0,1,1.06.32,58.68,58.68,0,0,1,7.31,3.66,23.28,23.28,0,0,0,3.43,1.79c.12,0,.12,0,0,.12s0,.1-.09,0a5.71,5.71,0,0,1-.37-1,5.94,5.94,0,0,1-.22-2.14,6.8,6.8,0,0,1,.45-2.08,4.1,4.1,0,0,1,.53-1,1.18,1.18,0,0,1,.52-.38.62.62,0,0,1,.71.24,8.92,8.92,0,0,1,.68,2,8.57,8.57,0,0,0,.74,1.87,5.75,5.75,0,0,0,3,2.62,9.33,9.33,0,0,0,1.95.51,5,5,0,0,1,1,.18C513.17,320.54,513.53,320.66,513.6,321Z"/><path class="cls-14" d="M518.13,259.86c.5-1.62-.71-2.25-1.26-5.27-.6-3.4.61-4.44-.46-5.92-1.56-2-5.38-1.28-5.6-1.24a8,8,0,0,0-3.75,2c-1,.93-2,1.79-2,3,0,.56.21,1.15,3.11,3.86a40.86,40.86,0,0,1,4.05,3.73c1.25,1.48,1.33,2.28,2.18,2.47A3.78,3.78,0,0,0,518.13,259.86Z"/><path class="cls-6" d="M518.13,259.86a3.57,3.57,0,0,0-.49-2.65,13,13,0,0,1-.9-2.56,11,11,0,0,1-.27-2.8c0-.93.23-1.91-.19-2.54a3,3,0,0,0-2-1.23,7.92,7.92,0,0,0-2.57,0,7.35,7.35,0,0,0-4.44,2.29,4.65,4.65,0,0,0-1.48,1.81,1.55,1.55,0,0,0,0,.43,1.12,1.12,0,0,0,.12.35,6.21,6.21,0,0,0,.76,1,52,52,0,0,0,3.8,3.93,11.84,11.84,0,0,1,1.95,2.05c.59.72,1,1.64,1.48,2.27a2.17,2.17,0,0,0,2.5-.17A4.25,4.25,0,0,0,518.13,259.86Zm0,0a4.31,4.31,0,0,1-1.69,2.19,2.35,2.35,0,0,1-2.66.28c-.69-.7-1.12-1.48-1.76-2.16a12.44,12.44,0,0,0-2.07-1.76,49.54,49.54,0,0,1-4.28-3.64,7.73,7.73,0,0,1-1-1.17,2,2,0,0,1-.34-.93,2.49,2.49,0,0,1,.09-.94,5.67,5.67,0,0,1,1.93-2.55,11,11,0,0,1,2.4-1.72,7.43,7.43,0,0,1,3-.74,8.69,8.69,0,0,1,3,.31,3.9,3.9,0,0,1,2.4,1.86,2.69,2.69,0,0,1,.19,1.48l-.19,1.38a9.53,9.53,0,0,0,0,2.72,11.61,11.61,0,0,0,.71,2.66A3.65,3.65,0,0,1,518.13,259.86Z"/><polyline class="cls-14" points="555.49 250.18 549.42 254.81 552.99 257.46"/><path class="cls-6" d="M555.49,250.21a18.68,18.68,0,0,1-2.65,2.83,31.78,31.78,0,0,1-3,2.35v-1.11a18.88,18.88,0,0,1,3.17,3.21,18.46,18.46,0,0,1-4-2.1l-.76-.49.74-.62a28.07,28.07,0,0,1,3.06-2.26A18,18,0,0,1,555.49,250.21Z"/><path class="cls-14" d="M554.39,247.33c-1.8,5.48-3.07,9.39-3.89,11.83,3,.61,3.74,1.07,3.74,1.39,0,.58-2.3.48-3.26,1.87s-.32,3.12.45,4.79l6.08.78a5.67,5.67,0,0,0,.77,4.8c2,2.42,7.28,2.63,12.3-.93-.09-1.63-.24-4.29-.31-7.58-.25-12.77,1-15.67-1.39-18.58-3-3.61-9.53-4.65-12.46-2.32C555.43,244.29,555.07,245.27,554.39,247.33Z"/><path class="cls-6" d="M554.39,247.33c-1.28,4-2.56,8-3.78,11.95v-.15a18.51,18.51,0,0,1,3.18.8c.23.13.56.16.72.64a.56.56,0,0,1-.32.52l-.42.17a11.52,11.52,0,0,0-1.48.56,2.25,2.25,0,0,0-1.33,2.36,8,8,0,0,0,.92,3l-.31-.24,6.08.64h.57l-.1.59a5.93,5.93,0,0,0,.55,4,4.41,4.41,0,0,0,3.46,1.71,10.26,10.26,0,0,0,4.22-.56,15.58,15.58,0,0,0,3.89-2l-.31.64c-.12-3.73-.31-7.4-.21-11.2,0-1.86.1-3.73.21-5.59s.2-3.72.12-5.54a7.55,7.55,0,0,0-.58-2.6,6.77,6.77,0,0,0-1.66-2.1,10.59,10.59,0,0,0-4.88-2.41,8.92,8.92,0,0,0-5.45.35,4,4,0,0,0-2,1.84A18,18,0,0,0,554.39,247.33Zm0,0a20.1,20.1,0,0,1,1-2.62,4.06,4.06,0,0,1,2-1.87,9.25,9.25,0,0,1,5.5-.49,11.4,11.4,0,0,1,5.12,2.27,7.26,7.26,0,0,1,1.86,2.19,7.69,7.69,0,0,1,.77,2.78c.18,1.89.14,3.76.14,5.62v5.56c0,3.72.32,7.4.47,11.12v.41l-.33.22a15.28,15.28,0,0,1-4.27,2.19,11.47,11.47,0,0,1-4.83.59,5.78,5.78,0,0,1-4.43-2.44,6.78,6.78,0,0,1-.54-4.9l.48.66-6.05-.92h-.24l-.09-.21a9,9,0,0,1-.86-3.25,3.08,3.08,0,0,1,.43-1.73,3,3,0,0,1,1.35-1.13,12.17,12.17,0,0,1,1.58-.52,1.16,1.16,0,0,0,.47-.2,1.85,1.85,0,0,0-.48-.36,17.22,17.22,0,0,0-3.07-.92h-.13v-.11Q552.44,253.29,554.39,247.33Z"/><path class="cls-8" d="M549.41,248.45c3.47.68,6.67-.83,8.52,0a14.13,14.13,0,0,1,2.79,1.76h0c1.6,1.38,1.48,2.09,3.23,3.82,1.39,1.34,2,1.48,2.17,2.26s-.47,1.2-.72,3a5.38,5.38,0,0,0,0,2.26c.24,1,.61,1,1,2.49a2.86,2.86,0,0,0,.51,1.12,2.75,2.75,0,0,0,.83.73c1.17.61,3.88-2,4.16-2.26,4.69-4.59,7-6.88,7.4-7.74,1.33-3.54.2-6.76-1.25-11-1.3-3.81-2.32-6.82-5.29-9.09-3.95-3-8.73-2.72-11.11-2.57-4.66.28-4.28,1.83-11.51,3.09-3.52.61-5.29.53-6.44,2.07a6.12,6.12,0,0,0-.1,6.19A8.41,8.41,0,0,0,549.41,248.45Z"/><path class="cls-15" d="M549.41,248.45a18.9,18.9,0,0,0,5.91-.24,4.85,4.85,0,0,1,3,.33,14.41,14.41,0,0,1,2.53,1.6h0a11.71,11.71,0,0,1,2,2.42,12.32,12.32,0,0,0,2.21,2.18,3.84,3.84,0,0,1,1.2,1.14,2,2,0,0,1-.09,1.68,8.12,8.12,0,0,0-.54,3,3.93,3.93,0,0,0,.28,1.48c.18.4.53.89.72,1.41a9.8,9.8,0,0,0,.55,1.39,3.5,3.5,0,0,0,.44.5,1.66,1.66,0,0,0,.49.3,2.12,2.12,0,0,0,1.19-.4,9.52,9.52,0,0,0,1.21-.87,28.16,28.16,0,0,0,2.22-2.15l4.44-4.44c.35-.37.71-.75,1-1.14l.43-.56a1.49,1.49,0,0,0,.25-.56,8,8,0,0,0,.43-2.87,20,20,0,0,0-1.33-5.92c-.68-2-1.27-4-2.1-5.83a11,11,0,0,0-3.61-4.64,13.06,13.06,0,0,0-5.5-2.27,24.19,24.19,0,0,0-6.13-.13c-2,.13-3.86,1.24-5.92,1.82a40.78,40.78,0,0,1-6.21,1.2,16.71,16.71,0,0,0-3,.56,3.39,3.39,0,0,0-2.1,2.08,6.58,6.58,0,0,0,.92,5.92A8.54,8.54,0,0,0,549.41,248.45Zm0,0a8.65,8.65,0,0,1-5.34-3.08,6.78,6.78,0,0,1-1-6.05,3.69,3.69,0,0,1,2.17-2.25,16.53,16.53,0,0,1,3.1-.69,39.92,39.92,0,0,0,6.08-1.48c2-.61,3.79-1.82,6-2.09a25.16,25.16,0,0,1,6.43-.1,13.13,13.13,0,0,1,6.08,2.32,12.47,12.47,0,0,1,4.12,5.11c.91,2,1.48,4,2.24,5.91a21.57,21.57,0,0,1,1.3,6.35,9.55,9.55,0,0,1-.55,3.31,3.08,3.08,0,0,1-.41.88c-.18.23-.36.46-.53.66-.36.42-.73.8-1.1,1.19-1.48,1.48-3,3-4.54,4.44a25.08,25.08,0,0,1-2.4,2.13,12.39,12.39,0,0,1-1.36.91,2.79,2.79,0,0,1-1.8.42,1.85,1.85,0,0,1-.85-.51,2.87,2.87,0,0,1-.56-.69,8.7,8.7,0,0,1-.56-1.55c-.15-.48-.43-.85-.67-1.41a4.44,4.44,0,0,1-.26-1.66,8.79,8.79,0,0,1,.69-3.16,1.49,1.49,0,0,0,.15-1.33c-.16-.4-.64-.7-1-1.06a13.09,13.09,0,0,1-2.17-2.29,11.49,11.49,0,0,0-2-2.44h0a14.84,14.84,0,0,0-2.5-1.51,4.85,4.85,0,0,0-2.86-.35A19.14,19.14,0,0,1,549.41,248.45Z"/><path class="cls-16" d="M512.3,263.42c-.52,3.51,3.57,6,19.46,17.42,10,7.19,12.37,9,15,8,5.43-2,5.59-13.31,5.61-14.7a74.1,74.1,0,0,1-33.71-16.72C513.65,259.72,512.57,262.05,512.3,263.42Z"/><path class="cls-13" d="M512.3,263.42a3.86,3.86,0,0,0,.24,1.87,6.47,6.47,0,0,0,1,1.58,21.24,21.24,0,0,0,2.77,2.59c2,1.58,4,3.06,6.09,4.53L535,282.6a75.32,75.32,0,0,0,6.3,4.17,15.22,15.22,0,0,0,3.25,1.57,3,3,0,0,0,1.57,0,4.48,4.48,0,0,0,1.48-.7,6.79,6.79,0,0,0,2.09-2.71,16,16,0,0,0,1.17-3.44,35.46,35.46,0,0,0,.88-7.4l.55.67a71.62,71.62,0,0,1-9.21-2.62,75.08,75.08,0,0,1-8.75-3.88,79.14,79.14,0,0,1-15.65-10.83h.09a18.76,18.76,0,0,0-3.94,2.25A6.1,6.1,0,0,0,512.3,263.42Zm0,0a6.12,6.12,0,0,1,2.44-3.71,18.48,18.48,0,0,1,3.92-2.32h0a69.65,69.65,0,0,0,15.89,10.23,72.94,72.94,0,0,0,8.79,3.47,84.23,84.23,0,0,0,9.11,2.41l.55.1v.56a33.31,33.31,0,0,1-.84,7.71,16.59,16.59,0,0,1-1.33,3.73,8.07,8.07,0,0,1-2.58,3.18,4.75,4.75,0,0,1-.93.53,3.76,3.76,0,0,1-1,.36,4.39,4.39,0,0,1-2.19-.11,13.59,13.59,0,0,1-3.54-1.8c-2.14-1.48-4.15-3-6.19-4.44l-12.18-9.11c-2-1.48-4.08-3-6-4.65a18.56,18.56,0,0,1-2.74-2.65,6.21,6.21,0,0,1-1-1.61A3.75,3.75,0,0,1,512.3,263.42Z"/><path class="cls-17" d="M546.06,465c-2.56-49.49-1.55-55.11-1.55-55.11-1.67-15-2.49-34.79-1.48-64.72l42,.62c2.4,4.84,2,7.8,1.24,9.61-1.09,2.5-3.15,3.18-12.45,8.36-6.84,3.78-8.49,4.95-9.65,7.11a12.86,12.86,0,0,0-.93,8.67q-2.21,15.35-4.36,30.66a23.94,23.94,0,0,1,2.48,8,27.44,27.44,0,0,1-.93,9.92c-.89,5.75-.93,16.92-5.28,42.1-2.5.24-6.14.18-7.95-2.08A5.58,5.58,0,0,1,546.06,465Z"/><path class="cls-13" d="M546.06,465q-.79-15-1.48-29.95-.29-7.5-.44-15V409.74l-.1-.93-.4-3.73c-1-10-1.48-20-1.65-30s-.1-20,.18-30v-.64h.62l42,.54h.45l.2.39a17.71,17.71,0,0,1,1.82,5.72,7.93,7.93,0,0,1-1.48,6,19.46,19.46,0,0,1-4.94,3.39l-5,2.78-5,2.81a29.4,29.4,0,0,0-4.69,3.12,8.44,8.44,0,0,0-2.52,4.66,14.24,14.24,0,0,0,0,5.52v.18L559.1,410.2V410a23,23,0,0,1,2.17,15c-.2,1.26-.63,2.49-.8,3.71s-.31,2.52-.43,3.78l-.74,7.59c-1,10.1-2.45,20.16-4.2,30.16h0a12.75,12.75,0,0,1-5.91-.6,5.22,5.22,0,0,1-2.3-1.85A5.71,5.71,0,0,1,546.06,465Zm0,0a5.43,5.43,0,0,0,.86,2.82,5.07,5.07,0,0,0,2.37,1.84,12.79,12.79,0,0,0,5.92.57h0c1.7-10,3.12-20.06,4-30.18l.62-7.59c.12-1.27.22-2.53.4-3.8s.54-2.49.74-3.74a22.73,22.73,0,0,0-2.33-14.59v-.19l4.15-30.69v.18a15.12,15.12,0,0,1-.15-5.92,9.58,9.58,0,0,1,2.84-5.35A31.08,31.08,0,0,1,570.4,365l5.05-2.84,5.06-2.79a18.63,18.63,0,0,0,4.55-3.11,6.51,6.51,0,0,0,1.17-4.93,16.61,16.61,0,0,0-1.72-5.22l.64.4-42-.71.65-.62c-.33,10-.59,20-.55,30s.36,20,1.22,29.93l.35,3.72.09.94v1l-.09,1.86q-.13,3.75,0,7.49c0,5,.18,10,.33,15C545.13,445,545.59,455,546.06,465Z"/><path class="cls-17" d="M564.69,364.94l8.67,46.25,12.25,56.5h8.06V446.27c0-5.78-.31-10.56-.62-14a53.4,53.4,0,0,0-1.48-9.49,40.12,40.12,0,0,0-3.82-9.5l-1.86-60.66"/><path class="cls-13" d="M564.69,364.94l5.16,25.73,2.52,12.86c.83,4.29,1.66,8.58,2.66,12.84,3.86,17.06,7.52,34.15,11.27,51.22l-.69-.56h8.06l-.74.72V453.89c0-4.62.09-9.23-.09-13.83a123.66,123.66,0,0,0-1.18-13.72,38.35,38.35,0,0,0-4.56-12.78l-.07-.13v-.15l-.73-30.35-.54-30.35,1.31,30.32,1.14,30.35-.07-.28a38.24,38.24,0,0,1,4.79,13.16A129.22,129.22,0,0,1,594.21,440c.19,4.65.11,9.26.14,13.89v14.59h-9.41l-.11-.56c-3.64-17.12-7.4-34.19-10.94-51.32-.93-4.26-1.7-8.57-2.47-12.87l-2.22-13Z"/><path class="cls-16" d="M547.81,274.64c2-1.73,5.38-2,12.15-2.33,6.12-.32,9.29-.47,13.53.63a31.5,31.5,0,0,1,7.64,3.1A85.87,85.87,0,0,1,584.71,294c1.55,17.75-3.29,27.89.62,46.76.52,2.49,1,4.44,1.39,5.73a73.53,73.53,0,0,1-45.45.62q2.65-14.49,5.3-29l-8.13,6-31.06,1.56,5.6-6.51,18.84-4.44c10.09-13.72,12.53-23.57,12.76-30.2C544.58,282.32,544.52,277.49,547.81,274.64Z"/><path class="cls-13" d="M547.81,274.64a8.09,8.09,0,0,1,3.93-1.62,38.64,38.64,0,0,1,4.28-.48c2.86-.2,5.73-.37,8.6-.48a29.62,29.62,0,0,1,8.55.73,30.68,30.68,0,0,1,8,3.16h0a89,89,0,0,1,3.63,17.46,101.18,101.18,0,0,1,0,17.75,138.54,138.54,0,0,0-.6,17.76,69.86,69.86,0,0,0,1,8.77c.48,3,1.28,5.74,2,8.61l.14.55-.52.18a74,74,0,0,1-45.87.75l-.6-.21.12-.62L545.83,318l1,.64-8.12,5.92-.15.1h-.18L507.24,326h-.83l.55-.62,5.65-6.47v-.07h.09l18.88-4.35h-.09a73.27,73.27,0,0,0,10.65-19.13,38.23,38.23,0,0,0,2.19-10.73,24.55,24.55,0,0,1,.59-5.46A9.28,9.28,0,0,1,547.81,274.64Zm0,0a9.15,9.15,0,0,0-2.69,4.7,25.13,25.13,0,0,0-.57,5.46,38.14,38.14,0,0,1-2.13,10.77,75.15,75.15,0,0,1-10.53,19.23h0l-18.8,4.64.14-.09-5.54,6.54-.3-.6,31.07-1.77-.33.12,8.07-6.08,1.3-1-.3,1.61-5.31,29-.49-.81a74.85,74.85,0,0,0,22.68,3.3,73.2,73.2,0,0,0,22.49-3.81l-.38.74c-.67-3-1.48-5.8-1.9-8.76a73.17,73.17,0,0,1-.87-8.87,140.55,140.55,0,0,1,.86-17.76,101.19,101.19,0,0,0,.21-17.75,83.56,83.56,0,0,0-3.42-17.38h0a31.27,31.27,0,0,0-7.93-3.18,29.81,29.81,0,0,0-8.52-.79c-2.87.09-5.74.25-8.6.43a41.15,41.15,0,0,0-4.28.46A8,8,0,0,0,547.81,274.64Z"/><path class="cls-18" d="M553.73,250.45a6.12,6.12,0,0,1,3,1.48,6.39,6.39,0,0,1,.5.54"/><path class="cls-13" d="M553.73,250.45a2.38,2.38,0,0,1,3.4,2.08,4.54,4.54,0,0,1-1.08-.29,9,9,0,0,1-.83-.4A5.07,5.07,0,0,1,553.73,250.45Z"/><path class="cls-18" d="M554,252.27l-.89,1.34"/><path class="cls-13" d="M554,252.27c.34.54.29.84.18,1.08s-.43.37-1.07.26c-.34-.54-.31-.84-.18-1.08S553.4,252.18,554,252.27Z"/><rect class="cls-9" x="206.2" y="166.34" width="85.44" height="5.84"/><rect class="cls-6" x="236.06" y="152.05" width="85.44" height="5.84"/><rect class="cls-7" x="269.85" y="137.75" width="85.44" height="5.84"/><rect class="cls-8" x="303.92" y="125.46" width="85.44" height="5.84"/></g></g></svg>