<svg width="23" height="23" viewBox="0 0 23 23" fill="none" xmlns="http://www.w3.org/2000/svg">
<path d="M13.4002 14.6999L7.90019 9.19991L9.70021 7.3999L4.20021 1.8999L1.5002 4.59991C-0.399805 6.49991 -0.399805 9.4999 1.5002 11.3999L11.3002 21.1999C12.2002 22.0999 13.4002 22.5999 14.7002 22.5999C16.0002 22.5999 17.2002 22.0999 18.1002 21.1999L20.8002 18.4999L15.3002 12.9999L13.4002 14.6999ZM16.8002 19.8999C16.2002 20.4999 15.5002 20.7999 14.6002 20.7999C13.8002 20.7999 13.0002 20.4999 12.4002 19.8999L2.6002 10.0999C1.4002 8.89991 1.4002 6.99991 2.6002 5.79991L4.1002 4.29991L7.20021 7.3999L5.40019 9.19991L13.4002 17.1999L15.2002 15.3999L18.2002 18.3999L16.8002 19.8999Z" fill="#EA5616"/>
<path d="M17.4002 10.4H19.1002C19.1002 6.59999 16.0002 3.5 12.2002 3.5V5.2C15.1002 5.2 17.4002 7.59999 17.4002 10.4Z" fill="#EA5616"/>
<path d="M12.2002 0V1.7C17.0002 1.7 20.8002 5.59999 20.8002 10.3H22.5002C22.6002 4.69999 17.9002 0 12.2002 0Z" fill="#EA5616"/>
</svg>
