<svg width="15" height="24" viewBox="0 0 15 24" fill="none" xmlns="http://www.w3.org/2000/svg">
<path d="M7.39995 17.7C6.79995 17.7 6.19995 18.1999 6.19995 18.8999C6.19995 19.5999 6.69995 20.0999 7.39995 20.0999C8.09995 20.0999 8.59996 19.5999 8.59996 18.8999C8.59996 18.1999 7.99995 17.7 7.39995 17.7Z" fill="#EA5616"/>
<path d="M13.8 2.0001C9.7 0.300098 5.2 0.300098 1 2.0001L0.5 2.20011V21.6001L1 21.8001C3.1 22.6001 5.19999 23.1001 7.39999 23.1001C9.59999 23.1001 11.7 22.7001 13.8 21.8001L14.3 21.6001V2.20011L13.8 2.0001ZM12.6 20.5001C9.20001 21.8001 5.6 21.8001 2.2 20.5001V3.40009C5.6 2.10009 9.20001 2.10009 12.6 3.40009V20.5001Z" fill="#EA5616"/>
<path d="M9.19995 4.30005H5.69995V5.60007H9.19995V4.30005Z" fill="#EA5616"/>
</svg>
