<svg xmlns="http://www.w3.org/2000/svg" xmlns:xlink="http://www.w3.org/1999/xlink" viewBox="0 0 898.35 590.32"><defs><style>.cls-1{fill:#c9cde9;}.cls-2{fill:#b1b6dd;}.cls-3,.cls-8{fill:#232249;}.cls-4{fill:#292b61;}.cls-4,.cls-6,.cls-7,.cls-8{stroke:#312783;}.cls-10,.cls-11,.cls-12,.cls-16,.cls-18,.cls-19,.cls-20,.cls-4,.cls-5,.cls-6,.cls-7,.cls-8,.cls-9{stroke-miterlimit:10;}.cls-14,.cls-5{fill:#fcd4b6;}.cls-10,.cls-11,.cls-16,.cls-18,.cls-19,.cls-20,.cls-5,.cls-9{stroke:#f59d5c;}.cls-6{fill:#404999;}.cls-16,.cls-7{fill:#fff;}.cls-9{fill:url(#Безымянный_градиент_59);}.cls-10{fill:url(#Безымянный_градиент_59-2);}.cls-11{fill:url(#Безымянный_градиент_59-3);}.cls-12{fill:none;stroke:url(#Безымянный_градиент_59-4);}.cls-13{fill:#312783;}.cls-15{fill:#f59d5c;}.cls-17{fill:url(#Безымянный_градиент_59-5);}.cls-18{fill:url(#Безымянный_градиент_59-6);}.cls-19{fill:url(#Безымянный_градиент_59-7);}.cls-20{fill:url(#Безымянный_градиент_59-8);}</style><linearGradient id="Безымянный_градиент_59" x1="2340.8" y1="83.17" x2="2399.82" y2="83.17" gradientTransform="matrix(-1, 0, 0, 1, 2996.5, 0)" gradientUnits="userSpaceOnUse"><stop offset="0" stop-color="#ed6e27"/><stop offset="0.95" stop-color="#ed6e27"/></linearGradient><linearGradient id="Безымянный_градиент_59-2" x1="2332.02" y1="105.33" x2="2348.84" y2="105.33" xlink:href="#Безымянный_градиент_59"/><linearGradient id="Безымянный_градиент_59-3" x1="2392.71" y1="103.55" x2="2409.54" y2="103.55" xlink:href="#Безымянный_градиент_59"/><linearGradient id="Безымянный_градиент_59-4" x1="2368.91" y1="127.64" x2="2398.52" y2="127.64" xlink:href="#Безымянный_градиент_59"/><linearGradient id="Безымянный_градиент_59-5" x1="2365.51" y1="137.91" x2="2373.64" y2="137.91" xlink:href="#Безымянный_градиент_59"/><linearGradient id="Безымянный_градиент_59-6" x1="210.12" y1="251.16" x2="513.55" y2="251.16" gradientTransform="matrix(1, 0, 0, 1, 0, 0)" xlink:href="#Безымянный_градиент_59"/><linearGradient id="Безымянный_градиент_59-7" x1="216.37" y1="371.09" x2="279.29" y2="371.09" gradientTransform="matrix(1, 0, 0, 1, 0, 0)" xlink:href="#Безымянный_градиент_59"/><linearGradient id="Безымянный_градиент_59-8" x1="450.6" y1="371.09" x2="513.52" y2="371.09" gradientTransform="matrix(1, 0, 0, 1, 0, 0)" xlink:href="#Безымянный_градиент_59"/></defs><title>Моя поддержка_1</title><g id="Слой_2" data-name="Слой 2"><g id="Слой_4" data-name="Слой 4"><path class="cls-1" d="M835.43,584c-59.43,25-101-30.56-202.21-56.68-65.4-16.89-134-7.18-271.15,12.25-53.27,7.55-203.34,18.49-251.23,23-34.4,3.22-71.9,6.77-93.45-16.85-26.81-29.38-20.94-92,6.13-110.3,12.25-8.27,22.9-3.45,39.83-15.32,17.56-12.32,24.55-30.44,27.57-38.3,16.46-42.7-8.87-84-19.91-148.59-4.75-27.7-12.93-75.55-2.69-119,4.62-19.66,13-38.44,27.2-54.06C120.14,33,155.33,22.92,166,20.27c25.1-6.24,44.43-3.87,73.53,0C372.05,37.89,372.76,41.91,397.3,40.19c54.18-3.8,44.86-22.94,114.9-33.71C547.07,1.12,599-6.85,657.73,11.08c41.58,12.68,54.19,28.44,91.91,27.57,19.61-.45,31.94-5.07,41.89-8.57,9.75-3.44,17.22-5.81,27.05-2.15C859.23,43.06,862,132.27,863,165.8c2.18,71.09-14.76,77.69-13.79,168.51.83,78.27,13.74,104.06,19.91,114.9,14.23,25,27.74,31.93,29.11,52.08C900.46,534,868.57,570.09,835.43,584Z"/><path class="cls-2" d="M835.43,584c-59.43,25-101-30.56-202.21-56.68-65.4-16.89-134-7.18-271.15,12.25-53.27,7.55-203.34,18.49-251.23,23-34.4,3.22-71.9,6.77-93.45-16.85-26.81-29.38-20.94-92,6.13-110.3,12.25-8.27,22.9-3.45,39.83-15.32,17.56-12.32,24.55-30.44,27.57-38.3,16.46-42.7-8.87-84-19.91-148.59-4.75-27.7-12.93-75.55-2.69-119,52,32.84,98.3,102.8,100.5,168.08,2.47,73.34-51.12,128.87-23,165.44,13,16.95,36.32,20.31,70.46,21.45,110.6,3.7,153.09-21.92,225.19-27.57,119-9.33,135.47,50.11,274.22,36.76,42.16-4.05,108.19-10.41,122.55-47.49,13.1-33.82-28.53-62.93-46-151.66-4.48-22.82-5-44.32-6.12-87.32-1.81-70.94-3.22-126.2,5.34-161.77,9.75-3.44,17.22-5.81,27.05-2.15C859.23,43.06,862,132.27,863,165.8c2.18,71.09-14.76,77.69-13.79,168.51.83,78.27,13.74,104.06,19.91,114.9,14.23,25,27.74,31.93,29.11,52.08C900.46,534,868.57,570.09,835.43,584Z"/></g><g id="Слой_2-2" data-name="Слой 2"><path class="cls-3" d="M572.58,323.68H680.66a7.3,7.3,0,0,0,5.57-3.13,6,6,0,0,0,.95-3.39c-.14-2.84-2.75-5.53-6.52-6.53H572.58a6.53,6.53,0,1,0,0,13.05Z"/><rect class="cls-3" x="615.78" y="323.68" width="18.53" height="75.86" transform="translate(1250.09 723.23) rotate(-180)"/><rect class="cls-3" x="651.1" y="383.26" width="7.74" height="76.91" transform="translate(1416.31 256.78) rotate(135)"/><circle class="cls-3" cx="685.6" cy="454.26" r="10.39"/><rect class="cls-3" x="591.24" y="383.26" width="7.74" height="76.91" transform="translate(472.5 -297.29) rotate(45)"/><circle class="cls-3" cx="564.49" cy="454.26" r="10.39"/><rect class="cls-3" x="621.17" y="393.67" width="7.74" height="76.91" transform="translate(-0.56 0.81) rotate(-0.07)"/><circle class="cls-3" cx="625.05" cy="472.66" r="10.39"/><path class="cls-3" d="M683.64,121.75a144.61,144.61,0,0,0-10.31,25.89c-12,41.47,2.06,63.27,6.31,99.86.21,1.82.75,6.68,4.29,9.08,3,2,7.17,1.58,9.6.55,7.79-3.32,8.91-17.32,9.51-25.94,5.27-76,2.13-62.87,3.63-91.26.92-17.51,2.51-29.87-3.72-33.12-4.78-2.49-11.91,1.59-17.16,5.44"/><path class="cls-3" d="M696,243.33l-4,80.35v3h0a10.08,10.08,0,0,1-9.63-10.51l3.24-72.8h5.2"/><polygon class="cls-4" points="533.6 441.05 536.8 448.65 536.8 462.27 470.92 462.27 472.12 454.26 522.38 447.65 522.78 439.24 533.6 441.05"/><path class="cls-4" d="M652.43,258.77c1.68,3.3,2.57,9.55,2.78,13.93.15,3.29.42,10.75-2.78,18.42-3,7.16-7.63,11.1-11.47,14.37a43.29,43.29,0,0,1-4.17,3.15l-104.92.45a165,165,0,0,1,7.65,35.49,187,187,0,0,1,.34,31.45c-.9,17.28-2.3,39.9-4.51,66.94l-13.2.9L507.9,291.12l1.74-13.93c45.09-1.94,77.12-10.15,99-18C615.12,256.91,645.73,245.68,652.43,258.77Z"/><polygon class="cls-4" points="519.1 441.05 522.31 448.65 522.31 462.27 456.42 462.27 457.62 454.26 507.89 447.65 508.29 439.24 519.1 441.05"/><path class="cls-4" d="M639,258.77c1.69,3.3,2.57,9.55,2.78,13.93.15,3.29.42,10.75-2.78,18.42-3,7.16-7.62,11.1-11.47,14.37a43.29,43.29,0,0,1-4.17,3.15l-104.91.45a165.68,165.68,0,0,1,7.64,35.49c1.28,12.46.85,21.94.35,31.45-.91,17.28-2.31,39.9-4.52,66.94l-13.2.9L494.47,291.12l1.74-13.93c45.09-1.94,77.13-10.15,99-18C601.69,256.91,632.3,245.68,639,258.77Z"/><path class="cls-5" d="M504.36,228c-3.21-3.1-7.67-.92-19.63,0-9.25.71-10.87-.27-15,1.6a22.94,22.94,0,0,0-9.41,8.21l40.25,1.2c3.28-1.09,5.56-3.41,5.81-6A6.72,6.72,0,0,0,504.36,228Z"/><path class="cls-5" d="M693.88,164.47c3.27-2.3,2.45-6.25,4.28-12.41a36.8,36.8,0,0,1,9.21-15.22,1.83,1.83,0,0,0-.67-2.41,1.85,1.85,0,0,0-2.27,1.47L699.22,143l3.34-16.16a1.47,1.47,0,0,0-2.94-.13q-1.53,5.81-3.07,11.62-.39-7.81-.8-15.63l-1.2-1.2-2,.27-.27,16-5.61-15.89a1.67,1.67,0,0,0-1.73-.53,1.69,1.69,0,0,0-1.2,1.33q1.26,7.35,2.53,14.69c-.71,3.52-2.78,12.67-5.6,12.69a1.91,1.91,0,0,1-1.34-.67c-1.45-1.49-2.58-2.75-3.34-3.61-2.4-2.73-3.3-4-5.07-4.4a4.92,4.92,0,0,0-2.4.13l8,12.68c1.8.75,4.25,2.13,5.34,4.68.9,2.1.13,3.27,1.07,4.67C684.68,166.16,690.52,166.84,693.88,164.47Z"/><path class="cls-6" d="M637.74,141a67.12,67.12,0,0,1,16.76,3.14,48.38,48.38,0,0,1,6.74,2.6c13.59,7.13,12,33.41,16.15,33.71,1.41.1,0-3.55,3.81-19.66,3.6,1.06,11,1.73,14.62,2.8-1.72,20.27-6.21,47.26-7.21,55.31-.27,2.17,2.31,10.53-2,15.63a25.68,25.68,0,0,1-6.41,4.8c-2.93,1.66-4.71,2.67-7.21,2.81-4.19.23-7.47-2.15-10-4a32.26,32.26,0,0,1-6-6,59.33,59.33,0,0,1-5.21-7.21l8,48.07-70.5-.4c1.71-35.81,3.09-50.84,4.19-55.2,0,0,.69-2.72.22-2.88s-1.72,5.13-5.61,7.61a30.3,30.3,0,0,1-6.61,3.36A236.88,236.88,0,0,1,502.56,238c.13-5.61-4.54-14.66,1-15.59,21.63-3.63,49.07-14.65,65.89-22.86,8.81-15.35,12.21-28.11,21-43.46.69-5.64,8.24-12.82,13.11-14.22,4.38-1.25,10.27-2.24,11.32-1.7l10.81,31Q631.74,156.07,637.74,141Z"/><polyline class="cls-7" points="639.64 142.51 639.36 143.12 625.72 172.75 614.21 143.85"/><polygon class="cls-5" points="636.07 135.5 636.07 147.65 626.19 154.06 616.04 147.52 615.38 133.63 636.07 135.5"/><polygon class="cls-7" points="629.38 148.12 629.38 160.14 642.76 147.59 642.76 137.71 642.76 136.1 629.38 148.12"/><polygon class="cls-7" points="623.52 148.12 623.52 160.14 611.17 147.59 611.17 137.71 611.17 136.1 623.52 148.12"/><path class="cls-8" d="M657.37,92c-1.27-7.38-6.39-16.37-14.62-19.42-4.23-1.57-7.1-.77-11.82-3.81a22.41,22.41,0,0,1-5.61-5.21,13.82,13.82,0,0,1-3.6,5c-4.05,3.52-8.07,2.53-12.82,4C600.37,75.27,593.08,84.8,594.68,91c.86,3.35,4.15,5.19,6.41,6.41,9.25,5,15.31.29,29,1.2,15.08,1,22.27,7.65,26.24,3.61C658.71,99.87,658,95.71,657.37,92Z"/><path class="cls-5" d="M647.09,100.32c.63,5.65,1.87,17.86-3.74,28.84a35,35,0,0,1-1.87,3.2c-1.64,2.49-5.22,7.76-11.75,10.42a9.46,9.46,0,0,1-4,1.07c-2.89-.06-5.07-1.9-9.61-6.95-5.55-6.17-8.32-9.26-9.35-11.75-.88-2.14-1.3-5.88-2.13-13.35-.64-5.74-1-8.66-.8-11,.17-2.58.88-12.78,5.6-14.42,3.56-1.22,5.28,3.8,11.75,5.34,10.11,2.41,17.13-7.17,22.43-4C645.82,89.09,646.24,92.83,647.09,100.32Z"/><path class="cls-9" d="M655.7,91.44A40.51,40.51,0,0,0,641,77.56,37.88,37.88,0,0,0,626.86,73L626.3,73c-2.76-.25-13.5-1.23-21.6,5.4a24.72,24.72,0,0,0-8,13.08l1.61,2.14a23.14,23.14,0,0,1,8-12.55c6.83-5.23,15-4.49,20.29-4a33.09,33.09,0,0,1,26.17,15.76"/><path class="cls-10" d="M647.66,87.44c7.44,1.2,16.78,5.31,16.82,16.29,0,9.07-4.13,15.73-14.68,19.49Z"/><path class="cls-11" d="M603.79,85.66C596.35,86.86,587,91,587,102c0,9.07,4.14,15.73,14.69,19.49Z"/><path class="cls-12" d="M598.48,115.74a25.06,25.06,0,0,0,8,15.31,26.94,26.94,0,0,0,9.25,5.89,34,34,0,0,0,11.85,2.17"/><path class="cls-3" d="M616.49,107.16c.07,2.64.13,5.28.2,7.91"/><path class="cls-13" d="M616.49,107.16a15.9,15.9,0,0,1,.2,7.91,15.9,15.9,0,0,1-.2-7.91Z"/><path class="cls-3" d="M632.59,107.16q.09,4,.2,7.91"/><path class="cls-13" d="M632.59,107.16a15.9,15.9,0,0,1,.2,7.91,15.9,15.9,0,0,1-.2-7.91Z"/><path class="cls-13" d="M630.63,102a7.65,7.65,0,0,1,9.61,3.7,15.32,15.32,0,0,0-4.45-2.78A14.77,14.77,0,0,0,630.63,102Z"/><path class="cls-13" d="M620.18,102a14.81,14.81,0,0,0-5.16.92,15.32,15.32,0,0,0-4.45,2.78,7.46,7.46,0,0,1,4.09-3.71A7.37,7.37,0,0,1,620.18,102Z"/><polyline class="cls-14" points="629.38 120.63 625.25 125.81 619.78 120.63"/><path class="cls-15" d="M629.38,120.63a31.22,31.22,0,0,1-1.78,2.82c-.62.91-1.29,1.8-2,2.66l-.33.42-.39-.37c-.92-.85-1.81-1.73-2.67-2.65a30.86,30.86,0,0,1-2.46-2.88,34.05,34.05,0,0,1,3,2.29c1,.82,1.89,1.66,2.79,2.53l-.72,0c.7-.86,1.41-1.7,2.16-2.51A30.91,30.91,0,0,1,629.38,120.63Z"/><path class="cls-16" d="M635.4,126.16c-.81-.9-4.2,3.22-9.88,3.33-6.13.13-10-4.52-10.68-3.73s2.43,5.91,7.61,7.61a10.51,10.51,0,0,0,7.75-.27C634,131.28,636.15,127,635.4,126.16Z"/><circle class="cls-17" cx="626.93" cy="137.91" r="4.07"/><rect class="cls-18" x="210.12" y="241.68" width="303.43" height="18.95" rx="6.04"/><polyline class="cls-19" points="262.4 260.63 216.37 481.55 229.21 481.55 279.29 260.63"/><polyline class="cls-20" points="467.49 260.63 513.52 481.55 500.68 481.55 450.6 260.63"/><rect class="cls-6" x="363.35" y="64.66" width="12.02" height="142.89"/><rect class="cls-6" x="367.67" y="207.49" width="3.39" height="34.19"/><rect class="cls-6" x="342.06" y="236.37" width="54.61" height="5.35"/><rect class="cls-6" x="406.18" y="236.33" width="40.72" height="5.35"/><path class="cls-6" d="M460.3,240.67c1.68-1.86,4.72-6.09,9.24-7.63,1.27-.44,9.58-3.12,17.49,1.6,1.39.83,7.28,5,5.48,5.34C487.83,240.93,486,241.2,460.3,240.67Z"/></g></g></svg>